<svg width="24" height="25" viewBox="0 0 24 25" fill="none" xmlns="http://www.w3.org/2000/svg">
<g id="Social platforms logo" clip-path="url(#clip0_1944_9826)">
<path id="Logo" d="M21.6845 19.0002C21.3216 19.8387 20.892 20.6105 20.3942 21.3201C19.7157 22.2875 19.1602 22.9571 18.732 23.3289C18.0684 23.9393 17.3573 24.2519 16.5958 24.2696C16.0492 24.2696 15.3899 24.1141 14.6225 23.7985C13.8526 23.4845 13.1451 23.3289 12.4982 23.3289C11.8197 23.3289 11.092 23.4845 10.3136 23.7985C9.53411 24.1141 8.90613 24.2785 8.426 24.2948C7.6958 24.3259 6.96797 24.0045 6.24147 23.3289C5.77779 22.9245 5.19781 22.2312 4.50301 21.249C3.75756 20.2001 3.14469 18.9839 2.66455 17.5972C2.15035 16.0995 1.89258 14.6492 1.89258 13.2451C1.89258 11.6367 2.24012 10.2495 2.93625 9.08698C3.48334 8.15323 4.21117 7.41666 5.1221 6.87594C6.03304 6.33521 7.0173 6.05967 8.07727 6.04204C8.65725 6.04204 9.41782 6.22144 10.363 6.57402C11.3055 6.92779 11.9106 7.10719 12.176 7.10719C12.3743 7.10719 13.0466 6.89742 14.1863 6.47921C15.264 6.09137 16.1736 5.93078 16.9188 5.99404C18.938 6.157 20.4549 6.95297 21.4638 8.387C19.6579 9.48119 18.7646 11.0137 18.7824 12.9798C18.7987 14.5111 19.3542 15.7854 20.4461 16.7973C20.9409 17.2669 21.4934 17.6298 22.1082 17.8876C21.9749 18.2743 21.8342 18.6446 21.6845 19.0002ZM17.0536 0.777012C17.0536 1.97729 16.6151 3.09798 15.741 4.13528C14.6862 5.36843 13.4104 6.081 12.0269 5.96856C12.0093 5.82456 11.9991 5.67301 11.9991 5.51376C11.9991 4.3615 12.5007 3.12835 13.3915 2.12008C13.8362 1.60958 14.4018 1.1851 15.0877 0.84649C15.7721 0.51293 16.4195 0.328464 17.0284 0.296875C17.0462 0.457333 17.0536 0.617801 17.0536 0.776996V0.777012Z" fill="white"/>
</g>
<defs>
<clipPath id="clip0_1944_9826">
<rect width="24" height="24" fill="white" transform="translate(0 0.296875)"/>
</clipPath>
</defs>
</svg>
