<svg width="111" height="51" viewBox="0 0 111 51" fill="none" xmlns="http://www.w3.org/2000/svg">
<path d="M86.3514 13.6219C82.8312 12.7516 79.2501 14.1929 77.3985 17.2197C75.5691 20.2077 75.9239 24.1215 78.2522 26.7103C80.7191 29.4544 84.45 30.2083 87.7983 28.645C88.1198 28.4954 88.3915 28.1628 88.8128 28.3069C88.9015 30.0309 88.6742 30.9789 87.9369 31.9435C85.9246 34.5767 82.2104 34.305 80.32 31.3836C79.5772 30.2361 78.729 29.9256 77.781 30.4523C76.7776 31.0122 76.5892 31.9989 77.2821 33.2019C78.2744 34.9315 79.7324 36.1123 81.5895 36.8163C81.9165 36.9383 81.8722 36.9383 82.3711 37.1267C82.9421 37.3485 84.6994 37.4039 85.5143 37.2542C86.0133 37.1655 86.2184 37.0547 86.551 36.9604C89.9437 35.9459 92.3219 32.958 92.405 29.4156C92.466 26.6494 92.4771 23.8831 92.3995 21.1169C92.2942 17.5579 89.7496 14.459 86.3514 13.6219ZM79.7545 21.4107C79.749 18.9271 81.8112 16.8926 84.328 16.9037C86.7949 16.9148 88.8128 18.8883 88.8516 21.3275C88.8904 23.8166 86.8503 25.8899 84.3502 25.9065C81.8279 25.9176 79.7656 23.8997 79.7545 21.4107Z" fill="white"/>
<path d="M109.629 19.0213C108.409 15.2517 104.656 12.8568 100.815 13.4223C96.8176 14.0099 93.874 17.3139 93.8019 21.2886C93.7354 25.1858 96.5405 28.5674 100.471 29.3213C104.279 30.053 108.176 27.8079 109.529 24.1214C109.662 23.75 109.984 22.9683 110.022 22.3974C110.078 21.5104 110.067 20.7176 109.923 20.0524C109.812 19.5701 109.734 19.3539 109.629 19.0213ZM101.862 25.9064C99.3954 25.8954 97.3831 23.9218 97.3387 21.4716C97.2944 18.9825 99.3344 16.9203 101.857 16.9092C104.385 16.8981 106.452 18.916 106.452 21.4051C106.452 23.8886 104.39 25.912 101.862 25.9064Z" fill="white"/>
<path d="M65.2527 19.6845C64.1938 15.0057 59.6148 12.367 55.0802 13.7861C50.5233 15.2164 48.1618 20.1613 49.9579 24.5241C51.693 28.7483 56.9484 30.683 61.0894 28.6152C61.5773 28.3713 61.9431 28.0165 62.4143 28.7483C62.8301 29.3913 63.5563 29.602 64.3435 29.286C65.1085 28.9756 65.4411 28.3935 65.4356 27.5897C65.4301 26.4421 65.4356 25.2946 65.4356 23.8533C65.3635 22.6559 65.5853 21.1536 65.2527 19.6845ZM57.4196 25.9044C54.8363 25.8712 52.8073 23.8588 52.8794 21.403C52.9459 18.9639 55.0746 16.9183 57.5304 16.9294C60.0029 16.9404 61.9653 19.0137 61.932 21.5749C61.9043 24.0972 59.9862 25.9377 57.4196 25.9044Z" fill="white"/>
<path d="M76.7494 15.0037C76.6607 13.8451 75.685 13.2519 74.1716 13.4182C70.5406 13.8229 67.7134 16.4173 67.0204 20.0151C66.7543 21.401 66.9594 22.8146 66.8985 23.9787C66.8985 25.2316 66.8929 26.2516 66.8985 27.2716C66.9096 28.6741 67.5304 29.4502 68.6392 29.4613C69.7479 29.478 70.4242 28.6908 70.4408 27.3104C70.4574 25.3591 70.4242 23.4022 70.4519 21.4509C70.4852 19.0117 72.176 17.0714 74.5874 16.9716C76.0177 16.9107 76.8215 15.9627 76.7494 15.0037Z" fill="white"/>
<path d="M17.0545 40.8906C17.0587 40.8906 17.0631 40.9035 17.0631 40.9294C17.0674 41.1101 17.0717 41.2866 17.076 41.4674C17.1018 41.3296 17.1276 41.1919 17.1578 41.0499C17.1362 40.7873 16.9296 40.9208 17.0545 40.8906Z" fill="#FEFEFE"/>
<path d="M28.3483 26.168C28.344 26.1723 28.3354 26.1723 28.3311 26.1766C28.3353 26.1809 28.344 26.1852 28.3483 26.1895C28.344 26.1852 28.3483 26.1766 28.3483 26.168Z" fill="#FEFEFE"/>
<path d="M21.2334 8.10156V8.10581C21.2377 8.10581 21.242 8.10581 21.2463 8.10581C21.242 8.10581 21.2377 8.10156 21.2334 8.10156Z" fill="#FEFEFE"/>
<path d="M27.2811 44.3907C27.337 43.7666 27.3069 43.1339 27.3844 42.5141C27.5565 41.1497 27.393 39.7552 27.7502 38.408C27.9267 37.7108 27.3628 36.893 28.0859 36.2818C28.0257 36.0838 27.9654 35.8858 27.9052 35.6879C27.7029 35.3521 27.8062 35.025 27.9267 34.6979C27.9138 33.5014 27.9267 32.3049 28.1419 31.1212C28.2064 29.4771 28.2753 27.8329 28.3399 26.1844C28.3356 26.1802 28.327 26.1758 28.3227 26.1715C24.8062 27.7856 21.4921 25.5259 20.9282 22.8143C20.5581 21.0325 20.7561 19.3496 22.1463 17.9895C22.3787 17.7614 22.5767 17.4988 22.7919 17.2492C23.36 13.8446 22.9641 10.7199 20.0545 8.28376C20.4892 8.03413 20.8809 8.17616 21.2338 8.1116V8.10736C17.6657 7.21212 13.3358 9.65253 11.9026 13.3799C11.4722 14.4989 11.2398 15.6524 11.3129 16.8533C14.8509 15.2134 18.023 17.1718 18.8967 20.1545C19.8049 23.2577 17.386 26.5418 14.1708 26.5891C13.2325 26.602 12.3416 26.4471 11.455 26.1845C11.5195 27.8975 11.5884 29.6106 11.6529 31.3236C11.7778 32.447 11.9112 33.566 11.8552 34.698C11.8638 34.9648 11.8725 35.2317 11.8811 35.4985C11.8725 35.675 11.8638 35.8515 11.8552 36.0323C12.1178 37.1083 12.1737 38.2144 12.2555 39.3163C12.2469 39.2861 12.2426 39.2603 12.2383 39.2302C12.2426 39.2603 12.2512 39.2861 12.2555 39.3163C12.3416 41.1885 12.3932 43.0651 12.5267 44.9374C12.5826 45.7121 12.3029 46.0995 11.5884 46.2975C10.7448 46.5342 9.91409 46.8183 9.0791 47.0851C10.1982 47.2401 11.3 47.2573 12.4019 47.2315C13.5941 47.2057 14.1364 46.6763 14.2526 45.4926C14.3258 44.7394 14.3903 43.9862 14.4592 43.233C14.5367 41.8686 14.6142 40.4999 14.6916 39.1355C14.7476 39.1355 14.8035 39.1355 14.8595 39.1355C14.8595 40.4353 14.8595 41.7352 14.8595 43.0307C14.881 43.6204 14.8896 44.2143 14.9283 44.804C15.1005 47.5543 15.1823 47.5371 12.4406 48.0923C12.376 48.1052 12.3201 48.1439 12.2598 48.1698C12.4234 48.2774 12.5869 48.385 12.7505 48.4969C12.8021 48.5098 12.8452 48.5313 12.871 48.5787C13.5252 48.5829 14.1837 48.6389 14.8294 48.5787C16.0044 48.4667 16.5596 47.8384 16.6457 46.672C16.6973 45.923 16.7748 45.1741 16.8394 44.4252C16.7361 43.431 16.8867 42.4539 17.0718 41.4769C17.0675 41.2961 17.0632 41.1197 17.0589 40.9389C17.0589 40.9131 17.0503 40.8959 17.0503 40.9002C16.9254 40.9303 17.132 40.7969 17.1536 41.0594C17.1751 40.9432 17.2009 40.827 17.2224 40.7108C17.2224 42.2129 17.2224 43.715 17.2224 45.2215C17.2353 45.7509 17.2526 46.276 17.2612 46.8054C17.2827 48.7207 17.1622 48.8929 15.3372 49.4395C14.8337 49.5901 14.3086 49.6805 13.8093 49.8484C13.4477 49.9732 12.9872 49.9043 12.6472 50.3304C14.1321 50.2745 15.5223 50.4423 16.9039 50.2185C18.3329 49.9861 18.901 49.4093 19.1937 48.0148C19.4089 46.9904 19.4993 45.9359 19.891 44.8987C19.9469 45.0106 19.99 45.0622 20.0029 45.1225C20.2009 46.0909 20.3988 47.0636 20.5882 48.032C20.8551 49.3878 21.406 49.9646 22.7833 50.2056C24.208 50.4509 25.6498 50.2831 27.1261 50.3175C26.9152 49.956 26.5838 50.0162 26.317 49.9387C25.4002 49.6719 24.4662 49.4438 23.5666 49.1339C22.9124 48.9058 22.4433 48.4883 22.4519 47.6834C22.4734 45.4797 22.4605 43.276 22.4605 41.0723C22.5509 41.0723 22.6413 41.0723 22.7273 41.0723C22.822 42.4539 22.9339 43.8312 23.0071 45.2129C23.175 48.4065 23.5537 48.7551 26.7603 48.5787C26.941 48.2774 27.3844 48.5141 27.5522 48.1913C26.7818 48.187 26.1104 47.8168 25.4045 47.5801C25.0085 47.4467 24.7847 47.0894 24.7933 46.6504C24.8277 44.3865 24.7417 42.1139 25.0472 39.8586C25.2323 41.7524 25.3787 43.6505 25.525 45.5443C25.5939 46.4309 25.9941 47.1239 26.9238 47.1841C28.1806 47.2702 29.4417 47.2057 30.7028 47.2057C30.0357 46.8699 29.3513 46.6719 28.6713 46.4567C27.1304 45.9618 27.139 45.9574 27.2811 44.3907ZM17.5883 12.0972C17.5754 12.7299 17.0847 13.2292 16.4434 13.2421C15.7676 13.255 15.2598 12.8676 15.2469 11.9896C15.32 11.3526 15.6773 10.9179 16.4348 10.9007C17.2396 10.8877 17.6012 11.43 17.5883 12.0972ZM22.7618 30.9232C22.7661 32.6664 21.4318 34.1857 19.9082 34.1814C18.4706 34.1771 17.0029 32.4813 17.0546 30.8802C16.9771 30.4068 16.8953 29.929 16.7877 29.2662C17.8164 29.9677 18.6815 30.6865 19.8393 30.7123C21.0229 30.7339 21.9526 30.127 22.921 29.4168C23.1276 29.985 22.6068 30.4283 22.7618 30.9232Z" fill="#FE733E"/>
<path d="M11.8593 34.6916C11.7732 34.6614 11.6915 34.6227 11.6097 34.5926C10.4304 34.1105 9.41029 33.3702 8.46339 32.5481C5.04595 29.5955 2.79061 25.8983 2.24399 21.4135C1.6242 16.3174 2.76478 11.6131 6.16501 7.57155C9.26825 3.88725 13.2237 1.73951 17.9453 1.24454C23.192 0.697922 27.9049 2.16562 31.8733 5.78966C35.1831 8.81112 37.1157 12.5557 37.6106 16.9587C38.0324 20.7076 37.3567 24.3316 35.4285 27.6243C33.6767 30.6156 31.3439 33.0431 28.189 34.5797C28.1029 34.6227 28.0168 34.6657 27.9308 34.7045C27.8102 35.0316 27.7026 35.3587 27.9092 35.6944C27.9824 35.6299 28.047 35.5481 28.133 35.5007C32.8977 32.9785 36.2032 29.2297 37.7484 24.0131C37.8818 23.5698 38.0884 23.3503 38.5834 23.402C39.2548 23.4708 39.4356 23.0232 39.4356 22.4637C39.4398 20.3159 39.4398 18.1725 39.4398 16.0248C39.4398 15.5642 39.3279 15.0563 38.8502 15.0047C37.9721 14.9014 37.8645 14.2601 37.688 13.636C36.6551 10.0034 34.6666 6.98189 31.714 4.66198C25.6452 -0.102635 18.9825 -0.96345 11.9927 2.256C6.79765 4.64477 3.48781 8.7896 1.98999 14.3376C1.8953 14.6819 1.93834 15.0908 1.35299 14.9703C0.517995 14.7981 0.203796 15.2888 0.199492 16.0291C0.186579 18.1768 0.195204 20.3202 0.195204 22.468C0.195204 23.1825 0.556747 23.5612 1.2454 23.3934C1.8781 23.2384 2.02874 23.5526 2.15786 24.0347C2.7174 26.092 3.65138 27.9729 4.91678 29.6902C6.76754 32.1995 9.02288 34.2138 11.8894 35.4964C11.8808 35.2296 11.8722 34.9584 11.8593 34.6916Z" fill="#B5D2F3"/>
<path d="M11.8645 36.0273C11.2275 37.8135 9.53171 37.7705 8.08984 38.2181C9.17447 38.4979 10.2763 38.8207 11.3609 38.6356C12.0066 38.5237 12.1314 38.7561 12.2261 39.1392C12.2347 39.1693 12.239 39.1995 12.2476 39.2296C12.2519 39.2554 12.2605 39.2855 12.2648 39.3157C12.183 38.2095 12.1271 37.1077 11.8645 36.0273Z" fill="#FE684B"/>
<path d="M27.7507 38.4114C29.128 39.0355 30.4279 38.4071 31.7578 38.2263C30.458 37.6754 28.7751 37.9594 28.0907 36.2852C27.3634 36.8963 27.9272 37.7141 27.7507 38.4114Z" fill="#FE6446"/>
<path d="M17.2263 40.6992C17.2048 40.8154 17.1789 40.9316 17.1574 41.0478C17.1316 41.1856 17.1015 41.3233 17.0756 41.4653C16.8906 42.4424 16.7399 43.4194 16.8432 44.4136C17.166 44.5815 16.9293 45.0248 17.2263 45.2056C17.2263 43.7078 17.2263 42.2056 17.2263 40.6992Z" fill="#FED6C8"/>
<path d="M14.7002 39.1211C14.6227 40.4855 14.5452 41.8542 14.4678 43.2186C14.6012 43.1497 14.7346 43.0852 14.8681 43.0163C14.8681 41.7165 14.8681 40.4166 14.8681 39.1211C14.8121 39.1211 14.7561 39.1211 14.7002 39.1211Z" fill="#FEEBE3"/>
<path d="M10.6543 48.5688C11.5797 48.5688 12.2296 48.5688 12.8752 48.5688C12.8365 48.543 12.7934 48.5172 12.7547 48.487C12.5911 48.3794 12.4276 48.2718 12.264 48.1599C11.7777 48.1341 11.3214 48.2417 10.6543 48.5688Z" fill="#FE9166"/>
<path d="M26.7598 48.5652C27.4785 48.5652 28.2016 48.5652 28.9204 48.5652C28.4814 48.3112 28.051 48.096 27.5517 48.1778C27.3839 48.5049 26.9362 48.2639 26.7598 48.5652Z" fill="#FE8F64"/>
<path d="M28.1943 34.5758C31.3491 33.0436 33.6776 30.6161 35.4337 27.6205C37.3619 24.3278 38.0377 20.7038 37.6159 16.9549C37.1209 12.5476 35.1927 8.803 31.8785 5.78584C27.9102 2.1661 23.1972 0.694106 17.9505 1.24503C13.2333 1.73569 9.2735 3.88774 6.17026 7.57203C2.76573 11.6136 1.62945 16.3179 2.24924 21.414C2.79586 25.9031 5.0512 29.596 8.46864 32.5486C9.41984 33.3707 10.4399 34.1153 11.6149 34.5931C11.6967 34.6275 11.7785 34.6619 11.8646 34.6921C11.9205 33.5601 11.7871 32.441 11.6623 31.3177C11.5762 31.2574 11.4901 31.1971 11.404 31.1326C10.5303 30.4999 9.78138 29.7208 9.02817 28.9547C8.80005 28.7223 8.51598 28.5243 8.51598 28.1455C8.0081 28.5114 7.64226 28.2575 7.34527 27.8529C5.69251 25.5975 4.69396 23.0969 4.56053 20.282C4.44002 17.7942 4.66383 15.3753 5.70972 13.0468C7.03968 10.0899 9.08412 7.83028 11.8301 6.15169C12.295 5.86762 12.5618 6.12157 12.8846 6.33246C13.1988 6.30234 13.4786 6.19473 13.6809 5.93648C13.668 5.90637 13.6551 5.87622 13.6421 5.8461C13.3667 5.26505 13.3538 4.60652 14.0166 4.45157C14.6837 4.29232 15.0625 4.83464 15.0668 5.5362C20.0466 3.90065 24.6778 4.56348 28.8571 7.75281C31.9818 10.1373 33.7723 13.3352 34.319 17.2347C35.0248 22.249 33.329 26.4067 29.8341 29.9231C29.4209 30.3363 28.9561 30.7108 28.431 30.9905C28.3406 31.0379 28.2502 31.0809 28.1598 31.124C27.9446 32.3076 27.9317 33.5041 27.9446 34.7007C28.0221 34.6619 28.1039 34.6189 28.1943 34.5758Z" fill="#E2F5FC"/>
<path d="M29.8242 29.9276C33.3148 26.4112 35.0106 22.2534 34.309 17.2392C33.7624 13.3354 31.9719 10.1374 28.8471 7.75727C24.6679 4.56795 20.0324 3.90943 15.0569 5.54067C15.0482 5.54491 15.0396 5.55359 15.031 5.55787C14.6394 5.80751 14.3338 6.34552 13.7699 6.0098C13.7355 5.98827 13.7054 5.97106 13.6709 5.94524C13.4686 6.20348 13.1932 6.31108 12.8747 6.34121C12.8618 6.39286 12.8446 6.44021 12.8273 6.49186C12.4701 7.49471 11.3984 7.75726 10.6796 8.35983C8.72985 9.99108 7.28368 11.9451 6.43147 14.3124C5.06278 18.1258 5.34254 21.8617 7.17608 25.4686C7.47306 26.0539 7.83891 26.6091 8.23058 27.1385C8.463 27.457 8.53617 27.7755 8.50604 28.1414C8.50604 28.1457 8.50604 28.15 8.50604 28.1543C8.50604 28.5288 8.79011 28.7311 9.01823 28.9635C9.77575 29.7296 10.5204 30.5086 11.3941 31.1413C11.4802 31.2016 11.5662 31.2662 11.6523 31.3264C11.5878 29.6134 11.5189 27.9004 11.4543 26.1873C11.45 26.1873 11.45 26.1831 11.4457 26.1831C9.95652 25.206 8.86328 23.9578 8.6739 22.0985C8.43717 19.8044 9.40129 18.1086 11.2779 16.8733C11.2865 16.869 11.2951 16.8604 11.3037 16.8561C11.2305 15.651 11.4629 14.4975 11.8934 13.3827C13.3266 9.65968 17.6565 7.21496 21.2246 8.11021C21.2289 8.11021 21.2332 8.11021 21.2375 8.11446C23.6048 8.49752 25.5502 9.57785 26.9447 11.562C28.0595 13.1502 28.6362 14.902 28.5157 16.856C29.8586 17.8761 30.9432 19.0726 31.1197 20.8416C31.3564 23.2218 30.3407 24.9606 28.3393 26.1744C28.3393 26.183 28.3393 26.1873 28.3393 26.1959C28.2747 27.8401 28.2058 29.4842 28.1413 31.1327C28.236 31.0896 28.3263 31.0466 28.4124 30.9993C28.9461 30.7195 29.411 30.3451 29.8242 29.9276Z" fill="#CDECF6"/>
<path d="M24.0278 16.662C25.5041 15.9346 26.9373 16.3263 28.362 16.7954C28.4136 16.8126 28.4696 16.8298 28.5212 16.8471C28.6417 14.8887 28.065 13.1369 26.9502 11.553C25.5557 9.56886 23.6103 8.48853 21.243 8.10547C21.2387 8.10547 21.2344 8.10547 21.2301 8.10547C20.8772 8.17434 20.4855 8.028 20.0508 8.27763C22.9603 10.7137 23.3606 13.8385 22.7882 17.243C22.8786 17.2 22.9646 17.1613 23.055 17.1182C23.3864 16.9676 23.7092 16.8212 24.0278 16.662Z" fill="#FE6B3C"/>
<path d="M31.1283 20.8387C30.9518 19.0697 29.8672 17.8732 28.5243 16.8531C28.4727 16.8359 28.4167 16.8187 28.3651 16.8014C26.9361 16.3323 25.5072 15.9406 24.0309 16.668C23.7124 16.8273 23.3853 16.9779 23.0624 17.1285C22.9721 17.1716 22.886 17.2103 22.7956 17.2534C22.5804 17.4987 22.3824 17.7655 22.15 17.9937C20.7555 19.3538 20.5618 21.0366 20.9319 22.8185C21.4958 25.5344 24.8099 27.7941 28.3306 26.1843C28.3349 26.18 28.3436 26.18 28.3479 26.1757C30.3493 24.9577 31.3693 23.2145 31.1283 20.8387ZM25.8644 25.5947C23.5789 25.5775 21.797 23.7611 21.8186 21.4671C21.8401 19.2074 23.6865 17.4169 25.9634 17.4341C28.2532 17.4513 30.0049 19.2548 29.9877 21.5704C29.9705 23.8687 28.18 25.6162 25.8644 25.5947Z" fill="#FE6142"/>
<path d="M11.2838 16.8627C9.4072 18.0979 8.44309 19.7938 8.67981 22.0878C8.86919 23.9472 9.96243 25.1954 11.4516 26.1724C11.4559 26.1724 11.4559 26.1767 11.4603 26.1767C12.3469 26.4392 13.2335 26.5942 14.1761 26.5813C17.387 26.5339 19.8102 23.2542 18.902 20.1467C18.0283 17.1639 14.8519 15.2056 11.3182 16.8454C11.301 16.8497 11.2924 16.8584 11.2838 16.8627ZM13.849 25.5914C11.5033 25.6 9.68697 23.8009 9.69558 21.468C9.69986 19.1783 11.4861 17.405 13.7888 17.3921C16.1173 17.3792 17.9766 19.2127 17.968 21.5025C17.9594 23.7535 16.113 25.5827 13.849 25.5914Z" fill="#FE6143"/>
<path d="M17.5964 31.2577C17.4371 31.0984 17.3209 30.8832 17.0541 30.8789C17.0024 32.48 18.4658 34.1758 19.9077 34.1801C21.4356 34.1844 22.7656 32.6651 22.7613 30.9219C22.1845 31.2189 21.8187 31.8301 21.1559 32.0109C19.8345 32.3724 18.6207 32.282 17.5964 31.2577Z" fill="#070909"/>
<path d="M22.9204 29.4163C21.952 30.1264 21.0266 30.7333 19.8387 30.7118C18.6766 30.6903 17.8158 29.9672 16.7871 29.2656C16.899 29.9285 16.9765 30.4019 17.054 30.8797C17.3208 30.8883 17.437 31.0992 17.5963 31.2584C18.6163 32.2828 19.8344 32.3732 21.1558 32.0116C21.8186 31.8309 22.1844 31.224 22.7612 30.9227C22.6062 30.4277 23.127 29.9844 22.9204 29.4163Z" fill="#FDFCFB"/>
<path d="M16.436 10.9027C15.6741 10.9157 15.3169 11.3504 15.248 11.9917C15.261 12.8697 15.7688 13.2528 16.4446 13.2442C17.0859 13.2313 17.5766 12.732 17.5895 12.0993C17.6024 11.4278 17.2408 10.8855 16.436 10.9027Z" fill="#FEA777"/>
<path d="M8.50639 28.1348C8.53652 27.7689 8.46335 27.4504 8.23093 27.1319C7.84356 26.6025 7.47341 26.0473 7.17643 25.4619C5.34289 21.8551 5.05882 18.1192 6.43182 14.3057C7.28403 11.9385 8.7302 9.98445 10.6799 8.3532C11.3987 7.75063 12.4704 7.49238 12.8277 6.48523C12.8449 6.43788 12.8621 6.38624 12.875 6.33459C12.5522 6.12369 12.2854 5.86975 11.8205 6.15381C9.07453 7.83241 7.03009 10.092 5.70013 13.049C4.65423 15.3775 4.43042 17.7964 4.55094 20.2841C4.68867 23.0947 5.68291 25.5997 7.33568 27.855C7.63266 28.2596 8.00281 28.5135 8.50639 28.1477C8.50639 28.1434 8.50639 28.1391 8.50639 28.1348Z" fill="#FDFEFE"/>
<path d="M15.0261 5.55948C15.0347 5.55524 15.0433 5.54657 15.052 5.54228C15.0433 4.84071 14.6689 4.2984 14.0018 4.45765C13.3389 4.6169 13.3518 5.27543 13.6273 5.85217C13.6402 5.88229 13.6531 5.91243 13.666 5.94256C13.7005 5.96838 13.7349 5.98991 13.765 6.00712C14.3289 6.34714 14.6345 5.80481 15.0261 5.55948Z" fill="#FBFDFE"/>
<path d="M29.9887 21.5738C30.0059 19.2626 28.2541 17.4591 25.9644 17.4376C23.6832 17.4204 21.841 19.2109 21.8195 21.4705C21.798 23.7603 23.5799 25.5766 25.8654 25.5982C28.181 25.6154 29.9715 23.8679 29.9887 21.5738ZM26.0677 22.0215C25.2929 22.0344 24.841 21.5954 24.7721 20.8335C24.7076 20.1234 25.3446 19.4605 26.0504 19.5079C26.808 19.5638 27.2341 20.0072 27.3244 20.7991C27.2212 21.505 26.8596 22.0086 26.0677 22.0215Z" fill="#FEFEFE"/>
<path d="M13.7875 17.3985C11.4848 17.4114 9.70295 19.1847 9.69434 21.4745C9.69005 23.8073 11.5021 25.6064 13.8478 25.5978C16.1117 25.5892 17.9582 23.7599 17.9668 21.5132C17.9711 19.2191 16.1117 17.3856 13.7875 17.3985ZM13.7918 22.0211C13.0257 22.0297 12.5651 21.5907 12.5049 20.8203C12.4489 20.1101 13.0903 19.4516 13.8004 19.5118C14.5493 19.5764 14.9883 20.0111 15.0572 20.803C14.9625 21.5304 14.5665 22.0125 13.7918 22.0211Z" fill="#FEFEFE"/>
<path d="M26.0504 19.5106C25.3445 19.459 24.7075 20.1218 24.7721 20.8363C24.841 21.6024 25.2929 22.0371 26.0676 22.0242C26.8553 22.0113 27.2211 21.5077 27.3244 20.8019C27.234 20.0099 26.8079 19.5666 26.0504 19.5106Z" fill="#090B0B"/>
<path d="M13.8019 19.5117C13.0917 19.4514 12.4504 20.1099 12.5063 20.8201C12.5666 21.5905 13.0271 22.0295 13.7933 22.0209C14.568 22.0123 14.964 21.5303 15.0587 20.8029C14.9855 20.0066 14.5465 19.5719 13.8019 19.5117Z" fill="#090C0C"/>
</svg>
