<svg width="141" height="51" viewBox="0 0 141 51" fill="none" xmlns="http://www.w3.org/2000/svg">
<g id="Canonical Ubuntu 1" clip-path="url(#clip0_1944_7937)">
<g id="Group">
<path id="Vector" d="M48.6783 44.5944C47.217 44.5944 45.9733 44.3719 44.947 43.9281C43.9195 43.4831 43.0895 42.8694 42.4545 42.0856C41.8195 41.3031 41.3583 40.3869 41.0733 39.3381C40.787 38.2906 40.6445 37.1631 40.6445 35.9556V22.1094H42.8045V35.6706C42.8045 36.8769 42.947 37.9206 43.2333 38.7994C43.5195 39.6781 43.9158 40.4031 44.4245 40.9744C44.932 41.5456 45.547 41.9694 46.267 42.2444C46.987 42.5206 47.792 42.6569 48.6808 42.6569C49.5695 42.6569 50.3745 42.5194 51.0945 42.2444C51.8145 41.9694 52.4283 41.5456 52.937 40.9744C53.4458 40.4031 53.842 39.6781 54.1283 38.7994C54.4145 37.9206 54.557 36.8781 54.557 35.6706V22.1094H56.717V35.9556C56.717 37.1631 56.5745 38.2894 56.2883 39.3381C56.002 40.3856 55.542 41.3019 54.907 42.0856C54.272 42.8694 53.4408 43.4831 52.4145 43.9281C51.387 44.3731 50.1433 44.5944 48.6833 44.5944H48.6783Z" fill="white"/>
<path id="Vector_2" d="M63.522 28.6852C63.882 28.4102 64.4583 28.1189 65.2533 27.8114C66.047 27.5052 66.9845 27.3514 68.0633 27.3514C69.2483 27.3514 70.302 27.5627 71.2233 27.9864C72.1445 28.4102 72.922 29.0027 73.557 29.7652C74.192 30.5277 74.6733 31.4327 75.002 32.4802C75.3295 33.5277 75.4945 34.6764 75.4945 35.9252C75.4945 37.2589 75.2983 38.4552 74.907 39.5139C74.5145 40.5727 73.9645 41.4727 73.2558 42.2127C72.5458 42.9539 71.6995 43.5202 70.7145 43.9114C69.7295 44.3027 68.6345 44.4989 67.427 44.4989C65.9658 44.4989 64.7595 44.4039 63.807 44.2127C62.8545 44.0227 62.0708 43.8214 61.457 43.6089V19.8539L63.5208 19.4727V28.6827L63.522 28.6852ZM63.522 42.1827C63.8395 42.2889 64.3108 42.3889 64.9358 42.4839C65.5595 42.5789 66.3808 42.6264 67.397 42.6264C69.1758 42.6264 70.6045 42.0502 71.6845 40.8952C72.7645 39.7414 73.3045 38.0852 73.3045 35.9252C73.3045 35.0152 73.2095 34.1527 73.0183 33.3364C72.8283 32.5214 72.5208 31.8114 72.097 31.2089C71.6733 30.6052 71.117 30.1239 70.4295 29.7639C69.7408 29.4039 68.8895 29.2239 67.8733 29.2239C67.3858 29.2239 66.9208 29.2714 66.4758 29.3664C66.0308 29.4614 65.6183 29.5839 65.237 29.7314C64.8558 29.8802 64.522 30.0389 64.237 30.2077C63.9508 30.3777 63.7133 30.5364 63.522 30.6839V42.1802V42.1827Z" fill="white"/>
<path id="Vector_3" d="M91.8154 43.548C91.2016 43.718 90.3754 43.908 89.3379 44.1192C88.3004 44.3305 87.0304 44.4367 85.5266 44.4367C84.2979 44.4367 83.2716 44.2567 82.4466 43.8967C81.6204 43.5367 80.9541 43.0292 80.4454 42.3717C79.9379 41.7155 79.5716 40.9217 79.3503 39.9905C79.1278 39.0592 79.0166 38.0317 79.0166 36.9105V27.7005H81.0804V36.243C81.0804 37.408 81.1653 38.3917 81.3341 39.1967C81.5029 40.0017 81.7791 40.653 82.1603 41.1492C82.5416 41.6467 83.0341 42.0067 83.6366 42.2292C84.2404 42.4517 84.9754 42.563 85.8441 42.563C86.8179 42.563 87.6641 42.5105 88.3854 42.4042C89.1054 42.298 89.5604 42.203 89.7504 42.118V27.6992H91.8141V43.5467L91.8154 43.548Z" fill="white"/>
<path id="Vector_4" d="M96.3672 28.2716C96.9809 28.1028 97.8072 27.9116 98.8447 27.7003C99.8822 27.4891 101.152 27.3828 102.656 27.3828C103.905 27.3828 104.947 27.5628 105.785 27.9228C106.621 28.2828 107.287 28.7966 107.786 29.4628C108.283 30.1303 108.638 30.9291 108.85 31.8603C109.061 32.7928 109.167 33.8191 109.167 34.9403V44.1178H107.103V35.6066C107.103 34.4428 107.023 33.4578 106.865 32.6528C106.706 31.8478 106.441 31.1916 106.071 30.6841C105.701 30.1766 105.213 29.8103 104.61 29.5878C104.006 29.3653 103.25 29.2541 102.338 29.2541C101.365 29.2541 100.522 29.3078 99.8134 29.4128C99.1034 29.5191 98.6434 29.6141 98.4322 29.6991V44.1166H96.3684V28.2691L96.3672 28.2716Z" fill="white"/>
<path id="Vector_5" d="M115.522 27.7009H122.065V29.4472H115.522V38.1809C115.522 39.1134 115.601 39.8697 115.761 40.4522C115.92 41.0347 116.147 41.4847 116.444 41.8022C116.74 42.1197 117.1 42.3322 117.524 42.4372C117.947 42.5434 118.412 42.5959 118.921 42.5959C119.789 42.5959 120.487 42.4959 121.017 42.2947C121.546 42.0934 121.959 41.9084 122.256 41.7384L122.765 43.4534C122.469 43.6434 121.95 43.8609 121.209 44.1047C120.467 44.3484 119.662 44.4697 118.795 44.4697C117.779 44.4697 116.926 44.3372 116.239 44.0722C115.55 43.8072 115 43.4047 114.587 42.8659C114.175 42.3272 113.884 41.6547 113.714 40.8497C113.544 40.0447 113.46 39.0922 113.46 37.9909V22.8734L115.524 22.4922V27.7009H115.522Z" fill="white"/>
<path id="Vector_6" d="M137.746 43.548C137.132 43.718 136.306 43.908 135.269 44.1192C134.231 44.3305 132.961 44.4367 131.457 44.4367C130.229 44.4367 129.202 44.2567 128.377 43.8967C127.551 43.5367 126.885 43.0292 126.376 42.3717C125.869 41.7155 125.502 40.9217 125.281 39.9905C125.059 39.0592 124.947 38.0317 124.947 36.9105V27.7005H127.011V36.243C127.011 37.408 127.096 38.3917 127.265 39.1967C127.434 40.0017 127.71 40.653 128.091 41.1492C128.472 41.6467 128.965 42.0067 129.567 42.2292C130.171 42.4517 130.906 42.563 131.775 42.563C132.749 42.563 133.595 42.5105 134.316 42.4042C135.036 42.298 135.491 42.203 135.681 42.118V27.6992H137.745V43.5467L137.746 43.548Z" fill="white"/>
</g>
<g id="Group_2">
<path id="Vector_7" d="M44.2795 16.7423C43.7395 16.7423 43.237 16.6448 42.7733 16.4523C42.3095 16.2586 41.9058 15.9761 41.5633 15.6048C41.2208 15.2336 40.9508 14.7761 40.7533 14.2323C40.5558 13.6873 40.457 13.0648 40.457 12.3636C40.457 11.6623 40.5633 11.0386 40.777 10.4948C40.9908 9.94984 41.2745 9.49234 41.6295 9.12109C41.9845 8.74984 42.3958 8.46984 42.8633 8.27984C43.3308 8.08984 43.8195 7.99609 44.327 7.99609C44.642 7.99609 44.9283 8.01609 45.1858 8.05609C45.4433 8.09609 45.6695 8.14734 45.8633 8.20734C46.057 8.26734 46.222 8.32859 46.3595 8.38859C46.497 8.44859 46.602 8.50359 46.6745 8.55234L46.4083 9.26609C46.207 9.14484 45.9508 9.02609 45.6395 8.90859C45.3295 8.79109 44.9445 8.73359 44.4845 8.73359C43.9608 8.73359 43.502 8.82234 43.112 8.99984C42.7208 9.17734 42.392 9.42734 42.1258 9.74984C41.8595 10.0723 41.6595 10.4561 41.527 10.8998C41.3945 11.3436 41.327 11.8348 41.327 12.3761C41.327 12.9173 41.3933 13.4348 41.527 13.8823C41.6595 14.3298 41.8558 14.7111 42.1133 15.0261C42.3708 15.3411 42.6883 15.5823 43.0633 15.7523C43.4383 15.9223 43.8683 16.0061 44.352 16.0061C44.8845 16.0061 45.3295 15.9561 45.6883 15.8548C46.047 15.7548 46.3195 15.6511 46.5045 15.5461L46.7345 16.2473C46.6783 16.2873 46.5808 16.3336 46.4445 16.3861C46.307 16.4386 46.1345 16.4936 45.9245 16.5498C45.7145 16.6061 45.4733 16.6523 45.1983 16.6886C44.9245 16.7248 44.617 16.7436 44.2783 16.7436L44.2795 16.7423Z" fill="white"/>
<path id="Vector_8" d="M49.8773 10.1614C50.2886 10.1614 50.6373 10.2202 50.9236 10.3364C51.2098 10.4539 51.4423 10.6152 51.6198 10.8202C51.7973 11.0252 51.9261 11.2702 52.0073 11.5527C52.0873 11.8352 52.1286 12.1414 52.1286 12.4727V16.4164C52.0473 16.4402 51.9311 16.4664 51.7773 16.4952C51.6236 16.5239 51.4461 16.5539 51.2448 16.5852C51.0436 16.6177 50.8198 16.6439 50.5736 16.6639C50.3273 16.6839 50.0761 16.6939 49.8173 16.6939C49.4861 16.6939 49.1823 16.6577 48.9036 16.5852C48.6248 16.5127 48.3836 16.3977 48.1773 16.2402C47.9711 16.0827 47.8098 15.8814 47.6936 15.6352C47.5761 15.3889 47.5186 15.0889 47.5186 14.7339C47.5186 14.3789 47.5836 14.1052 47.7123 13.8627C47.8411 13.6202 48.0223 13.4214 48.2573 13.2639C48.4911 13.1064 48.7698 12.9914 49.0923 12.9189C49.4148 12.8464 49.7661 12.8102 50.1448 12.8102C50.2573 12.8102 50.3761 12.8164 50.5011 12.8289C50.6261 12.8414 50.7473 12.8577 50.8636 12.8777C50.9798 12.8977 51.0811 12.9177 51.1661 12.9377C51.2511 12.9577 51.3098 12.9764 51.3411 12.9927V12.6052C51.3411 12.3877 51.3248 12.1752 51.2923 11.9702C51.2598 11.7652 51.1898 11.5789 51.0811 11.4139C50.9723 11.2489 50.8186 11.1152 50.6211 11.0139C50.4236 10.9139 50.1636 10.8627 49.8411 10.8627C49.3811 10.8627 49.0386 10.8952 48.8123 10.9589C48.5861 11.0239 48.4211 11.0764 48.3161 11.1164L48.2073 10.4264C48.3448 10.3614 48.5561 10.3014 48.8423 10.2452C49.1286 10.1889 49.4736 10.1602 49.8773 10.1602V10.1614ZM49.9498 15.9927C50.2561 15.9927 50.5248 15.9827 50.7548 15.9627C50.9848 15.9427 51.1798 15.9164 51.3411 15.8839V13.6814C51.2523 13.6414 51.1111 13.5989 50.9173 13.5539C50.7236 13.5102 50.4573 13.4877 50.1186 13.4877C49.9248 13.4877 49.7236 13.5014 49.5136 13.5302C49.3036 13.5589 49.1098 13.6189 48.9323 13.7114C48.7548 13.8039 48.6098 13.9314 48.4973 14.0927C48.3848 14.2539 48.3286 14.4677 48.3286 14.7339C48.3286 14.9677 48.3673 15.1652 48.4436 15.3264C48.5198 15.4877 48.6286 15.6164 48.7698 15.7139C48.9111 15.8114 49.0798 15.8814 49.2773 15.9264C49.4748 15.9714 49.6986 15.9927 49.9486 15.9927H49.9498Z" fill="white"/>
<path id="Vector_9" d="M53.8262 10.5263C54.0599 10.4613 54.3749 10.3888 54.7699 10.3088C55.1649 10.2288 55.6487 10.1875 56.2212 10.1875C56.6974 10.1875 57.0937 10.2563 57.4124 10.3925C57.7312 10.53 57.9849 10.725 58.1749 10.98C58.3649 11.2338 58.4999 11.5388 58.5799 11.8938C58.6599 12.2488 58.7012 12.64 58.7012 13.0675V16.5638H57.9149V13.3212C57.9149 12.8775 57.8849 12.5025 57.8237 12.1962C57.7637 11.89 57.6624 11.64 57.5212 11.4462C57.3799 11.2525 57.1949 11.1138 56.9649 11.0288C56.7349 10.9438 56.4462 10.9013 56.0999 10.9013C55.7287 10.9013 55.4087 10.9213 55.1387 10.9613C54.8687 11.0013 54.6924 11.0388 54.6124 11.07V16.5625H53.8262V10.525V10.5263Z" fill="white"/>
<path id="Vector_10" d="M65.7602 13.4428C65.7602 13.9353 65.689 14.3828 65.549 14.7853C65.4077 15.1891 65.2102 15.5316 64.9565 15.8141C64.7027 16.0966 64.4015 16.3166 64.0552 16.4741C63.709 16.6316 63.3252 16.7103 62.9065 16.7103C62.4877 16.7103 62.104 16.6316 61.7577 16.4741C61.4115 16.3166 61.1102 16.0966 60.8565 15.8141C60.6027 15.5316 60.4052 15.1891 60.264 14.7853C60.1227 14.3816 60.0527 13.9341 60.0527 13.4428C60.0527 12.9516 60.1227 12.5028 60.264 12.1003C60.4052 11.6966 60.6027 11.3528 60.8565 11.0653C61.1102 10.7791 61.4115 10.5566 61.7577 10.4003C62.104 10.2428 62.4877 10.1641 62.9065 10.1641C63.3252 10.1641 63.709 10.2428 64.0552 10.4003C64.4015 10.5578 64.7027 10.7791 64.9565 11.0653C65.2102 11.3516 65.4077 11.6966 65.549 12.1003C65.6902 12.5041 65.7602 12.9516 65.7602 13.4428ZM64.9252 13.4428C64.9252 12.6603 64.744 12.0378 64.3802 11.5741C64.0177 11.1103 63.5252 10.8791 62.904 10.8791C62.2827 10.8791 61.7915 11.1116 61.4277 11.5741C61.0652 12.0378 60.8827 12.6616 60.8827 13.4428C60.8827 14.2241 61.064 14.8466 61.4277 15.3066C61.7902 15.7666 62.2827 15.9966 62.904 15.9966C63.5252 15.9966 64.0165 15.7666 64.3802 15.3066C64.7427 14.8466 64.9252 14.2253 64.9252 13.4428Z" fill="white"/>
<path id="Vector_11" d="M67.1758 10.5263C67.4095 10.4613 67.7245 10.3888 68.1195 10.3088C68.5145 10.2288 68.9983 10.1875 69.5708 10.1875C70.047 10.1875 70.4433 10.2563 70.762 10.3925C71.0808 10.53 71.3345 10.725 71.5245 10.98C71.7145 11.2338 71.8495 11.5388 71.9295 11.8938C72.0095 12.2488 72.0508 12.64 72.0508 13.0675V16.5638H71.2645V13.3212C71.2645 12.8775 71.2345 12.5025 71.1733 12.1962C71.1133 11.89 71.012 11.64 70.8708 11.4462C70.7295 11.2525 70.5445 11.1138 70.3145 11.0288C70.0845 10.9438 69.7958 10.9013 69.4495 10.9013C69.0783 10.9013 68.7583 10.9213 68.4883 10.9613C68.2183 11.0013 68.042 11.0388 67.962 11.07V16.5625H67.1758V10.525V10.5263Z" fill="white"/>
<path id="Vector_12" d="M74.6864 8.42141C74.6864 8.60641 74.6301 8.75391 74.5176 8.86266C74.4051 8.97141 74.2676 9.02641 74.1064 9.02641C73.9451 9.02641 73.8076 8.97141 73.6951 8.86266C73.5826 8.75391 73.5264 8.60641 73.5264 8.42141C73.5264 8.23641 73.5826 8.08891 73.6951 7.98016C73.8076 7.87141 73.9451 7.81641 74.1064 7.81641C74.2676 7.81641 74.4051 7.87141 74.5176 7.98016C74.6301 8.08891 74.6864 8.23641 74.6864 8.42141ZM74.5051 16.5639H73.7189V10.3089H74.5051V16.5639Z" fill="white"/>
<path id="Vector_13" d="M78.8485 16.6978C78.3648 16.6978 77.9373 16.6216 77.566 16.4678C77.1948 16.3153 76.886 16.0953 76.641 15.8078C76.3948 15.5216 76.2073 15.1791 76.0785 14.7791C75.9498 14.3803 75.8848 13.9378 75.8848 13.4541C75.8848 12.9703 75.951 12.5141 76.0848 12.1116C76.2185 11.7091 76.4098 11.3616 76.6598 11.0716C76.9098 10.7816 77.2123 10.5578 77.5673 10.4003C77.9223 10.2428 78.321 10.1641 78.7648 10.1641C79.1035 10.1641 79.4198 10.1928 79.7148 10.2491C80.0085 10.3053 80.2373 10.3778 80.3985 10.4666L80.1923 11.1441C80.031 11.0641 79.8498 10.9991 79.6473 10.9503C79.446 10.9016 79.176 10.8778 78.8373 10.8778C78.1435 10.8778 77.6173 11.1016 77.2585 11.5491C76.8998 11.9966 76.7198 12.6316 76.7198 13.4541C76.7198 13.8253 76.7598 14.1666 76.841 14.4766C76.921 14.7866 77.0523 15.0528 77.2348 15.2753C77.416 15.4978 77.6498 15.6703 77.936 15.7953C78.2223 15.9203 78.571 15.9828 78.9823 15.9828C79.321 15.9828 79.6048 15.9441 79.8348 15.8678C80.0648 15.7916 80.2323 15.7253 80.3373 15.6678L80.5073 16.3453C80.3623 16.4266 80.1335 16.5053 79.8235 16.5816C79.5135 16.6578 79.1885 16.6966 78.8498 16.6966L78.8485 16.6978Z" fill="white"/>
<path id="Vector_14" d="M83.5817 10.1614C83.9929 10.1614 84.3417 10.2202 84.6279 10.3364C84.9142 10.4539 85.1454 10.6152 85.3229 10.8202C85.5004 11.0252 85.6292 11.2702 85.7104 11.5527C85.7904 11.8352 85.8317 12.1414 85.8317 12.4727V16.4164C85.7504 16.4402 85.6342 16.4664 85.4804 16.4952C85.3267 16.5239 85.1492 16.5539 84.9479 16.5852C84.7467 16.6177 84.5229 16.6439 84.2767 16.6639C84.0304 16.6839 83.7792 16.6939 83.5204 16.6939C83.1892 16.6939 82.8854 16.6577 82.6067 16.5852C82.3279 16.5127 82.0867 16.3977 81.8804 16.2402C81.6742 16.0827 81.5129 15.8814 81.3967 15.6352C81.2792 15.3889 81.2217 15.0889 81.2217 14.7339C81.2217 14.3789 81.2867 14.1052 81.4154 13.8627C81.5442 13.6202 81.7254 13.4214 81.9604 13.2639C82.1942 13.1064 82.4729 12.9914 82.7954 12.9189C83.1179 12.8464 83.4692 12.8102 83.8479 12.8102C83.9604 12.8102 84.0792 12.8164 84.2054 12.8289C84.3304 12.8414 84.4517 12.8577 84.5679 12.8777C84.6842 12.8977 84.7854 12.9177 84.8704 12.9377C84.9554 12.9577 85.0129 12.9764 85.0454 12.9927V12.6052C85.0454 12.3877 85.0292 12.1752 84.9967 11.9702C84.9642 11.7652 84.8942 11.5789 84.7854 11.4139C84.6767 11.2489 84.5229 11.1152 84.3254 11.0139C84.1279 10.9139 83.8679 10.8627 83.5454 10.8627C83.0854 10.8627 82.7429 10.8952 82.5167 10.9589C82.2904 11.0239 82.1254 11.0764 82.0204 11.1164L81.9117 10.4264C82.0492 10.3614 82.2604 10.3014 82.5467 10.2452C82.8329 10.1889 83.1779 10.1602 83.5817 10.1602V10.1614ZM83.6542 15.9927C83.9604 15.9927 84.2292 15.9827 84.4592 15.9627C84.6892 15.9427 84.8842 15.9164 85.0454 15.8839V13.6814C84.9567 13.6414 84.8154 13.5989 84.6217 13.5539C84.4279 13.5102 84.1617 13.4877 83.8229 13.4877C83.6292 13.4877 83.4279 13.5014 83.2179 13.5302C83.0079 13.5589 82.8142 13.6189 82.6367 13.7114C82.4592 13.8039 82.3142 13.9314 82.2017 14.0927C82.0892 14.2539 82.0329 14.4677 82.0329 14.7339C82.0329 14.9677 82.0704 15.1652 82.1479 15.3264C82.2242 15.4877 82.3329 15.6164 82.4742 15.7139C82.6154 15.8114 82.7842 15.8814 82.9829 15.9264C83.1804 15.9714 83.4042 15.9927 83.6542 15.9927Z" fill="white"/>
<path id="Vector_15" d="M89.1014 16.672C88.8352 16.6645 88.6027 16.6295 88.4052 16.5695C88.2077 16.5095 88.0427 16.417 87.9089 16.2908C87.7764 16.1658 87.6752 16.0045 87.6064 15.807C87.5377 15.6095 87.5039 15.362 87.5039 15.0633V7.32078L88.2902 7.17578V15.0395C88.2902 15.2333 88.3089 15.3883 88.3452 15.5058C88.3814 15.6233 88.4364 15.7158 88.5089 15.7845C88.5814 15.8533 88.6764 15.9033 88.7927 15.9358C88.9089 15.9683 89.0489 15.9958 89.2102 16.0208L89.1014 16.6745V16.672Z" fill="white"/>
</g>
<g id="Group_3">
<path id="Vector_16" d="M32.7038 0.34375H0.946289V50.3438H32.7038V0.34375Z" fill="#E95420"/>
<path id="Vector_17" d="M8.20742 35.6219C10.0231 35.6219 11.4949 34.15 11.4949 32.3344C11.4949 30.5187 10.0231 29.0469 8.20742 29.0469C6.39179 29.0469 4.91992 30.5187 4.91992 32.3344C4.91992 34.15 6.39179 35.6219 8.20742 35.6219Z" fill="white"/>
<path id="Vector_18" d="M21.8998 28.4109C23.7154 28.4109 25.1873 26.9391 25.1873 25.1234C25.1873 23.3078 23.7154 21.8359 21.8998 21.8359C20.0842 21.8359 18.6123 23.3078 18.6123 25.1234C18.6123 26.9391 20.0842 28.4109 21.8998 28.4109Z" fill="white"/>
<path id="Vector_19" d="M15.6228 40.7978C13.2541 40.2903 11.2753 38.7778 10.1628 36.6328C9.28656 37.0316 8.30031 37.1528 7.35156 36.9778C8.69781 40.2841 11.5528 42.6853 15.0578 43.4366C15.8266 43.6016 16.6103 43.6816 17.3928 43.6766C16.7891 42.8828 16.4528 41.9253 16.4303 40.9278C16.1591 40.8978 15.8891 40.8541 15.6241 40.7966L15.6228 40.7978Z" fill="white"/>
<path id="Vector_20" d="M21.1605 44.1023C22.9762 44.1023 24.448 42.6305 24.448 40.8148C24.448 38.9992 22.9762 37.5273 21.1605 37.5273C19.3449 37.5273 17.873 38.9992 17.873 40.8148C17.873 42.6305 19.3449 44.1023 21.1605 44.1023Z" fill="white"/>
<path id="Vector_21" d="M25.7346 39.6083C26.7571 38.3195 27.4771 36.7958 27.8234 35.177C28.4284 32.3533 27.8634 29.3908 26.2734 26.9883C25.8946 27.8808 25.2521 28.6345 24.4246 29.1533C25.3121 30.8258 25.5821 32.7558 25.1846 34.612C24.9896 35.5208 24.6459 36.377 24.1621 37.1595C24.9359 37.7945 25.4821 38.6483 25.7359 39.6095L25.7346 39.6083Z" fill="white"/>
<path id="Vector_22" d="M7.9534 27.6199C8.03715 27.6149 8.1209 27.6136 8.2034 27.6136C8.5359 27.6136 8.86715 27.6486 9.1959 27.7199C9.73215 27.8349 10.2359 28.0374 10.6971 28.3249C12.1772 26.1961 14.5659 24.9186 17.1534 24.8711C17.1672 24.6224 17.2009 24.3749 17.2522 24.1311C17.4034 23.4274 17.7109 22.7686 18.1509 22.2049C14.0159 21.8774 9.9984 24.0111 7.95215 27.6211L7.9534 27.6199Z" fill="white"/>
</g>
</g>
<defs>
<clipPath id="clip0_1944_7937">
<rect width="139.185" height="50" fill="white" transform="translate(0.946289 0.339844)"/>
</clipPath>
</defs>
</svg>
