<svg width="152" height="51" viewBox="0 0 152 51" fill="none" xmlns="http://www.w3.org/2000/svg">
<g clip-path="url(#clip0_1944_8040)">
<path d="M33.8623 49.793C33.159 49.7847 32.4568 49.7827 31.754 49.7827L29.9404 49.7842C29.9404 49.7842 24.7528 49.7822 22.2733 49.7822C21.884 49.7822 21.4936 49.7837 21.1038 49.7847C20.7134 49.7856 20.3236 49.7871 19.9332 49.7871C19.6889 49.7871 19.4456 49.7866 19.2018 49.7851C17.7266 49.7768 16.3164 49.6101 15.0107 49.2884C9.81163 48.0089 5.87466 45.1076 3.30892 40.6668C2.07907 38.538 1.37993 36.1565 1.23231 33.5906C1.16682 32.4495 1.22867 31.28 1.41684 30.1154C1.43919 29.9765 1.46622 29.8377 1.49325 29.6978L1.55303 29.3801L1.65439 29.4739C1.70793 29.5238 1.72456 29.5756 1.73704 29.6147C1.78746 29.7702 1.83476 29.9272 1.88258 30.0831C1.98134 30.4082 2.08426 30.7446 2.20486 31.0673C3.08904 33.4396 4.43169 35.6617 6.30921 37.8643C6.38354 37.9513 6.43968 38.0476 6.47191 38.141C7.10866 39.9847 8.21532 41.5771 9.76017 42.8787C11.2629 44.144 13.0645 45.0915 15.1224 45.7002C13.8027 45.1688 12.5811 44.4896 11.4823 43.6746C9.69 42.3452 8.39829 40.7186 7.64458 38.8392C7.56921 38.6505 7.50579 38.4226 7.60767 38.1704C7.64146 38.0843 7.66537 37.9953 7.6898 37.9058C7.70644 37.8442 7.72255 37.7826 7.74282 37.7215C8.14879 36.4733 8.76527 35.4945 9.62762 34.7308C10.4307 34.0189 11.4537 33.4982 12.7553 33.1384C13.9706 32.802 15.2389 32.6504 16.4651 32.5038L16.9906 32.4402C17.6773 32.3556 18.3733 32.2559 19.0459 32.1581L19.4508 32.0994C19.6016 32.0779 19.7513 32.0471 19.9062 32.0153L20.2841 31.941L20.1848 32.0999C20.177 32.1136 20.1707 32.1248 20.1598 32.1366C19.5231 32.8074 18.9887 33.553 18.5718 34.3553C18.5365 34.4233 18.4606 34.4858 18.3878 34.5078C18.2974 34.5357 18.2075 34.5631 18.1175 34.5915C17.8311 34.6819 17.5359 34.7728 17.2354 34.8291C16.9121 34.8897 16.581 34.9337 16.2603 34.9757C16.0035 35.01 15.7467 35.0437 15.4915 35.0877C14.6323 35.2314 13.9674 35.4911 13.4648 35.8876C13.575 35.8626 13.6888 35.847 13.8006 35.8318C13.9565 35.8108 14.1166 35.7883 14.2627 35.7409C15.0549 35.4818 15.924 35.3615 16.9984 35.3615L17.1434 35.362C17.3363 35.3639 17.5286 35.3723 17.724 35.3811L18.1014 35.3957L18.0734 35.4832C17.3025 37.8521 17.3243 40.1764 18.1352 42.4049C17.7958 40.8936 17.7339 39.4899 17.9439 38.1332C18.2652 36.0597 19.2361 34.2727 20.8319 32.822C21.9079 31.8437 23.2579 31.0223 24.9581 30.3124C26.4349 29.6949 27.9735 29.3243 29.4227 28.9967L29.6966 28.9346C30.73 28.7009 31.7987 28.4594 32.8341 28.1734C34.3868 27.7456 35.7362 27.042 36.8449 26.0789C37.0107 25.9346 37.1994 25.7708 37.3481 25.5899C38.4069 24.2992 39.6415 23.3834 41.1208 22.7899C41.1634 22.7728 41.2118 22.7302 41.243 22.6818C41.7269 21.9387 42.3075 21.3916 43.0181 21.0078C43.1766 20.9222 43.3347 20.8792 43.488 20.8792C43.6824 20.8792 43.8768 20.9496 44.0665 21.085C44.1383 21.1368 44.2038 21.1911 44.2615 21.2464C44.5104 21.4815 44.71 21.771 44.8909 22.1553C44.9133 22.2012 44.9336 22.2159 44.9881 22.2223C45.1685 22.2447 45.3546 22.2677 45.5391 22.3019C48.5602 22.8642 50.6639 25.0507 51.0293 28.0091C51.0391 28.0878 51.0459 28.1675 51.0527 28.2467C51.0688 28.4345 51.0849 28.6281 51.1447 28.8026C51.2195 29.0231 51.3323 29.2402 51.4425 29.4485C51.4909 29.5409 51.5402 29.6353 51.586 29.7296C51.625 29.8108 51.666 29.891 51.7066 29.9712C51.8027 30.1613 51.901 30.3554 51.9826 30.5544C52.1079 30.8581 52.1224 31.1719 52.0262 31.4873C51.9847 31.6227 51.8973 31.6428 51.849 31.6428C51.8121 31.6428 51.7726 31.6315 51.7326 31.6081C51.6494 31.5577 51.5719 31.502 51.4945 31.4443C51.4581 31.4159 51.4207 31.39 51.3833 31.3636C51.3417 31.3333 51.3006 31.3035 51.2601 31.2717C51.1629 31.2003 51.0719 31.1309 50.9705 31.0786C50.9341 31.0595 50.8962 31.0487 50.8593 31.0487C50.8208 31.0487 50.7839 31.0595 50.7496 31.0805L50.892 31.2003C51.1462 31.4125 51.3999 31.6252 51.6494 31.8408C51.7019 31.8858 51.7367 31.9684 51.732 32.0364C51.7024 32.4803 51.5376 32.8485 51.2408 33.132C50.8874 33.4684 50.5168 33.6317 50.1087 33.6317C50.0214 33.6317 49.9325 33.6239 49.842 33.6087C49.8254 33.7578 49.7916 33.8136 49.6596 33.8801C48.8248 34.3059 48.0108 34.5132 47.1723 34.5132L47.0414 34.5122C46.4701 34.5122 45.9139 34.6648 45.2901 34.9919C45.0755 35.1038 44.8857 35.1806 44.7085 35.2246C44.1726 35.3586 43.6315 35.4089 43.1423 35.4304C43.3523 35.4578 43.5717 35.471 43.8072 35.471C43.9574 35.471 44.1123 35.4652 44.2797 35.4549L44.3753 35.4456C44.446 35.4392 44.5177 35.4334 44.5863 35.4334C44.6783 35.4334 44.7542 35.4441 44.8182 35.4691C45.2553 35.6373 45.6826 35.8406 46.0828 36.0333C46.1613 36.0714 46.218 36.0871 46.2705 36.0871C46.2996 36.0871 46.3277 36.0817 46.3573 36.0714L46.4743 36.0303C46.6931 35.9526 46.9192 35.8724 47.1349 35.7825C47.648 35.5678 48.0903 35.4666 48.527 35.4666C48.6439 35.4666 48.7609 35.4749 48.8768 35.4896C49.1762 35.5277 49.5255 35.5923 49.8405 35.7746C49.9959 35.8646 50.2033 36.0147 50.2225 36.2949C50.2236 36.2997 50.234 36.3164 50.2584 36.3379C50.2964 36.3706 50.3359 36.4019 50.3764 36.4332C50.4169 36.4645 50.4585 36.4973 50.4975 36.532C50.7418 36.7427 50.8494 37.0097 50.8193 37.326C50.8099 37.4145 50.7891 37.6218 50.6004 37.6218C50.5433 37.6218 50.4762 37.6022 50.3832 37.5577C50.3442 37.5387 50.3083 37.5235 50.2756 37.5147C50.3676 37.5675 50.457 37.6208 50.5448 37.677C50.7533 37.8105 50.8551 38.0149 50.8453 38.2843C50.8255 38.871 50.1685 39.4264 49.4933 39.4264C49.4132 39.4264 49.3342 39.4171 49.2588 39.4019C49.0597 39.3609 48.8123 39.2826 48.6631 39.0392C48.6585 39.0323 48.6413 39.0216 48.6377 39.0206L48.5233 39.0255C48.3876 39.0304 48.2483 39.0357 48.1189 39.0636L48.081 39.0719C47.8611 39.1198 47.6344 39.1673 47.4026 39.1673C47.3101 39.1673 47.2233 39.1594 47.1391 39.1443C47.0356 39.1262 46.9332 39.1022 46.8282 39.0778L46.7523 39.0607C46.6323 39.4269 46.4384 39.7706 46.1759 40.0845C45.588 40.7875 44.8041 41.2833 43.7812 41.5987C43.0394 41.8285 42.242 41.9434 41.4098 41.9434C40.9727 41.9434 40.5137 41.9125 40.0464 41.85C38.2032 41.6021 36.9167 40.6594 36.2212 39.0489C36.1042 38.7791 36.0257 38.4925 35.9488 38.2148C35.9119 38.0809 35.8739 37.944 35.8324 37.8105C35.614 37.1118 35.3391 36.4958 34.9908 35.9238C34.3587 34.8858 33.5769 34.146 32.6002 33.6625C31.8195 33.2758 30.9649 33.0797 30.0615 33.0797C29.6831 33.0797 29.2875 33.1134 28.8847 33.1814C28.8031 33.1951 28.722 33.2117 28.6394 33.2283C28.9237 33.2406 29.194 33.2552 29.4669 33.2802C30.7305 33.4004 31.8814 33.7657 32.8872 34.3651C34.2558 35.1821 35.0958 36.1971 35.4534 37.4673C35.6536 38.1772 35.9394 38.8842 36.3028 39.5692C36.5128 39.9662 36.78 40.4257 37.1646 40.8139C37.7083 41.361 38.409 41.7351 39.3691 41.9888C39.6316 42.0587 39.8925 42.1345 40.1519 42.2127C40.2954 42.2563 40.3952 42.3496 40.457 42.4997C40.6073 42.8664 40.6447 43.2405 40.5678 43.6096C40.455 44.1518 40.181 44.6539 39.7293 45.1443C39.3727 45.531 38.9299 45.8122 38.5015 46.0845C38.2863 46.2199 38.0841 46.3642 37.9001 46.5123C37.7426 46.6394 37.661 46.8057 37.6699 46.9807C37.6834 47.2692 37.7062 47.2799 37.7634 47.2799C37.8112 47.2799 37.8866 47.2628 38.0083 47.2256C38.068 47.2071 38.1273 47.1846 38.186 47.1601L38.5426 47.0154C38.7464 46.9328 38.9496 46.8497 39.1549 46.7695C39.5999 46.5949 40.0402 46.5055 40.4622 46.5055C40.6878 46.5055 40.9134 46.5309 41.1333 46.5803C41.9234 46.7582 42.4422 47.1997 42.675 47.8935C42.7374 48.0813 42.7286 48.2416 42.6464 48.3722C42.5924 48.4587 42.4687 48.5311 42.3657 48.534C42.2701 48.534 42.1807 48.4543 42.1121 48.3834C42.0736 48.3438 42.0643 48.292 42.057 48.247C42.0539 48.2323 42.0513 48.2167 42.0476 48.203C41.9775 47.9561 41.8803 47.7947 41.7337 47.6867C41.9956 48.0216 42.1131 48.3795 42.0918 48.777C42.07 49.1715 41.756 49.4463 41.3272 49.4463C41.3095 49.4463 41.2924 49.4458 41.2736 49.4449C41.1109 49.4356 41.0075 49.3529 40.9904 49.217C40.9789 49.1231 40.9789 49.0263 40.9784 48.9334C40.9784 48.8948 40.9784 48.8557 40.9774 48.8176C40.9763 48.7667 40.9768 48.7173 40.9774 48.6665C40.9774 48.558 40.9779 48.4558 40.9633 48.3551C40.9311 48.138 40.7939 47.9913 40.5553 47.9194C40.5386 47.9136 40.522 47.9096 40.5043 47.9082C40.5766 47.9468 40.639 48.0001 40.6831 48.0773C40.7715 48.2314 40.8469 48.3717 40.8879 48.5228C40.994 48.9242 40.8895 49.2371 40.5859 49.4287C40.4284 49.527 40.2268 49.5637 40.049 49.5871C39.9767 49.5969 39.906 49.5998 39.8348 49.5998C39.5692 49.5998 39.3093 49.5412 39.0588 49.4854L38.9314 49.4566C38.6939 49.4053 38.4833 49.3793 38.2811 49.3789C38.1086 49.3789 37.9292 49.4101 37.7556 49.4405L37.6751 49.4541C36.3584 49.6771 35.1748 49.7851 34.0578 49.7851L33.8623 49.793Z" fill="#E65270"/>
<path opacity="0.2" d="M44.578 35.3399C44.578 35.3399 42.6366 37.5185 39.3395 36.2703C36.3194 35.1257 37.4204 31.9756 37.4204 31.9756C37.4204 31.9756 37.9557 33.9293 39.5183 34.6695C41.7804 35.7417 44.578 35.3399 44.578 35.3399Z" fill="#430A1D"/>
<path opacity="0.2" d="M35.0122 36.272C35.4328 36.6739 35.4406 37.0851 35.5726 37.5863C35.8216 38.5289 36.1277 39.3473 36.766 40.1228C37.3799 40.8679 38.1144 41.3949 39.0631 41.7377C39.8849 42.034 40.9416 41.9464 40.7841 43.0974L40.5086 44.0664C38.4086 44.0664 36.4412 43.1648 35.6396 41.2043C34.9369 39.4842 35.7649 37.4058 33.6348 34.4977C33.8053 34.6943 34.7944 36.0628 35.0122 36.272Z" fill="#430A1D"/>
<g opacity="0.2">
<path d="M34.1808 35.4189C34.213 35.5412 34.2421 35.6654 34.2717 35.7891C34.1932 35.6986 34.1527 35.5832 34.1808 35.4189Z" fill="#2B2B2B"/>
</g>
<path d="M9.71115 42.9336C1.78885 42.1973 0.85633 34.7799 0.85633 34.7799C0.85633 34.7799 0.425935 31.3418 1.43019 27.9692C2.07526 34.1052 7.30862 38.3534 7.30862 38.3534C7.30862 38.3534 8.45842 41.8497 9.71115 42.9336Z" fill="url(#paint0_linear_1944_8040)"/>
<path opacity="0.2" d="M7.73566 40.1096C7.73566 40.1096 6.07437 40.2582 3.85742 37.7271C5.99484 41.3749 8.76487 41.4492 8.76487 41.4492L7.73566 40.1096Z" fill="#2B2B2B"/>
<path d="M12.0176 44.3672C11.6023 37.5076 15.8839 40.6905 18.0941 37.0529C18.7152 33.8701 20.5798 31.8567 20.5798 31.8567C20.5798 31.8567 7.32172 29.5187 7.11328 38.6121C7.57486 40.581 9.60417 42.4848 10.8746 43.515C10.6261 42.9879 7.46103 34.7961 18.0016 35.4639C14.3635 35.1725 9.11036 38.7475 11.6142 44.1032C11.8653 44.2753 12.0176 44.3672 12.0176 44.3672Z" fill="url(#paint1_linear_1944_8040)"/>
<path opacity="0.2" d="M15.6014 34.475C12.861 35.4441 8.20722 35.4397 9.53167 42.0171C9.31959 42.1667 8.26024 40.6217 8.52481 40.7718C7.3064 34.8911 12.7789 35.2309 15.6014 34.475Z" fill="white"/>
<path opacity="0.6" d="M19.0711 32.1197C21.7362 31.1282 19.5722 33.9395 19.1938 34.3893C18.319 35.4297 16.1057 35.0914 14.9262 35.4385C14.2479 35.638 11.5288 36.013 10.628 38.4346C10.2278 39.5073 10.077 41.2611 10.93 43.3952C10.7185 43.5458 9.31655 42.1015 9.58165 42.2502C7.33195 32.7993 17.9432 36.1915 19.0711 32.1197Z" fill="#8B4FBA"/>
<path d="M45.5663 28.2593C45.6385 28.0715 45.7628 27.8315 45.9192 27.6897C45.9556 27.7058 45.9946 27.7078 46.0242 27.7254C46.2841 27.567 46.6948 27.588 47.0212 27.588C47.2167 27.588 47.5015 27.5372 47.6902 27.6061C47.9647 27.7063 47.9335 27.9782 48.0483 28.184C48.2635 28.5683 48.9268 28.5732 48.9294 29.1164C48.9315 29.3721 48.9996 29.7187 48.9299 29.969C48.8779 30.1548 48.657 30.0981 48.4668 30.0981C47.8903 30.0981 47.3154 30.1133 46.7379 30.1133L45.9395 29.5535C45.7264 29.6175 45.5595 29.197 45.5304 29.0543C45.4826 28.8186 45.4764 28.4925 45.5663 28.2593Z" fill="#F9E0E7"/>
<path d="M48.2313 29.0049C48.329 28.9673 48.473 28.8201 48.5333 28.7336C48.5769 28.6715 48.5645 28.6319 48.658 28.6343C48.9018 28.6407 48.9039 28.9502 48.8914 29.1101C48.8769 29.3144 48.789 29.5022 48.7573 29.7031C48.6783 29.6845 48.6346 29.5912 48.5457 29.5677C48.4751 29.5481 48.3737 29.5574 48.2999 29.5604C48.1918 29.5648 48.0421 29.6332 47.9443 29.5941L48.2313 29.0049Z" fill="white"/>
<path d="M16.6546 18.9505C16.691 18.9109 16.7004 18.8992 16.7118 18.8879C17.7696 17.959 18.3305 16.7865 18.6319 15.4757C18.83 14.6177 18.5774 13.8608 18.1667 13.1211C18.1594 13.1089 18.1464 13.0966 18.1324 13.08C18.0503 13.3215 17.9754 13.5587 17.8881 13.7919C17.6734 14.3669 17.4135 14.9232 17.0008 15.3995C16.836 15.5892 9.92474 19.1901 10.6364 27.1648C10.641 27.2142 10.6499 27.2612 10.6571 27.3164C10.785 27.2044 10.8968 27.0886 11.0252 26.9932C11.4852 26.6549 12.0164 26.4393 12.5705 26.2936C13.5847 26.0276 14.6056 25.7832 15.6275 25.548C16.7903 25.2801 17.9598 25.0317 19.0816 24.6278C19.7157 24.4 20.3052 24.0998 20.8681 23.738C21.7071 23.1982 22.4312 22.5519 23.0549 21.8038C23.4183 21.3682 23.5877 21.0357 23.7515 20.5238C23.8549 20.7874 23.8008 21.5217 23.6449 21.9901C23.4838 22.4741 23.2098 22.8966 22.8527 23.2843C22.9385 23.2584 23.0321 23.2452 23.1085 23.2041C24.0971 22.6741 24.973 22.0214 25.6196 21.1267C26.0531 20.5273 26.3172 19.8711 26.3541 19.1407C26.3546 19.1304 26.3593 19.1201 26.3629 19.104C26.5688 19.9997 26.5392 21.5251 25.4652 22.6096C25.8447 22.4834 26.1878 22.3568 26.5392 22.2585C26.8297 22.1774 27.0215 22.0175 27.1821 21.7774C27.887 20.7282 28.4713 19.6281 28.7873 18.4151C29.0316 17.4783 29.0924 16.5377 28.8185 15.5965C28.5076 14.5326 27.8246 13.7137 26.8952 13.0629C26.2496 12.6107 25.5375 12.2753 24.79 12.0005C24.7448 11.9839 24.6996 11.9687 24.6554 11.9501C24.6481 11.9477 24.6445 11.9399 24.6159 11.9105C24.8747 11.9775 25.1071 12.0342 25.3363 12.0983C26.4071 12.3975 27.4332 12.7876 28.3418 13.4125C29.1527 13.9699 29.7734 14.6651 30.0837 15.5794C30.3607 16.3978 30.3368 17.2251 30.1377 18.0523C29.8466 19.2585 29.2494 20.3332 28.5217 21.3506C28.4993 21.3824 28.4775 21.4137 28.4562 21.445C28.4531 21.4498 28.4536 21.4577 28.4494 21.4753C28.4796 21.465 28.5035 21.4577 28.5253 21.4464C30.0488 20.7135 31.4035 19.7763 32.4826 18.5168C33.5305 17.2945 34.293 15.9334 34.6553 14.3913C35.1112 12.4454 34.6111 10.7176 33.2711 9.19359C32.4243 8.22895 31.3775 7.49948 30.2183 6.90495C28.7228 6.1393 27.1317 5.63865 25.4481 5.40837C24.4906 5.27685 23.5321 5.25191 22.5751 5.42499C22.0491 5.51887 21.7081 5.64892 21.1249 5.96574C21.1987 5.90658 21.2689 5.844 21.3463 5.7907C21.8698 5.41668 22.4733 5.22356 23.1069 5.10279C24.1548 4.90331 25.2116 4.90576 26.2683 5.02163C27.9047 5.20156 29.4646 5.6279 30.9419 6.31532C31.0864 6.38377 31.2293 6.45368 31.3889 6.53093C31.3889 6.40479 31.3811 6.29478 31.391 6.18575C31.4045 6.01756 31.4944 5.92125 31.6353 5.9056C31.7694 5.88996 31.8484 5.93738 31.8744 6.06157C31.8957 6.16669 31.9014 6.27474 31.9175 6.38034C31.9539 6.62089 32.0724 6.82477 32.2481 7.00176C32.2653 7.01985 32.2866 7.0355 32.3079 7.04919C32.3178 7.05652 32.3318 7.05603 32.3692 7.06288C32.3692 6.97634 32.3698 6.89664 32.3692 6.81744C32.3666 6.65658 32.3599 6.49524 32.3635 6.33438C32.3651 6.29478 32.3947 6.23122 32.4238 6.2234C32.4638 6.21313 32.5366 6.2322 32.5616 6.26202C32.6286 6.34514 32.7009 6.4351 32.7315 6.53386C32.7986 6.74312 32.8287 6.96216 32.8984 7.16995C32.9441 7.3044 33.0169 7.43739 33.1079 7.54886C33.2077 7.67109 33.3085 7.6442 33.3465 7.49459C33.3818 7.35476 33.3948 7.20955 33.4172 7.06679C33.425 7.01741 33.4265 6.96656 33.4426 6.9206C33.4556 6.881 33.4863 6.84824 33.5092 6.81157C33.5435 6.84139 33.5939 6.8634 33.609 6.90055C33.6438 6.98367 33.6781 7.07314 33.6823 7.16066C33.6932 7.35427 33.6739 7.54935 33.689 7.74199C33.6968 7.84466 33.7332 7.95418 33.7867 8.04316C33.846 8.14241 33.9411 8.13068 33.9739 8.01969C34.0212 7.86128 34.0446 7.69749 34.0789 7.53566C34.1023 7.42614 34.1267 7.31711 34.1553 7.18315C34.293 7.29365 34.3263 7.41636 34.3398 7.53517C34.3752 7.8515 34.3923 8.1693 34.4219 8.48612C34.4448 8.72374 34.5316 8.93251 34.6808 9.13541C34.9516 9.50454 35.1912 9.89519 35.4335 10.2824C35.5582 10.4809 35.6736 10.499 35.7901 10.2946C35.9221 10.0624 36.0203 9.81452 36.1321 9.57153C36.1809 9.46543 36.222 9.35738 36.2735 9.25275C36.2974 9.2019 36.3379 9.15888 36.3748 9.10608C36.5074 9.19653 36.5391 9.31484 36.5136 9.43218C36.4757 9.60868 36.4065 9.7803 36.3577 9.95484C36.3052 10.1455 36.249 10.3357 36.2173 10.5303C36.2054 10.6085 36.2428 10.7024 36.2807 10.7782C36.3343 10.8882 36.4195 10.9014 36.511 10.8153C36.6041 10.7283 36.6763 10.6222 36.7668 10.5337C36.8182 10.4829 36.8889 10.4521 36.9508 10.412C36.9856 10.4834 37.0563 10.5577 37.0501 10.6261C37.0371 10.7713 37.0002 10.9195 36.9435 11.0554C36.8281 11.3316 36.6727 11.5947 36.5734 11.8748C36.5017 12.0782 36.4881 12.3007 36.4648 12.5163C36.4585 12.5691 36.5053 12.6625 36.5495 12.6776C36.5957 12.6928 36.6872 12.6498 36.7283 12.6072C36.917 12.4126 37.0942 12.2068 37.2793 12.0068C37.3245 11.957 37.3848 11.9218 37.4378 11.8787C37.456 11.8875 37.4732 11.8944 37.4914 11.9037C37.4737 12.0166 37.4784 12.1388 37.4347 12.244C37.3604 12.4185 37.2684 12.5901 37.1623 12.749C36.9944 13.0018 36.8026 13.2389 36.6306 13.4883C36.3125 13.9493 36.1019 14.4529 35.9699 14.9888C35.8748 15.374 35.7396 15.751 35.6211 16.1299C35.6071 16.1768 35.5894 16.2223 35.5873 16.2746C35.6908 16.1196 35.7916 15.9612 35.8987 15.8067C36.1227 15.4821 36.3811 15.1838 36.7283 14.9687C36.903 14.8612 37.0906 14.7643 37.286 14.6969C38.2908 14.3493 39.3065 14.0261 40.2645 13.5729C40.5369 13.4423 40.7973 13.2854 41.0452 13.1152C41.3587 12.9011 41.4746 12.6023 41.381 12.2405C41.3155 11.9892 41.25 11.7384 41.182 11.4768C41.0198 11.7203 40.8768 11.955 40.7131 12.175C40.5494 12.395 40.3472 12.5818 40.0462 12.7075C40.0732 12.6591 40.081 12.638 40.0945 12.6209C40.5166 12.0738 40.7599 11.4519 40.948 10.808C40.9673 10.7415 40.9454 10.6613 40.933 10.5895C40.8467 10.1201 40.8883 9.64975 40.9106 9.17892C40.9158 9.08554 40.9158 8.98825 40.9018 8.89535C40.8961 8.85233 40.8586 8.79854 40.8197 8.78241C40.7931 8.77116 40.724 8.80539 40.7006 8.83521C40.6039 8.96331 40.4958 9.08896 40.4308 9.23026C40.1694 9.80181 39.9188 10.3782 39.6693 10.9532C39.3585 11.6714 39.0081 12.3686 38.4743 12.9681C38.2331 13.2394 37.9581 13.4756 37.6208 13.6403C37.5563 13.6711 37.4877 13.6961 37.4155 13.7176C37.9379 13.2096 38.0554 12.5667 38.0787 11.9091C38.1094 11.0671 38.0917 10.2233 38.1006 9.38036C38.1099 8.46901 38.19 7.56549 38.479 6.68738C38.4899 6.65267 38.4717 6.60182 38.4514 6.56711C38.3698 6.4175 38.2664 6.27767 38.1988 6.12317C38.0569 5.79902 37.9384 5.46655 37.7996 5.14044C37.7185 4.94878 37.691 4.9346 37.4727 4.94927C37.2377 4.96492 37.0974 4.83829 36.9726 4.68134C36.8775 4.56254 36.8385 4.56547 36.773 4.70481C36.7018 4.85638 36.6456 5.01234 36.5687 5.16146C36.5422 5.21231 36.4746 5.24556 36.4258 5.28663C36.3883 5.2348 36.326 5.18395 36.3197 5.12871C36.2995 4.94829 36.3047 4.76641 36.2911 4.58551C36.2849 4.49555 36.2719 4.40462 36.2397 4.32052C36.2241 4.28092 36.1596 4.23789 36.1134 4.23447C36.0801 4.23203 36.0224 4.28532 36.0084 4.32541C35.9611 4.454 35.933 4.58796 35.8899 4.71752C35.855 4.82166 35.8057 4.83291 35.7396 4.74784C35.2588 4.1318 34.6174 3.69519 33.9318 3.30699C33.7296 3.19258 33.5305 3.0728 33.3293 2.95741C33.3153 2.96181 33.3012 2.9667 33.2883 2.97012C33.3137 3.17987 33.3402 3.38913 33.3657 3.59839C33.3475 3.60768 33.3293 3.6155 33.3116 3.6243C33.2482 3.57345 33.1755 3.5314 33.1224 3.47175C32.9888 3.32361 32.8683 3.16618 32.7331 3.01853C32.4659 2.72322 32.1291 2.512 31.8053 2.44209C31.9077 2.77211 32.0054 3.08453 32.1021 3.39793C32.087 3.40526 32.0704 3.41113 32.0553 3.41748C32.0215 3.37837 31.9825 3.34219 31.955 3.29966C31.8765 3.17987 31.799 3.06057 31.7273 2.93736C31.4185 2.41178 30.9424 2.10864 30.3176 2.02406C29.8924 1.96637 29.4625 1.92823 29.0342 1.90085C28.7197 1.88032 28.4188 1.83681 28.1308 1.70724C27.9291 1.62168 27.7129 1.56301 27.5008 1.49652C27.4649 1.48478 27.4181 1.49896 27.3766 1.50141C27.3797 1.54394 27.3703 1.59332 27.3885 1.62852C27.4883 1.81236 27.5969 1.99179 27.6973 2.17563C27.7342 2.24163 27.7581 2.31448 27.7872 2.3844C27.7773 2.39466 27.768 2.40395 27.7586 2.41422C27.6947 2.39417 27.6281 2.38049 27.5684 2.35311C27.2918 2.22696 27.0111 2.10816 26.744 1.96637C26.4716 1.82165 26.1722 1.80991 25.8769 1.78645C24.9543 1.7136 24.0431 1.77178 23.1516 2.02553C22.6095 2.17905 22.1084 2.4108 21.6676 2.76917C21.7232 2.7638 21.7804 2.7638 21.8344 2.75451C22.3729 2.65037 22.9115 2.55259 23.4656 2.5697C23.8424 2.58094 24.2099 2.63766 24.5416 2.81758C24.5941 2.84594 24.6278 2.90559 24.6705 2.95008C24.5961 2.97452 24.5182 3.02146 24.447 3.01266C24.2749 2.99359 24.1065 2.93345 23.9334 2.92025C23.3814 2.87381 22.8501 2.99359 22.3246 3.13C21.0521 3.45856 19.8997 4.01739 18.8295 4.73659C18.5685 4.91114 18.2977 5.07297 18.0269 5.23529C17.4988 5.55113 17.071 5.95938 16.7331 6.45368C16.6936 6.51235 16.6567 6.57542 16.6317 6.64045C16.5626 6.82135 16.6135 6.97243 16.7955 7.06239C16.9249 7.12692 17.0694 7.17288 17.2129 7.20564C19.1148 7.64176 20.5313 9.11634 20.7506 10.9405C20.8333 11.6245 20.9347 12.3105 20.8983 13.0042C20.8146 14.5967 20.208 15.9842 19.0779 17.1693C18.4058 17.8744 17.611 18.4352 16.7414 18.907C16.7243 18.9182 16.7056 18.9256 16.6546 18.9505Z" fill="url(#paint2_linear_1944_8040)"/>
<path opacity="0.2" d="M41.0263 8.37902C40.2185 14.3135 37.4183 12.9705 35.5865 16.2834C35.4862 16.1582 35.2554 17.1713 35.717 15.2904C36.1791 13.4076 37.5031 14.2578 38.7563 12.1046C40.3432 9.38277 40.0262 9.1388 41.0263 8.37902Z" fill="#8B4FBA"/>
<path opacity="0.3" d="M32.6613 8.49019C32.3609 10.1887 29.8076 10.1119 27.6229 9.39127C25.2485 8.60802 20.3161 8.35671 19.9189 9.29104C19.7209 9.50519 19.3232 8.62464 19.3232 8.62464C19.3232 8.62464 23.0695 4.78026 29.3409 8.83781C29.0856 8.46428 31.5947 7.37105 31.5947 7.37105C31.5947 7.37105 32.3495 7.15544 32.6613 8.49019Z" fill="white"/>
<path opacity="0.2" d="M19.6676 24.7993C19.8038 25.1171 20.9131 24.903 21.017 24.4067C19.3807 22.6633 23.6888 19.4594 19.7155 15.2776C22.316 21.7289 16.7801 21.9915 19.6676 24.7993Z" fill="#8B4FBA"/>
<path opacity="0.6" d="M19.6676 24.7989C19.8038 25.1167 19.7794 25.0257 19.8834 24.5295C18.247 22.7855 22.6056 20.2426 19.7155 15.2771C22.316 21.7284 16.7801 21.991 19.6676 24.7989Z" fill="#8B4FBA"/>
<path d="M25.6295 23.5273C33.4931 15.7442 23.5519 17.0477 20.312 11.7649C20.3177 11.674 20.3244 11.5859 20.3244 11.4926C20.3244 10.7582 20.1352 10.0669 19.8057 9.45377C22.8382 13.6844 30.526 9.95393 29.0327 18.6024C28.898 19.0474 27.8283 23.43 25.6295 23.5273Z" fill="url(#paint3_linear_1944_8040)"/>
<path d="M25.631 23.523C22.3932 25.0177 19.5629 25.0612 19.697 24.6177C26.1295 20.5123 20.9367 16.2816 19.7261 12.2964C19.8087 11.9747 20.3259 11.855 20.3259 11.4897C20.3259 11.4506 20.3212 11.4135 20.3202 11.3748C20.4138 11.7704 20.6352 11.9078 20.8473 12.1082C23.8372 14.9449 33.3412 15.8929 25.631 23.523Z" fill="url(#paint4_linear_1944_8040)"/>
<path d="M24.6164 23.4101C29.5961 16.4147 20.2999 15.0858 20.3675 12.868C19.6268 17.4297 28.5372 19.3824 20.1653 24.8422C20.0312 25.2851 21.3785 24.9048 24.6164 23.4101Z" fill="#E65271"/>
<path d="M38.5304 11.2594C38.926 11.8808 38.4868 12.6142 38.0262 13.3012C37.601 13.9358 36.5744 13.728 35.8779 15.2578L35.9377 14.0658C36.7096 12.801 35.4038 11.0599 35.0405 9.88311C34.4219 7.87854 33.7493 6.02895 34.569 3.99504C34.6246 3.85863 34.6719 3.70902 34.7281 3.5687C35.1366 3.85276 35.4454 4.13585 35.7973 4.56757C36.0297 4.85407 35.9486 3.82832 36.2542 4.04393C36.4788 4.1999 36.2433 4.92546 36.4575 5.09316C36.6976 5.28383 36.8421 4.17985 37.0162 4.42431C37.4222 4.99831 37.6551 4.63406 37.8282 4.80616C37.9846 4.96212 38.3506 6.16438 38.4982 6.32719C38.6427 6.48511 38.7804 6.64792 38.9166 6.81171C38.8345 7.68688 38.6536 8.67059 38.3542 9.46019C38.072 10.2063 38.0584 10.5172 38.5304 11.2594Z" fill="url(#paint5_linear_1944_8040)"/>
<path d="M27.4617 2.12186C27.4856 2.13017 27.5064 2.13359 27.5189 2.1331C27.7367 2.12968 26.932 1.17775 27.1633 1.17775C27.5537 1.17775 28.1052 1.55715 28.4872 1.58502C29.294 1.6432 30.1303 1.62609 30.8451 1.93362C31.5302 2.22893 31.8348 3.14566 31.9881 3.18428C32.1425 3.22437 31.6154 2.12479 31.7667 2.17369C32.0229 2.25485 32.2277 2.37414 32.3967 2.50615C33.0724 3.41603 33.2918 7.92534 32.3005 7.80898C31.2588 7.68675 33.9436 8.15514 33.9545 8.11749C34.8522 4.92924 32.852 2.96867 32.9425 3.07916C33.0605 3.22584 33.1561 3.33976 33.2575 3.37643C33.4711 3.45368 33.1249 2.60785 33.3198 2.71981C33.94 3.07623 34.3797 3.32754 34.741 3.5808C34.7519 3.59547 34.755 3.63067 34.7727 3.62382C35.0388 3.51968 36.6814 3.15641 35.4313 8.70664C37.3296 5.09303 35.8435 3.67516 35.989 3.8233C36.6632 4.50779 36.801 6.17892 36.8878 7.16996C36.9699 8.0994 36.3482 10.2184 35.5425 10.919C34.9754 11.4118 34.9868 10.8017 34.7737 10.3303C34.4239 9.55638 33.7825 8.93252 33.2003 8.29497C32.7668 7.82072 32.2407 7.47407 31.7641 7.04969C31.2448 6.58717 30.9714 5.94082 30.5072 5.43332C30.0924 4.9796 29.5819 4.61829 29.1874 4.14501C28.7451 3.61502 28.4488 3.00876 27.9602 2.52082C27.8047 2.36436 27.6311 2.24702 27.4617 2.12186Z" fill="#E65271"/>
<path d="M31.101 1.61175C32.2612 1.60832 32.9894 2.13098 33.9495 2.63066C34.7453 3.04673 35.723 3.05064 36.3951 3.62366C37.2876 4.38588 37.6739 5.14126 37.8418 6.25698C38.0336 7.5272 38.0564 9.1465 37.8012 10.4123C37.6702 11.0616 37.1795 12.3924 36.6623 12.8672L36.0417 12.4956C34.8175 9.52248 31.128 8.30262 29.7318 5.38035C29.3201 4.52034 29.1652 3.40266 29.1554 2.46296C29.1444 1.47925 30.2558 1.61419 31.101 1.61175Z" fill="url(#paint6_linear_1944_8040)"/>
<path d="M19.5575 9.04688C18.8828 8.06072 17.8147 7.33565 16.5599 7.07213C16.2407 7.00514 15.6689 6.81838 16.235 6.1774C16.8405 5.28854 17.7107 4.94728 18.179 4.62068C20.0623 3.30548 19.2836 3.17103 20.3825 3.05173C20.8118 3.0048 20.6985 2.96959 20.9163 3.05173C21.1341 3.13387 20.7489 2.99404 20.6112 2.90848C19.3855 2.14527 19.4739 3.66777 20.0009 3.33873C21.5697 2.19759 25.1834 1.39674 26.1964 1.56003C26.3441 1.5835 27.3624 2.13696 27.5183 2.13452C27.7361 2.1311 26.9314 1.17917 27.1628 1.17917C27.5531 1.17917 28.1046 1.55857 28.4867 1.58644C29.2773 1.64364 31.6814 2.68064 31.6642 5.41077C31.659 6.24487 31.7136 6.82962 31.5941 7.37379C30.7177 11.3673 21.8431 5.7628 19.5575 9.04688Z" fill="#F6E8A0"/>
<path d="M30.18 6.58179C29.7688 6.09874 27.096 5.22797 27.096 5.22797C27.096 5.22797 22.6569 3.78908 18.5635 7.88672C20.6557 6.32462 24.3322 6.97977 26.991 7.26823C27.3424 7.30686 26.2316 6.97341 26.5227 6.87221C27.5103 6.5285 28.4246 7.49167 29.4091 7.30588C29.8681 7.21934 30.1441 6.98515 30.18 6.58179Z" fill="white"/>
<path d="M26.7748 5.90581C25.1447 5.50196 23.5151 6.09307 23.2012 6.11116C23.3488 5.90239 23.5895 5.4208 24.797 5.25457C25.0745 5.21594 25.6307 5.25799 25.9223 5.2575C26.4442 5.25652 26.768 5.37484 27.2286 5.58361C27.5223 5.7166 28.2323 5.85839 28.4579 5.82514C28.4579 5.82514 30.9561 6.00213 30.1286 6.79907C29.3021 7.59552 28.0951 5.77185 25.4472 6.35513C25.4478 6.27397 26.0528 5.86767 26.7748 5.90581Z" fill="#F6E8A0"/>
<path d="M24.3039 2.60021C23.2737 1.95874 21.4726 2.50878 21.2386 2.50585C21.2334 2.48336 21.2475 2.45842 21.2896 2.43349C22.8589 1.29235 25.1839 1.39404 26.197 1.55734C26.2048 1.55832 26.2157 1.56174 26.2272 1.56565C26.2319 1.56712 26.2391 1.56956 26.2454 1.57201C26.4647 1.65121 27.1815 2.0311 27.4425 2.11471C28.9697 2.92876 31.3826 4.64781 31.5952 7.37109C30.7276 7.00831 30.1039 6.65483 29.6246 6.31063C29.4635 6.19475 25.8134 2.60656 16.1529 6.91787C16.1529 6.91787 15.8842 6.77901 16.0375 6.45437C18.2191 3.15709 22.2024 2.21005 28.5455 5.33278C27.6462 4.32463 27.2101 3.41084 24.3039 2.60021Z" fill="#F8D285"/>
<path d="M30.4791 21.1328C34.0574 17.6913 35.5155 15.1201 33.7835 12.3513C30.9786 7.864 22.3406 12.5444 18.584 8.01703C18.9822 8.44484 19.8284 9.29214 20.6471 9.7087C23.4317 11.4199 28.6728 10.8694 30.3429 12.1924C32.4913 13.8939 33.0402 17.3246 30.4791 21.1328Z" fill="url(#paint7_linear_1944_8040)"/>
<path d="M18.8229 13.9421C18.8187 14.1728 19.3801 15.5042 19.2923 15.8107C18.5386 18.4279 15.2721 19.7118 15.2721 19.7118C15.2721 19.7118 11.6143 21.0964 11.0332 27.425C10.3657 27.8768 10.4583 26.9151 10.4791 26.4878C10.8944 18.1878 18.2355 19.1158 18.8229 13.9421Z" fill="url(#paint8_linear_1944_8040)"/>
<path d="M31.2679 27.6558C31.2076 27.6299 31.1499 27.5957 31.087 27.5786C30.7663 27.4945 30.4435 27.4172 30.1223 27.3312C30.0209 27.3043 29.9242 27.2608 29.825 27.2251C29.8255 27.2045 29.8265 27.1845 29.827 27.1644C29.9424 27.1449 30.0563 27.1107 30.1717 27.1092C30.6327 27.1043 31.0943 27.1102 31.5559 27.1112C32.2072 27.1126 32.8616 27.1097 33.4901 26.9307C33.7968 26.8427 34.0957 26.7107 34.3769 26.5636C37.3465 25.0088 39.4449 22.7334 40.7075 19.77C40.9659 19.1642 41.1639 18.5379 41.3167 17.9023C41.3261 17.8671 41.3302 17.8305 41.3417 17.7694C41.2923 17.7977 41.2606 17.8114 41.231 17.8295C39.4137 19.0005 37.4291 19.7945 35.2631 20.1802C34.4891 20.3176 33.7068 20.3865 32.9193 20.4081C32.8601 20.4095 32.7852 20.4305 32.7463 20.4687C31.5684 21.5986 30.1774 22.4337 28.6762 23.1279C27.4791 23.6819 26.2144 24.0173 24.9144 24.2549C23.2474 24.5595 21.5762 24.8489 19.9087 25.1506C17.8612 25.5207 15.8241 25.9319 13.8447 26.5616C12.5894 26.9606 11.3725 27.4402 10.2602 28.1271C9.42277 28.6454 8.67737 29.2575 8.15029 30.0725C7.96524 30.36 7.83373 30.6783 7.67467 30.981C7.64556 31.0352 7.61438 31.0919 7.56967 31.1335C6.46562 32.149 6.03106 33.3845 6.20052 34.818C6.32631 35.8785 6.72967 36.8485 7.30613 37.7613C7.37423 37.8684 7.43193 37.9799 7.48495 38.0742C7.51249 37.843 7.53433 37.5838 7.57279 37.3271C7.81658 35.6937 8.71116 34.4772 10.2326 33.6646C11.1178 33.1904 12.0712 32.877 13.0593 32.6716C14.1426 32.4467 15.2352 32.2575 16.3273 32.0713C17.6533 31.8459 18.9866 31.6576 20.2757 31.2753C20.5262 31.2015 20.7742 31.1159 21.0201 31.0279C21.3371 30.9159 21.6334 30.7717 21.9094 30.5791C22.8232 29.9459 23.8244 29.4609 24.8801 29.0727C24.9087 29.0624 24.9368 29.0507 24.9648 29.0404C24.9664 29.0365 24.9669 29.0311 24.9711 29.0199C24.9539 29.0184 24.9388 29.0165 24.9232 29.0165C23.7423 29.0175 22.5597 29.0233 21.3787 29.0175C20.3225 29.0111 19.2694 29.0419 18.2214 29.1715C16.7707 29.3524 15.3667 29.7059 13.9996 30.1953C12.3867 30.7741 10.86 31.5149 9.38014 32.346C9.34064 32.3685 9.29957 32.39 9.24655 32.3988C9.2741 32.3778 9.30009 32.3543 9.32712 32.3348C10.9473 31.1795 12.6726 30.1928 14.5756 29.501C15.9005 29.0204 17.2686 28.7045 18.6825 28.5637C19.9279 28.44 21.1739 28.4518 22.4204 28.5368C23.4985 28.6107 24.576 28.6845 25.6546 28.7539C25.7482 28.7613 25.8485 28.7485 25.9389 28.7236C27.005 28.4185 28.0961 28.2391 29.1976 28.0919C29.8478 28.0044 30.4898 27.8577 31.1343 27.737C31.1785 27.7287 31.2201 27.7071 31.2617 27.691C31.2638 27.6798 31.2659 27.668 31.2679 27.6558Z" fill="url(#paint9_linear_1944_8040)"/>
<path opacity="0.2" d="M11.4199 31.0742C15.6428 26.3292 26.5992 28.8164 31.268 27.6557C28.3119 29.253 25.9073 28.9767 25.9073 28.9767C25.9073 28.9767 15.8185 27.929 11.4199 31.0742Z" fill="white"/>
<path d="M43.7077 13.0685C43.5648 13.0915 43.4592 13.0979 43.3626 13.1272C42.9821 13.2392 42.5855 13.3223 42.2289 13.4836C41.8894 13.6377 41.575 13.8562 41.2808 14.0811C40.7105 14.5172 40.1663 14.9812 39.6039 15.4227C39.1433 15.784 38.6542 16.1072 38.072 16.2749C37.8844 16.3287 37.6895 16.3595 37.493 16.3898C38.2519 16.0304 38.6766 15.3899 39.1168 14.7328C39.0794 14.7392 39.0659 14.7377 39.056 14.7421C37.8989 15.2746 36.7652 15.8432 35.7355 16.58C35.4605 16.777 35.2438 17.0009 35.0889 17.3065C34.8415 17.7925 34.528 18.2496 34.2432 18.718C34.2307 18.739 34.2172 18.7596 34.1824 18.8158C34.4319 18.7664 34.6502 18.7337 34.8643 18.6823C35.7709 18.4643 36.614 18.0951 37.4415 17.6942C38.7343 17.065 39.9641 16.3375 41.1586 15.5567C41.1945 15.5332 41.2314 15.5107 41.2792 15.497C41.2683 15.5112 41.2594 15.5268 41.2465 15.5386C39.83 16.867 38.2415 17.9612 36.3848 18.6862C35.5817 19.0011 34.7495 19.2109 33.8829 19.2954C33.8507 19.2998 33.8086 19.3091 33.7904 19.3302C33.5976 19.5497 33.4094 19.7716 33.1963 20.0195C33.7244 19.9129 34.2219 19.8196 34.7162 19.7115C36.0989 19.4094 37.4545 19.0256 38.7493 18.4721C39.7058 18.0634 40.617 17.5828 41.3847 16.8992C42.3973 15.9967 43.1427 14.9289 43.5772 13.6782C43.6412 13.4949 43.6609 13.2954 43.7077 13.0685Z" fill="#E65271"/>
<path opacity="0.6" d="M19.7871 25.1425C20.1972 25.0129 20.6645 24.8525 21.163 24.6726C27.0399 22.9487 28.9819 21.5117 28.9819 21.5117L34.8853 17.4009C34.8853 17.4009 35.85 18.0957 37.0986 17.1872C36.2477 18.148 33.6367 18.8955 33.6367 18.8955C33.6367 18.8955 33.5161 19.6514 32.6647 20.2386C34.9882 19.4959 38.8914 19.7086 41.5995 17.4151C39.5515 22.8636 34.4653 18.7102 29.5495 22.0989C28.9819 22.4192 21.4843 24.2218 25.2102 24.0981C28.9356 23.9749 31.3906 26.3662 34.5027 25.5825C31.5814 26.5789 29.0001 24.9821 24.9311 24.7137C25.5642 24.833 26.4317 25.161 26.8013 25.6094C25.3261 24.6188 22.4391 24.5734 21.7535 24.7997C21.1303 24.8741 20.4758 24.9855 19.7871 25.1425Z" fill="#8B4FBA"/>
<path opacity="0.2" d="M33.8827 26.8256C29.6011 28.4254 14.4681 23.7914 7.67377 30.9805C7.67377 30.9805 7.16488 30.7663 9.87045 27.9135C20.5097 23.1299 28.4279 27.6534 33.8827 26.8256Z" fill="#2B2B2B"/>
<path opacity="0.7" d="M40.5031 20.4521C41.7699 19.7818 40.7407 21.4202 39.4744 22.3878C34.4875 25.6635 32.232 21.936 27.2861 23.7298C34.8539 19.8063 35.5952 24.696 40.5031 20.4521Z" fill="url(#paint10_radial_1944_8040)"/>
<path opacity="0.2" d="M40.1159 21.3816C41.3831 20.7112 40.7407 21.4197 39.4744 22.3878C34.4875 25.6635 32.232 21.936 27.2861 23.7298C32.1551 21.1816 35.2084 25.6249 40.1159 21.3816Z" fill="#8B4FBA"/>
<path opacity="0.7" d="M15.4951 19.627C13.1882 21.613 14.9971 25.962 14.9971 25.962L13.355 26.293C13.355 26.293 11.6979 22.0887 15.4951 19.627Z" fill="url(#paint11_radial_1944_8040)"/>
<path opacity="0.7" d="M19.4764 16.2957C21.2151 19.2062 16.6039 23.21 19.0803 24.6273C19.0408 24.8185 17.6643 25.4678 17.7288 25.2801C14.6729 20.8695 19.7129 19.8178 19.0512 17.0603C15.517 21.5951 15.4791 22.4927 17.196 25.3637C17.1747 25.3793 16.986 25.6111 16.7983 25.479C14.1136 23.5855 13.3578 21.4582 19.4764 16.2957Z" fill="url(#paint12_radial_1944_8040)"/>
<path opacity="0.2" d="M25.1588 22.2111C25.269 23.5742 26.281 21.3599 26.4344 19.8315C26.5664 14.1121 20.401 15.4953 20.1193 10.8682C19.5194 16.1319 26.1911 16.0165 25.1588 22.2111Z" fill="#8B4FBA"/>
<path opacity="0.3" d="M31.1379 19.9417C31.247 21.3048 34.1569 17.7963 34.3108 16.2684C33.3346 6.45531 22.5965 12.4236 19.7891 8.80849C22.1079 12.7683 37.1172 7.25861 31.1379 19.9417Z" fill="white"/>
<path d="M50.7842 39.0487C50.6267 39.1787 50.4972 39.2971 50.3548 39.3997C50.2405 39.4814 50.1152 39.5537 49.9863 39.6139C49.6723 39.7566 49.3563 39.7752 49.0387 39.6168C48.5443 39.3704 48.0141 39.3518 47.473 39.4076C47.3155 39.4232 47.2126 39.4936 47.1404 39.632C46.5982 40.6812 45.6948 41.3549 44.5632 41.7813C44.4338 41.8302 44.3729 41.8869 44.3501 42.0194C44.2924 42.3533 44.2685 42.6819 44.3527 43.0148C44.4894 43.5472 44.8418 43.9291 45.3159 44.2229C45.8128 44.5309 46.3664 44.7123 46.9387 44.8473C47.6264 45.0072 48.3224 45.1152 49.033 45.1133C49.3942 45.1128 49.7513 45.0732 50.0985 44.9744C50.8746 44.7539 51.3533 44.2664 51.5296 43.5296C51.6434 43.051 51.751 42.5674 51.803 42.081C51.922 40.9657 51.6044 39.9649 50.8211 39.1064C50.807 39.0898 50.7977 39.0697 50.7842 39.0487Z" fill="url(#paint13_linear_1944_8040)"/>
<path opacity="0.3" d="M48.5405 39.1312C48.5993 39.4661 49.2677 39.557 49.578 39.5472C50.1244 39.5301 50.4778 39.2304 50.8328 38.8412C50.89 38.7777 50.9347 38.7151 50.9737 38.651C51.5923 39.115 51.9379 39.7433 51.8428 40.3843C51.6744 41.5137 50.1956 42.2505 48.541 42.0319C47.397 41.8804 46.4681 41.3108 46.0605 40.6004C46.3631 40.2366 46.4816 39.7746 46.8803 39.4597C47.2686 39.1546 48.0358 39.1106 48.5405 39.1312Z" fill="#F6E8A0"/>
<path d="M8.30854 28.5112C8.66669 28.6774 8.91619 28.7136 9.13814 28.6383C8.88292 27.416 8.74933 26.1835 8.79456 24.9431C8.8455 23.5702 9.09812 22.2335 9.73852 20.9818C9.8196 20.8229 9.91369 20.6689 10.0239 20.5222C10.0171 20.5467 10.013 20.5716 10.0031 20.5941C9.65847 21.4082 9.49941 22.2579 9.44691 23.1301C9.3653 24.4893 9.53527 25.827 9.84767 27.1515C9.85495 27.1838 9.86535 27.2151 9.87938 27.262C10.0837 27.1329 10.2827 27.0097 10.4766 26.8802C10.5 26.864 10.5005 26.8049 10.4953 26.7672C10.3961 25.963 10.4033 25.1592 10.4953 24.3549C10.6274 23.2059 10.9289 22.0985 11.3587 21.02C11.9581 19.5141 12.7695 18.1158 13.7613 16.8089C13.7841 16.7786 13.8075 16.7483 13.8294 16.7175C13.834 16.7106 13.8335 16.7023 13.8403 16.6774C13.6958 16.7253 13.5606 16.7688 13.4255 16.8148C12.5127 17.1257 11.6186 17.4768 10.7578 17.9011C10.6232 17.9667 10.4933 18.0493 10.3794 18.1436C9.16777 19.1528 8.45357 20.4289 8.13077 21.9088C8.08243 22.1288 8.04812 22.3528 7.98315 22.5738C7.9977 22.3283 8.00446 22.0819 8.02733 21.8365C8.13545 20.6684 8.3678 19.5219 8.78624 18.4155C8.8928 18.1344 8.81847 17.8806 8.77324 17.6166C8.75921 17.5345 8.69735 17.4592 8.65681 17.3804C8.58975 17.4416 8.50711 17.4929 8.45876 17.5653C8.11466 18.0801 7.89322 18.6453 7.71129 19.2251C7.4332 20.112 7.26738 21.0244 7.13067 21.9406C7.00384 22.7962 6.92275 23.6567 6.92691 24.5216C6.93159 25.3963 7.0028 26.2632 7.31208 27.0982C7.45919 27.4952 7.65723 27.8673 7.9426 28.1924C8.04448 28.3088 8.16976 28.408 8.28359 28.5156C8.29243 28.5137 8.30023 28.5127 8.30854 28.5112Z" fill="url(#paint14_linear_1944_8040)"/>
<path opacity="0.2" d="M12.5257 16.7075C12.5257 16.7075 10.2147 17.0131 9.24005 18.5082C8.26491 20.0024 7.98473 22.5721 7.98473 22.5721C7.98473 22.5721 7.48572 26.4048 9.13973 28.6367C8.09181 20.4522 12.5257 16.7075 12.5257 16.7075Z" fill="#2B2B2B"/>
<path d="M8.31028 28.5076C8.30196 28.5091 8.29416 28.5101 8.28585 28.5111C7.80919 28.336 7.43649 28.0344 7.13241 27.6555C6.68902 27.103 6.45563 26.464 6.31216 25.7956C6.09852 24.7992 6.08033 23.792 6.17129 22.7843C6.22327 22.2089 6.3132 21.6354 6.38701 21.0629C6.38961 21.0423 6.39013 21.0223 6.39221 20.9807C6.35478 21.011 6.32827 21.0281 6.30696 21.0492C4.53912 22.7726 3.21051 24.7571 2.34036 27.0096C2.31749 27.0683 2.32476 27.1475 2.34452 27.2091C2.8638 28.7707 3.61543 30.2321 4.536 31.6157C4.92481 32.1995 5.35365 32.7598 5.76481 33.3304C5.79704 33.3753 5.83446 33.4159 5.89372 33.4883C5.90827 33.2013 6.07097 32.969 5.9457 32.6879C5.78508 32.3295 5.68164 31.9526 5.70295 31.5556C5.71127 31.4089 5.7487 31.272 5.85681 31.1361C5.96441 31.4236 6.04758 31.7067 6.28721 31.9232C6.35738 31.8054 6.37142 31.7027 6.32723 31.5766C6.16038 31.1082 6.04446 30.6296 6.07617 30.1314C6.08605 29.9788 6.12295 29.8287 6.16714 29.6752C6.31216 30.0492 6.55179 30.3553 6.82884 30.6491C6.84496 30.6266 6.85951 30.612 6.86835 30.5944C7.23793 29.8756 7.71147 29.2229 8.27545 28.6274C8.30092 28.5991 8.29936 28.5477 8.31028 28.5076Z" fill="url(#paint15_linear_1944_8040)"/>
<path opacity="0.2" d="M6.52181 30.4261C6.52181 30.4261 3.92281 25.642 5.13914 21.5336C5.2904 21.4212 4.89535 21.7111 4.42493 22.2201C4.3532 22.2973 3.48149 27.7224 5.25038 30.1142C2.87281 27.4613 3.9987 22.7212 3.89837 22.8596C3.68578 23.1549 3.49501 23.481 3.36922 23.8218C2.1534 29.1784 6.35548 32.4023 6.35548 32.4023L6.52181 30.4261Z" fill="#2B2B2B"/>
<path d="M46.2936 47.6512C46.186 47.8047 46.0617 47.9592 45.963 48.1294C45.872 48.2839 45.8538 48.4599 45.9141 48.6339C45.9884 48.8491 46.1418 48.9317 46.3793 48.9004C46.5701 48.873 46.7614 48.8456 46.9532 48.8398C47.1569 48.8334 47.1715 48.8593 47.1944 49.0456C47.2001 49.095 47.2069 49.1458 47.2261 49.1908C47.303 49.3751 47.4169 49.534 47.6445 49.5624C47.8654 49.5898 48.0209 49.4734 48.1404 49.3135C48.4965 48.8393 48.2012 48.1983 47.5827 48.1211C47.3909 48.0971 47.1907 48.1264 46.9943 48.1313C46.9563 48.1328 46.9189 48.1392 46.8809 48.1421C46.8716 48.1318 46.8622 48.1201 46.8523 48.1098C46.9054 48.0516 46.9464 47.9744 47.013 47.9377C47.1544 47.8629 47.3051 47.8321 47.4787 47.8507C48.5375 47.9646 49.5475 47.8468 50.4457 47.2498C50.9442 46.9178 51.3122 46.4822 51.594 45.9767C51.5955 45.9732 51.5992 45.9698 51.6007 45.9664C51.6361 45.8745 51.7083 45.7625 51.6122 45.6926C51.556 45.6515 51.4282 45.6696 51.3434 45.6955C50.9479 45.8178 50.5637 45.9727 50.1635 46.0754C49.5782 46.226 48.9721 46.2309 48.3702 46.2001C47.5567 46.159 46.7572 46.0373 45.989 45.7659C45.1276 45.4618 44.3505 45.0326 43.6764 44.4415C43.5989 44.373 43.5204 44.306 43.4336 44.2508C43.2865 44.1589 43.1862 44.2043 43.1805 44.3715C43.1763 44.4899 43.1888 44.6116 43.2174 44.728C43.5053 45.9097 44.2679 46.7408 45.3943 47.2899C45.689 47.4351 46.0061 47.5373 46.2936 47.6512Z" fill="#E65270"/>
<path d="M1.56157 25.6559C1.51634 29.9198 2.97439 33.6199 6.01003 36.7617C5.9674 36.4723 5.91075 36.1828 5.88476 35.8939C5.84161 35.4006 5.81406 34.9058 5.78859 34.41C5.78339 34.3093 5.75636 34.2296 5.69607 34.1489C4.55926 32.6064 3.51654 31.0105 2.68486 29.2998C2.26278 28.432 1.90204 27.5407 1.70867 26.6C1.64578 26.2959 1.61199 25.9874 1.56157 25.6559Z" fill="url(#paint16_linear_1944_8040)"/>
<path d="M38.6356 11.6328C39.1794 10.7484 39.7402 9.89714 39.9393 8.89437C39.9726 8.72667 39.9622 8.54821 39.9513 8.37514C39.892 7.40805 39.9986 6.46394 40.3318 5.54282C40.3614 5.46117 40.3973 5.37512 40.3952 5.292C40.3936 5.22306 40.3557 5.14337 40.3068 5.0891C40.2444 5.02016 40.1597 5.04461 40.0797 5.08763C39.8234 5.22404 39.6373 5.4245 39.4881 5.65772C39.1846 6.12659 39.0229 6.64582 38.9101 7.1763C38.6008 8.63084 38.554 10.1015 38.6149 11.58C38.6154 11.5878 38.6206 11.5947 38.6356 11.6328Z" fill="url(#paint17_linear_1944_8040)"/>
<path opacity="0.4" d="M38.957 6C39.0558 5.80248 39.4623 5.37027 39.6255 5.2456L39.993 5.02509C39.6239 5.91102 39.4914 6.81259 39.4914 7.7562C39.4914 8.55119 39.7518 9.28946 39.7929 10.0805C39.8261 10.7323 39.5241 11.0598 39.1644 11.5903C39.0022 11.8289 38.7808 12.3457 38.4284 12.3477C38.2652 11.9707 38.2917 11.4984 38.2875 11.095C38.2828 10.6125 38.2007 10.1416 38.221 9.65419C38.2595 8.73404 38.7876 6.33931 38.957 6Z" fill="#8B4FBA"/>
<path d="M51.6091 44.1094C51.5935 44.1211 51.5883 44.1231 51.5867 44.126C51.187 44.899 50.4764 45.2364 49.6177 45.3043C48.1992 45.4177 46.8383 45.1679 45.5471 44.6096C45.0029 44.3739 44.5372 44.0317 44.2752 43.5056C44.1619 43.2782 44.1068 43.025 44.022 42.7751C43.7403 42.7737 43.405 43.0357 43.3827 43.3183C43.3754 43.4102 43.4165 43.5129 43.4606 43.599C43.6389 43.9456 43.9254 44.2082 44.2378 44.4458C45.0408 45.0555 45.9604 45.4402 46.9574 45.6671C48.2667 45.9653 49.5761 45.9741 50.8715 45.605C51.1781 45.5175 51.4687 45.3708 51.7536 45.228C51.974 45.1171 52.0862 44.9274 52.0535 44.6805C52.0181 44.4145 51.8716 44.2238 51.6091 44.1094Z" fill="#E65270"/>
<path opacity="0.4" d="M51.6091 44.1094C51.5935 44.1211 51.5883 44.1231 51.5867 44.126C51.187 44.899 50.4764 45.2364 49.6177 45.3043C48.1992 45.4177 46.8383 45.1679 45.5471 44.6096C45.0029 44.3739 44.5372 44.0317 44.2752 43.5056C44.1619 43.2782 44.1068 43.025 44.022 42.7751C43.7403 42.7737 43.405 43.0357 43.3827 43.3183C43.3754 43.4102 43.4165 43.5129 43.4606 43.599C43.6389 43.9456 43.9254 44.2082 44.2378 44.4458C45.0408 45.0555 45.9604 45.4402 46.9574 45.6671C48.2667 45.9653 49.5761 45.9741 50.8715 45.605C51.1781 45.5175 51.4687 45.3708 51.7536 45.228C51.974 45.1171 52.0862 44.9274 52.0535 44.6805C52.0181 44.4145 51.8716 44.2238 51.6091 44.1094Z" fill="#2B2B2B"/>
<path d="M37.3668 31.8422C37.357 32.3199 37.463 32.7692 37.6818 33.1956C38.1247 34.0517 38.855 34.6115 39.7699 34.9787C40.5678 35.2994 41.4052 35.4084 42.2681 35.3664C42.279 35.3659 42.2899 35.3615 42.3268 35.3507C41.7233 35.2632 41.1614 35.1219 40.6187 34.918C39.6779 34.5646 38.8483 34.0619 38.2042 33.3124C37.8586 32.9115 37.5982 32.4651 37.4204 31.9752C37.4048 31.9302 37.385 31.8862 37.3668 31.8422Z" fill="#0D0D0D"/>
<path d="M44.4141 25.0078C45.3429 24.4744 45.5436 23.2213 44.9484 22.505C45.0882 23.3998 44.8959 24.2309 44.4141 25.0078Z" fill="#0D0D0D"/>
<path d="M45.9458 29.9251C46.4001 30.2752 46.9464 30.372 47.5166 30.3627C47.7443 30.3573 47.9709 30.3221 48.1986 30.3118C48.3218 30.3065 48.4507 30.3138 48.5718 30.3387C48.8016 30.3881 48.904 30.3549 48.9825 30.1476C49.1602 29.6748 49.2439 29.1849 49.1841 28.6857C49.155 28.4461 49.102 28.2007 49.0012 27.9812C48.6046 27.1094 47.4038 26.751 46.5144 27.2272C46.4001 27.2884 46.292 27.3597 46.1896 27.4389C46.0814 27.5216 45.9837 27.6174 45.8714 27.7162C45.9213 27.7704 45.9629 27.8227 46.0097 27.8682C46.1173 27.9719 46.1579 28.0946 46.1251 28.2325C46.0232 28.6656 46.2223 28.9732 46.6064 29.1702C46.8809 29.311 47.1813 29.4122 47.4802 29.5061C47.6341 29.5555 47.7926 29.5907 47.9538 29.621C48.0032 29.6195 48.0239 29.6117 48.0624 29.5829C48.302 29.4372 48.4736 29.246 48.5796 28.9957C48.6368 29.1433 48.6254 29.3888 48.5749 29.5711C48.5437 29.6836 48.564 29.9593 48.6248 30.0395C48.6202 30.0444 48.6155 30.0498 48.6124 30.0542C48.5838 30.0415 48.5557 30.0278 48.5287 30.0126C48.2209 29.8351 47.8768 29.7789 47.526 29.7378C47.0919 29.686 46.6699 29.5926 46.3003 29.3575C45.8553 29.0744 45.6167 28.6808 45.5913 28.1748C45.5902 28.1591 45.5876 28.1445 45.5819 28.1029C45.1796 28.8426 45.3028 29.4288 45.9458 29.9251Z" fill="#0D0D0D"/>
<path d="M46.5332 28.3309C46.5332 28.791 46.9298 29.1641 47.4179 29.1641C47.9076 29.1641 48.3042 28.791 48.3042 28.3309C48.3042 27.8709 47.9076 27.4978 47.4179 27.4978C46.9298 27.4978 46.5332 27.8709 46.5332 28.3309Z" fill="url(#paint18_linear_1944_8040)"/>
<g clip-path="url(#clip1_1944_8040)">
<path d="M46.823 28.1914C46.8422 28.1914 46.8615 28.1864 46.8784 28.1765L47.0876 28.0535C47.1181 28.0355 47.1367 28.004 47.1367 27.9701V27.7241C47.1367 27.6902 47.1181 27.6586 47.0876 27.6407L46.8784 27.5178C46.8615 27.5078 46.8422 27.5028 46.823 27.5028C46.8037 27.5028 46.7845 27.5078 46.7675 27.5178L46.5584 27.6407C46.5278 27.6586 46.5092 27.6902 46.5092 27.7241V27.9701C46.5092 28.004 46.5278 28.0355 46.5584 28.0535L46.7675 28.1765C46.7845 28.1864 46.8037 28.1914 46.823 28.1914Z" fill="white"/>
</g>
<path d="M50.4923 42.3693C50.6493 42.4612 50.8941 42.4221 50.9851 42.2597C51.3624 41.5841 51.3281 40.7969 50.9585 40.1251C50.7465 39.7399 50.1113 40.0508 50.3228 40.4346C50.5749 40.8937 50.6264 41.4579 50.3753 41.9082C50.2854 42.0696 50.3176 42.2681 50.4923 42.3693Z" fill="white"/>
<path opacity="0.2" d="M12.0337 44.3125C11.8102 38.2895 15.7581 40.2486 17.5145 37.7057C17.658 37.5473 17.7417 37.3693 17.8072 37.2315C15.8355 38.2523 10.3095 37.5703 12.0337 44.3125Z" fill="#430A1D"/>
<path opacity="0.2" d="M9.03019 32.5704C14.4522 28.1799 25.157 28.6591 25.9404 28.7212C21.4503 31.7334 7.98019 28.9016 7.48638 38.0703C6.61156 35.4663 7.73797 33.6172 9.03019 32.5704Z" fill="#2B2B2B"/>
<path opacity="0.2" d="M17.6944 37.4696C17.6944 37.4696 17.6939 38.8005 17.6944 39.7407C17.6949 40.6804 16.4386 40.168 15.9541 38.8777C17.1647 38.4314 17.6944 37.4696 17.6944 37.4696Z" fill="#430A1D"/>
<path opacity="0.2" d="M17.0248 37.9207C17.9329 36.4133 16.9999 35.1094 16.8549 35.0537C17.371 35.0282 18.3623 34.1179 18.5983 33.8147C18.9673 33.34 18.9897 32.6506 19.0209 32.0869C19.7533 32.0561 20.2684 31.6341 20.9348 31.4845C20.3682 31.9837 19.5994 32.5743 19.2553 33.2471C18.9491 33.8446 18.6903 34.5325 18.4844 35.1681C18.3165 35.6888 18.1601 36.206 18.0561 36.7434C17.9792 37.1433 17.7281 37.6816 17.7739 38.0713C17.7739 38.0713 17.6803 41.5773 18.4278 43.3086C17.0129 42.8554 16.2701 41.769 16.0123 41.3485C15.7207 40.8728 15.1712 39.6901 15.8516 38.9367C16.2914 38.7856 16.7727 38.3387 17.0248 37.9207Z" fill="#430A1D"/>
<path d="M3.76614 42.4732C6.61569 46.166 10.4269 48.5393 15.1638 49.5704C16.7419 49.9141 18.3466 50.0085 19.9652 50.0026C23.9251 49.9865 27.8844 49.9958 31.8437 49.9953C34.5072 49.9943 37.1707 49.9953 39.8336 49.9889C40.4672 49.9879 41.0993 49.9483 41.7054 49.7498C42.3001 49.5562 42.759 49.2135 43.0143 48.6586C43.3807 47.8572 43.0678 46.8491 42.2777 46.3059C41.6976 45.9079 41.0323 45.792 40.331 45.8214C40.1429 45.8302 39.9547 45.8575 39.7671 45.8756C39.7239 45.88 39.6777 45.8893 39.6366 45.8805C39.5763 45.8683 39.5191 45.8399 39.4609 45.8194C39.4942 45.7734 39.5181 45.7177 39.5617 45.684C40.2858 45.1046 40.7843 44.3908 41.0229 43.5244C41.1097 43.209 41.1352 42.8888 41.104 42.5656C41.1019 42.5402 41.0998 42.5153 41.0988 42.4913C41.092 42.3241 41.1523 42.2723 41.328 42.2645C41.8457 42.242 42.3635 42.2229 42.8796 42.1848C43.1265 42.1662 43.3703 42.1095 43.6484 42.0928C43.6157 42.1329 43.5918 42.1921 43.5486 42.2107C43.1359 42.3901 42.8661 42.6893 42.731 43.0883C42.5724 43.5581 42.4612 44.0383 42.4841 44.5365C42.5194 45.3412 42.8521 46.0335 43.3937 46.6442C43.8808 47.1918 44.4806 47.604 45.159 47.9169C45.2463 47.957 45.2692 47.9922 45.239 48.0851C45.1522 48.3481 45.1626 48.6141 45.2614 48.8771C45.3211 49.0375 45.4308 49.1538 45.5873 49.2365C45.9439 49.4232 46.3545 49.4501 46.7433 49.2966C46.7542 49.3489 46.7636 49.4081 46.7776 49.4589C46.8899 49.8598 47.1649 50.0192 47.5802 50.2539C47.6769 50.2539 47.7736 50.2539 47.8702 50.2539C47.8822 50.2539 47.8931 50.2251 47.9051 50.2231C48.6364 50.1072 48.9436 49.4785 48.8589 48.883C48.8371 48.7295 48.7898 48.5784 48.7581 48.44C49.0892 48.3579 49.4307 48.2943 49.7566 48.1872C51.2614 47.6944 52.2548 46.7391 52.6758 45.284C52.8437 44.7017 52.7397 44.18 52.2594 43.7478C52.2293 43.7195 52.2267 43.651 52.234 43.6046C52.327 43.0545 52.4715 42.5084 52.5095 41.955C52.5994 40.6417 52.1607 39.4903 51.1902 38.5306C51.133 38.4743 51.1294 38.4264 51.1445 38.3575C51.2084 38.0632 51.2817 37.7693 51.3202 37.4716C51.3997 36.8707 51.1559 36.373 50.7302 35.9393C50.6928 35.9007 50.6507 35.8591 50.633 35.8112C50.514 35.4773 50.2681 35.2499 49.9432 35.0964C49.2883 34.7859 48.5938 34.7229 47.878 34.8348C47.4092 34.9086 46.9814 35.0944 46.5577 35.2832C46.3706 35.3663 46.1996 35.4078 46.0265 35.2656C45.9974 35.2416 45.9511 35.2357 45.9236 35.2132C45.8758 35.1707 45.7952 35.1115 45.8046 35.0759C45.817 35.0211 45.8856 34.959 45.9459 34.9365C46.2755 34.8143 46.616 34.7483 46.9731 34.7483C47.2408 34.7483 47.51 34.7414 47.7751 34.7116C48.6208 34.6153 49.3964 34.3283 50.1246 33.9196C50.173 33.8922 50.227 33.8687 50.2816 33.8604C51.223 33.725 51.9793 33.0292 52.1435 32.1482C52.1602 32.0592 52.1581 31.957 52.2069 31.8861C52.6056 31.3063 52.6384 30.6902 52.4076 30.0571C52.2615 29.6567 52.0588 29.2729 51.8982 28.8773C51.8129 28.6646 51.7251 28.4456 51.7033 28.2246C51.645 27.5973 51.5567 26.9759 51.3779 26.3701C50.9958 25.0765 50.3149 23.9554 49.2217 23.0758C48.1182 22.1884 46.8244 21.721 45.3913 21.5777C45.265 21.5655 45.1985 21.5274 45.1428 21.41C44.8299 20.7427 44.3153 20.2738 43.5746 20.0303C43.3823 19.9672 43.1905 19.9531 43.0096 20.0298C42.7518 20.1418 42.4893 20.2533 42.2579 20.4068C41.6529 20.8038 41.1742 21.3196 40.7765 21.9029C40.7458 21.9469 40.711 22.0046 40.6648 22.0192C40.6024 22.0383 40.5104 22.0451 40.4626 22.0139C40.4257 21.9904 40.4173 21.8955 40.4319 21.8403C40.4485 21.7753 40.5015 21.7176 40.5431 21.6604C41.5962 20.2278 42.2663 18.652 42.5745 16.9345C42.5849 16.8807 42.6254 16.8225 42.6686 16.7819C42.9269 16.534 43.1946 16.2949 43.4509 16.0451C43.8615 15.6466 44.1131 15.1646 44.2472 14.6287C44.2821 14.4884 44.2987 14.3442 44.3091 14.2009C44.3122 14.1574 44.267 14.1114 44.2441 14.0665C44.1947 14.0933 44.1303 14.1095 44.1001 14.1481C44.03 14.2381 43.9806 14.3412 43.9161 14.4341C43.8735 14.4957 43.8179 14.548 43.7674 14.6072C43.7519 14.5725 43.7555 14.5529 43.7633 14.5348C44.0393 13.8748 44.2306 13.1947 44.3231 12.4897C44.3491 12.2936 44.3668 12.0946 44.372 11.8971C44.3761 11.7534 44.2748 11.6624 44.1724 11.7011C44.1178 11.7221 44.0705 11.7651 44.0284 11.8047C43.6188 12.1861 43.1359 12.4691 42.641 12.7371C42.6301 12.7229 42.6218 12.7165 42.6213 12.7092C42.6078 12.6398 42.5943 12.5713 42.5833 12.5019C42.4508 11.6879 42.2226 10.8963 41.9591 10.1111C41.7574 9.51167 41.6435 8.89905 41.7548 8.26736C41.8213 7.89138 41.9632 7.55012 42.3027 7.31055C42.3286 7.29246 42.3458 7.26361 42.3754 7.23134C42.3359 7.21228 42.3115 7.1937 42.2839 7.18832C41.7932 7.08662 41.2864 7.14627 41.0115 7.67577C40.9803 7.73493 40.9387 7.78822 40.8815 7.8772C40.8197 7.76085 40.7583 7.68457 40.7386 7.60146C40.6408 7.18391 40.6169 6.75904 40.6585 6.33221C40.711 5.80516 40.9091 5.32259 41.1529 4.85225C41.2157 4.73002 41.2755 4.60437 41.3161 4.47529C41.3883 4.2411 41.2495 4.06802 40.9891 4.07194C40.8597 4.07438 40.7235 4.09344 40.6039 4.13598C39.9625 4.36284 39.4749 4.76131 39.1506 5.33188C39.1241 5.37833 39.1002 5.42429 39.071 5.48003C38.8137 5.24486 38.5793 5.01555 38.4572 4.70166C38.3787 4.50072 38.2757 4.30711 38.1692 4.11887C38.0923 3.98393 38.0351 3.98686 37.9415 4.10958C37.916 4.14283 37.8937 4.17901 37.8661 4.21079C37.7944 4.29244 37.7388 4.29293 37.6821 4.20052C37.6317 4.11936 37.5938 4.02989 37.5595 3.94237C37.3921 3.51701 37.1187 3.16401 36.7423 2.8819C36.7169 2.86382 36.6878 2.84964 36.628 2.81492C36.6498 2.94938 36.668 3.05351 36.6826 3.15814C36.6982 3.26522 36.7111 3.37229 36.7257 3.48523C36.6914 3.48132 36.6815 3.4823 36.6748 3.47838C36.6379 3.45638 36.601 3.43341 36.5651 3.40945C35.0452 2.42134 33.3834 1.7349 31.5869 1.33398C31.0396 1.21175 30.4657 1.16873 29.9714 0.876354C29.9605 0.869507 29.9465 0.866081 29.9345 0.860706C29.8368 0.824524 29.765 0.84457 29.6892 0.915951C29.6408 0.960934 29.5545 0.980976 29.4859 0.98C29.266 0.975109 29.0472 0.929642 28.8284 0.912529C28.6277 0.896881 28.4208 0.853859 28.2275 0.808388C27.8969 0.729671 27.5751 0.427032 27.2497 0.427032C27.1707 0.427032 27.0907 0.427032 27.0122 0.427032C26.9363 0.427032 26.8464 0.632378 26.785 0.70425C26.6774 0.830879 26.5454 0.979023 26.3765 0.989292C25.2568 1.05481 24.1502 1.20735 23.0606 1.46305C21.4014 1.85028 19.8426 2.45116 18.4464 3.39576C17.426 4.08661 16.5507 4.90701 15.93 5.94695C15.8032 6.15816 15.7029 6.38502 15.6025 6.60846C15.5261 6.78056 15.5079 6.96243 15.5713 7.14285C15.6244 7.29099 15.7434 7.37312 15.9035 7.34966C16.8158 7.21471 17.5877 7.52811 18.2998 8.01459C19.0078 8.49911 19.5473 9.12004 19.855 9.89645C20.3083 11.0435 20.063 12.0702 19.2084 12.9791C19.1221 13.071 19.0244 13.1541 18.9194 13.2539C18.8799 13.1145 18.8471 12.9879 18.8082 12.8613C18.6148 12.2403 18.3388 11.661 17.8689 11.1769C17.596 10.8948 17.4879 11.2288 17.5565 11.7397C17.7041 12.8261 17.3496 13.7604 16.5455 14.5456C16.4966 14.594 16.4228 14.6238 16.3536 14.6468C15.5064 14.9294 14.6534 15.1973 13.8108 15.4921C12.3065 16.0182 10.8542 16.6514 9.47772 17.4307C9.459 17.441 9.43925 17.4508 9.41898 17.461C9.28851 17.3818 9.23497 17.2635 9.24069 17.1315C9.24797 16.9555 9.27863 16.7795 9.30047 16.604C9.30254 16.5829 9.30982 16.5634 9.3119 16.5428C9.3566 16.2324 9.22769 16.1312 8.92361 16.27C8.77131 16.3399 8.63148 16.4558 8.5218 16.5785C8.17146 16.9731 7.95418 17.4405 7.74574 17.9089C7.63554 18.1563 7.54822 18.4125 7.43698 18.6594C7.39643 18.7498 7.3325 18.8408 7.25349 18.9038C6.06158 19.8572 4.95129 20.883 4.00993 22.0642C3.20372 23.0763 2.5155 24.1524 1.95671 25.3033C1.94268 25.3336 1.92656 25.363 1.91097 25.3923C1.90681 25.3991 1.8985 25.4026 1.88082 25.4177C1.69785 24.4091 1.66147 23.4048 1.76907 22.3903C1.6833 22.6915 1.58817 22.9912 1.51332 23.2948C1.20768 24.5191 1.11256 25.7585 1.20352 27.0126C1.2082 27.0761 1.19105 27.1446 1.17025 27.2062C0.773645 28.3786 0.499191 29.577 0.382755 30.8017C-0.0242493 35.0807 1.08137 38.9931 3.76614 42.4732ZM2.68548 29.2997C3.51716 31.0105 4.55988 32.6063 5.69668 34.1489C5.75646 34.23 5.78401 34.3097 5.78921 34.4099C5.81468 34.9057 5.84223 35.4 5.88537 35.8938C5.91136 36.1842 5.96802 36.4737 6.01064 36.7617C2.975 33.6199 1.51696 29.9197 1.56218 25.6558C1.61312 25.9868 1.64639 26.2958 1.70929 26.599C1.90265 27.5406 2.2634 28.4309 2.68548 29.2997ZM13.8409 16.6763C13.8342 16.7012 13.8347 16.7096 13.83 16.7164C13.8082 16.7467 13.7848 16.777 13.7619 16.8078C12.7701 18.1147 11.9587 19.5135 11.3594 21.0189C10.9295 22.0975 10.628 23.2058 10.496 24.3538C10.404 25.1581 10.3967 25.9619 10.496 26.7662C10.5012 26.8038 10.5007 26.863 10.4773 26.8791C10.2834 27.0096 10.0838 27.1329 9.88004 27.261C9.86653 27.2145 9.85561 27.1837 9.84834 27.1505C9.53542 25.826 9.36544 24.4893 9.44757 23.1291C9.50059 22.2578 9.65913 21.4076 10.0038 20.5931C10.0136 20.5696 10.0178 20.5446 10.0245 20.5212C9.91435 20.6693 9.82027 20.8219 9.73918 20.9808C9.09878 22.2329 8.84564 23.5691 8.79522 24.942C8.75 26.1819 8.88358 27.415 9.13881 28.6373C8.91685 28.7121 8.66787 28.6764 8.30921 28.5101C8.29829 28.5507 8.29933 28.6021 8.27438 28.6294C7.71039 29.2259 7.23685 29.8786 6.86728 30.5964C6.85792 30.6145 6.84388 30.6286 6.82777 30.6511C6.55072 30.3558 6.31109 30.0502 6.16606 29.6772C6.12188 29.8297 6.08498 29.9803 6.0751 30.1334C6.04339 30.6325 6.15931 31.1102 6.32616 31.5786C6.37035 31.7048 6.35631 31.8074 6.28614 31.9253C6.04651 31.7092 5.96334 31.4256 5.85574 31.1381C5.74762 31.274 5.7102 31.4119 5.70188 31.5576C5.68057 31.9546 5.78401 32.3315 5.94463 32.6899C6.0699 32.9701 5.90772 33.2033 5.89265 33.4903C5.83339 33.4179 5.79544 33.3778 5.76374 33.3324C5.35257 32.7618 4.92374 32.202 4.53493 31.6177C3.61436 30.2336 2.86273 28.7737 2.34345 27.2111C2.32369 27.1495 2.31642 27.0703 2.33929 27.0116C3.20943 24.7601 4.53753 22.7746 6.30589 21.0512C6.3272 21.0301 6.35371 21.013 6.39114 20.9827C6.38906 21.0238 6.38854 21.0443 6.38594 21.0649C6.31213 21.6384 6.2222 22.2119 6.17022 22.7863C6.07926 23.7945 6.09745 24.8012 6.31109 25.7976C6.45455 26.466 6.68846 27.1045 7.13133 27.6575C7.43542 28.0359 7.80812 28.338 8.28529 28.5131C8.17042 28.4055 8.04566 28.3067 7.94378 28.1899C7.65841 27.8648 7.46037 27.4922 7.31327 27.0957C7.00346 26.2611 6.93277 25.3947 6.92809 24.5191C6.92341 23.6532 7.0045 22.7942 7.13185 21.9381C7.26856 21.0218 7.43438 20.111 7.71247 19.2226C7.8944 18.6427 8.11532 18.0776 8.45995 17.5627C8.50829 17.4913 8.59094 17.439 8.65799 17.3779C8.69802 17.4566 8.75987 17.5319 8.77443 17.6141C8.82017 17.8786 8.89398 18.1323 8.78742 18.413C8.36898 19.5199 8.13663 20.6654 8.02851 21.8339C8.00564 22.0794 7.99888 22.3258 7.98433 22.5712C8.0493 22.3502 8.08361 22.1263 8.13195 21.9063C8.45475 20.4263 9.16896 19.1502 10.3806 18.1411C10.4944 18.0468 10.6244 17.9641 10.759 17.8986C11.6198 17.4752 12.5139 17.1232 13.4266 16.8122C13.5613 16.7677 13.6959 16.7237 13.8409 16.6763ZM40.396 5.29473C40.3981 5.37784 40.3622 5.46389 40.3326 5.54554C39.9989 6.46667 39.8923 7.41126 39.9521 8.37786C39.963 8.55094 39.9734 8.72989 39.9402 8.89709C39.7411 9.89938 39.1802 10.7511 38.6365 11.6355C38.6214 11.5974 38.6162 11.5906 38.6162 11.5847C38.5559 10.1077 38.6027 8.63552 38.9115 7.18098C39.0248 6.64952 39.1859 6.13127 39.4895 5.66239C39.6387 5.42967 39.8248 5.22921 40.081 5.09232C40.1605 5.04978 40.2453 5.02484 40.3082 5.09378C40.356 5.14609 40.3945 5.22579 40.396 5.29473ZM41.0453 13.1263C40.7973 13.2949 40.5369 13.4533 40.2645 13.5829C39.306 14.0361 38.2903 14.3588 37.286 14.7069C37.0906 14.7744 36.903 14.8712 36.7283 14.9788C36.3811 15.1929 36.1227 15.4931 35.8987 15.8178C35.7916 15.9713 35.6913 16.1297 35.5873 16.2857C35.5899 16.2333 35.6071 16.1874 35.6211 16.14C35.7396 15.7606 35.8748 15.3841 35.9699 14.9988C36.1025 14.4615 36.3125 13.9594 36.6306 13.4988C36.8026 13.25 36.9944 13.0118 37.1623 12.7591C37.2684 12.6007 37.3609 12.4286 37.4347 12.2545C37.4784 12.1499 37.4737 12.0277 37.4914 11.9137C37.4737 11.9054 37.4565 11.8971 37.4378 11.8893C37.3848 11.9313 37.3245 11.968 37.2793 12.0169C37.0948 12.2159 36.9175 12.4217 36.7283 12.6173C36.6872 12.6608 36.5958 12.7033 36.5495 12.6877C36.5053 12.6725 36.4585 12.5801 36.4648 12.5264C36.4882 12.3107 36.5017 12.0883 36.5734 11.8849C36.6722 11.6047 36.8281 11.3422 36.9435 11.065C37.0002 10.93 37.0371 10.7804 37.0501 10.6357C37.0563 10.5672 36.9856 10.4929 36.9508 10.422C36.8889 10.4616 36.8177 10.4934 36.7668 10.5438C36.6763 10.6333 36.6041 10.7379 36.511 10.8259C36.419 10.9114 36.3338 10.8973 36.2808 10.7882C36.2428 10.712 36.2049 10.6181 36.2173 10.5408C36.249 10.3467 36.3052 10.1561 36.3577 9.96441C36.4065 9.79035 36.4757 9.61825 36.5136 9.44273C36.5396 9.32392 36.5074 9.20609 36.3748 9.11662C36.3379 9.16747 36.2974 9.21098 36.2735 9.26231C36.2215 9.36694 36.1804 9.47647 36.1321 9.5811C36.0203 9.82262 35.9221 10.0725 35.7901 10.3042C35.6736 10.5081 35.5588 10.49 35.4335 10.292C35.1912 9.90476 34.9516 9.5146 34.6808 9.14497C34.5316 8.94207 34.4448 8.73331 34.4219 8.49569C34.3918 8.17985 34.3752 7.86107 34.3398 7.54474C34.3263 7.42691 34.2925 7.30419 34.1553 7.19271C34.1262 7.32619 34.1017 7.43571 34.0789 7.54572C34.0446 7.70706 34.0212 7.87134 33.9739 8.02926C33.9411 8.14073 33.846 8.15198 33.7867 8.05273C33.7332 7.96276 33.6968 7.8552 33.689 7.75253C33.6745 7.55892 33.6932 7.36433 33.6823 7.17023C33.6781 7.08222 33.6443 6.99372 33.609 6.91012C33.5939 6.87443 33.5435 6.85047 33.5092 6.82114C33.4863 6.85732 33.4556 6.89056 33.4426 6.93016C33.4265 6.97661 33.425 7.02697 33.4172 7.07635C33.3948 7.21912 33.3823 7.36531 33.3465 7.50416C33.3085 7.65524 33.2077 7.68066 33.1079 7.55843C33.0164 7.44646 32.9441 7.31396 32.8984 7.18C32.8282 6.97172 32.7986 6.75367 32.7315 6.54343C32.7004 6.44516 32.6286 6.35519 32.5616 6.27159C32.5366 6.24128 32.4639 6.22172 32.4238 6.23296C32.3942 6.2403 32.3651 6.30434 32.3635 6.34444C32.3599 6.5048 32.3666 6.66615 32.3692 6.827C32.3698 6.9067 32.3692 6.98639 32.3692 7.07244C32.3318 7.06462 32.3173 7.06511 32.3079 7.05973C32.2866 7.04604 32.2653 7.02942 32.2481 7.01133C32.0724 6.8358 31.9544 6.63192 31.9175 6.38991C31.9014 6.28283 31.8957 6.17576 31.8744 6.07064C31.8484 5.94646 31.7694 5.89903 31.6353 5.91468C31.4944 5.93032 31.405 6.02664 31.391 6.19483C31.3811 6.30434 31.3889 6.41387 31.3889 6.54001C31.2288 6.46276 31.0864 6.39186 30.9419 6.32488C29.4646 5.63697 27.9047 5.21063 26.2683 5.03071C25.2116 4.91483 24.1548 4.9119 23.1069 5.11187C22.4733 5.23263 21.8698 5.42673 21.3463 5.79978C21.2694 5.85356 21.1987 5.91614 21.1249 5.97482C21.7081 5.65751 22.0491 5.52794 22.5752 5.43407C23.5326 5.26099 24.4911 5.2869 25.4481 5.41745C27.1317 5.64773 28.7228 6.14691 30.2183 6.91452C31.3775 7.50904 32.4243 8.23803 33.2711 9.20267C33.335 9.27405 33.3953 9.34885 33.4551 9.4222C31.7216 8.64334 29.7635 10.1086 27.8049 9.45837C30.4891 10.7599 32.0787 9.08337 33.5923 10.1683C33.9775 10.444 34.0461 11.1554 33.1656 11.0361C32.3256 10.9232 34.4308 11.3143 34.8082 13.3722C34.7868 13.7081 34.7369 14.0498 34.6553 14.3994C34.2936 15.941 33.5305 17.3026 32.4826 18.5249C31.4035 19.7824 30.0483 20.7197 28.5253 21.4526C28.5035 21.4575 28.4796 21.4648 28.4494 21.4765C28.4536 21.4594 28.4531 21.4506 28.4562 21.4462C28.4775 21.4144 28.4993 21.3831 28.5212 21.3523C29.2489 20.3349 29.8467 19.2607 30.1372 18.0541C30.3368 17.2278 30.3607 16.3996 30.0832 15.5811C29.7728 14.6673 29.1522 13.9716 28.3413 13.4142C27.4327 12.7894 26.4061 12.3992 25.3358 12.1C25.1071 12.036 24.8742 11.9792 24.6154 11.9123C24.6445 11.9416 24.6476 11.9494 24.6549 11.9519C24.6991 11.9695 24.7443 11.9856 24.7895 12.0022C25.537 12.277 26.2491 12.6124 26.8947 13.0656C27.8241 13.7154 28.5076 14.5339 28.818 15.5982C29.0919 16.5394 29.0311 17.4806 28.7868 18.4169C28.4713 19.6294 27.887 20.728 27.1816 21.7782C27.0205 22.0183 26.8287 22.1781 26.5386 22.2593C26.1878 22.3566 25.8447 22.4832 25.4652 22.6094C26.5392 21.5249 26.5688 19.9995 26.3629 19.1043C26.3593 19.1199 26.3546 19.1302 26.3541 19.141C26.3172 19.8704 26.0531 20.5275 25.6196 21.127C24.973 22.0217 24.0971 22.6739 23.1085 23.2044C23.0321 23.2454 22.9385 23.2586 22.8527 23.2846C23.2103 22.8968 23.4843 22.4744 23.6449 21.9904C23.8008 21.522 23.8549 20.7876 23.7515 20.5241C23.5882 21.036 23.4183 21.3695 23.0549 21.8051C22.4312 22.5522 21.7071 23.199 20.8676 23.7368C20.3047 24.0991 19.7152 24.3988 19.081 24.6266C17.9598 25.031 16.7903 25.2789 15.627 25.5468C14.605 25.782 13.5841 26.0259 12.57 26.2924C12.0164 26.4381 11.4847 26.6527 11.0246 26.992C10.9425 26.8199 10.7881 26.2117 10.7824 25.7287C10.7154 20.0347 15.5324 16.9912 17.0003 15.3983C17.4276 14.9343 17.6729 14.3657 17.8876 13.7907C17.9749 13.5575 18.0498 13.3208 18.1319 13.0788C18.1459 13.0959 18.1594 13.1077 18.1662 13.1199C18.5763 13.8606 18.8289 14.617 18.6314 15.4745C18.3299 16.7863 17.7691 17.9578 16.7113 18.8867C16.6998 18.897 16.6905 18.9102 16.6541 18.9493C16.7056 18.9244 16.7237 18.918 16.7409 18.9073C17.6105 18.4359 18.4053 17.8756 19.0774 17.1696C20.2075 15.9845 20.8141 14.5974 20.8978 13.0045C20.9341 12.3107 20.8328 11.6258 20.7501 10.9408C20.5308 9.1176 19.1148 7.64155 17.2124 7.20592C17.0694 7.17316 16.9244 7.12671 16.795 7.06266C16.6125 6.97124 16.5621 6.82162 16.6312 6.64072C16.6562 6.5757 16.6931 6.51263 16.7326 6.45396C17.0705 5.96015 17.4988 5.5519 18.0264 5.23557C18.2972 5.07374 18.568 4.91239 18.8289 4.73687C19.8992 4.01718 21.0511 3.45883 22.3241 3.13028C22.8496 2.99485 23.3808 2.87506 23.9329 2.92053C24.106 2.93373 24.2744 2.99387 24.4464 3.01293C24.5177 3.02173 24.5956 2.97431 24.671 2.9528C24.6284 2.90928 24.5946 2.84964 24.5421 2.82177C24.2099 2.64184 23.8424 2.58611 23.4661 2.57437C22.9125 2.55677 22.3735 2.65553 21.835 2.75869C21.7809 2.76896 21.7237 2.76896 21.6681 2.77337C22.1094 2.4145 22.61 2.18275 23.1521 2.02971C24.0436 1.77499 24.9548 1.71778 25.8774 1.79063C26.1727 1.8141 26.4721 1.82534 26.7445 1.97055C27.0117 2.11234 27.2923 2.23115 27.5689 2.35729C27.6287 2.38467 27.6952 2.39836 27.7591 2.4184C27.7685 2.40814 27.7778 2.39934 27.7877 2.38907C27.7586 2.31866 27.7347 2.24631 27.6978 2.17982C27.598 1.99598 27.4894 1.81655 27.389 1.63271C27.3708 1.598 27.3797 1.54813 27.3771 1.50559C27.4187 1.50364 27.4654 1.48897 27.5013 1.5007C27.7134 1.5672 27.9296 1.62587 28.1313 1.71485C28.4198 1.84393 28.7202 1.88793 29.0347 1.90797C29.463 1.93584 29.8924 1.97398 30.3181 2.03118C30.9429 2.11576 31.4191 2.4189 31.7278 2.94448C31.8001 3.0672 31.877 3.18748 31.9555 3.30727C31.9836 3.3498 32.022 3.38598 32.0558 3.4246C32.0709 3.41825 32.0875 3.41287 32.1026 3.40505C32.0054 3.09214 31.9082 2.77972 31.8058 2.4497C32.1296 2.51912 32.4664 2.72985 32.7336 3.02565C32.8688 3.1733 32.9894 3.33122 33.123 3.47888C33.1765 3.53755 33.2488 3.58057 33.3122 3.63142C33.3298 3.62213 33.348 3.6148 33.3662 3.60501C33.3402 3.39576 33.3137 3.18699 33.2888 2.97675C33.3018 2.97235 33.3158 2.96746 33.3298 2.96404C33.531 3.07943 33.7306 3.19824 33.9323 3.31362C34.6174 3.70182 35.2593 4.13892 35.7402 4.75496C35.8062 4.84003 35.8556 4.8278 35.8904 4.72464C35.9335 4.59508 35.9616 4.46112 36.0089 4.33253C36.0229 4.29342 36.0806 4.24012 36.1139 4.24208C36.1602 4.2455 36.2246 4.28853 36.2402 4.32813C36.2724 4.41125 36.2854 4.50267 36.2917 4.59312C36.3047 4.77402 36.3 4.9559 36.3203 5.13583C36.3265 5.19107 36.3889 5.24241 36.4263 5.29375C36.4757 5.25268 36.5433 5.22041 36.5692 5.16858C36.6457 5.02044 36.7023 4.8635 36.7735 4.71242C36.839 4.57259 36.878 4.57014 36.9731 4.68895C37.0979 4.8459 37.2382 4.97253 37.4732 4.95688C37.6915 4.94123 37.719 4.95639 37.8001 5.14756C37.9389 5.47367 38.0569 5.80614 38.1993 6.13029C38.2669 6.28479 38.3704 6.4256 38.452 6.57423C38.4722 6.60943 38.4899 6.65979 38.4795 6.6945C38.1905 7.57212 38.1105 8.47613 38.1011 9.38748C38.0923 10.2309 38.1099 11.0743 38.0793 11.9162C38.0559 12.5748 37.9384 13.2172 37.416 13.7247C37.4883 13.7032 37.5569 13.6787 37.6213 13.6474C37.9582 13.4832 38.2337 13.247 38.4748 12.9752C39.0082 12.3748 39.359 11.6795 39.6699 10.9603C39.9188 10.3844 40.1699 9.80893 40.4314 9.23787C40.4963 9.09608 40.6045 8.97092 40.7011 8.84233C40.7245 8.81202 40.7937 8.77731 40.8202 8.79002C40.8592 8.80616 40.8966 8.86092 40.9023 8.90247C40.9158 8.99537 40.9158 9.09315 40.9111 9.18604C40.8888 9.65688 40.8472 10.1272 40.9335 10.5966C40.946 10.6685 40.9678 10.7491 40.9486 10.8151C40.7609 11.459 40.5171 12.0809 40.0951 12.628C40.0821 12.6452 40.0737 12.6662 40.0467 12.7146C40.3477 12.5884 40.5499 12.4017 40.7136 12.1821C40.8774 11.9616 41.0208 11.7275 41.1825 11.484C41.2506 11.7451 41.3161 11.9964 41.3816 12.2477C41.4746 12.6129 41.3582 12.9116 41.0453 13.1263ZM41.3852 16.8993C40.6169 17.5818 39.7062 18.0634 38.7498 18.4721C37.455 19.0256 36.0993 19.4094 34.7167 19.7115C34.2223 19.8196 33.7249 19.913 33.1968 20.0195C33.4094 19.7717 33.5975 19.5497 33.7909 19.3302C33.8091 19.3091 33.8507 19.2999 33.8834 19.2955C34.7499 19.2109 35.5827 19.0001 36.3852 18.6863C38.2414 17.9617 39.8305 16.8665 41.2469 15.5386C41.2599 15.5264 41.2693 15.5107 41.2797 15.497C41.2313 15.5107 41.195 15.5332 41.1591 15.5567C39.9641 16.337 38.7347 17.0645 37.442 17.6942C36.6145 18.0952 35.7713 18.4643 34.8648 18.6824C34.6512 18.7337 34.4329 18.7679 34.1828 18.8158C34.2177 18.7601 34.2312 18.7396 34.2436 18.718C34.5285 18.2497 34.8419 17.7925 35.0894 17.3065C35.2443 17.0009 35.461 16.777 35.736 16.58C36.7652 15.8432 37.8994 15.2746 39.0565 14.7421C39.0669 14.7377 39.0799 14.7392 39.1173 14.7328C38.677 15.39 38.2524 16.0295 37.4935 16.3898C37.6899 16.3595 37.8849 16.3287 38.0725 16.2749C38.6547 16.1072 39.1443 15.7845 39.6044 15.4227C40.1668 14.9812 40.711 14.5163 41.2812 14.0811C41.5754 13.8562 41.8899 13.6391 42.2294 13.4837C42.5859 13.3218 42.982 13.2382 43.363 13.1272C43.4602 13.0969 43.5652 13.092 43.7082 13.0686C43.6614 13.2954 43.6417 13.4944 43.5777 13.6792C43.1432 14.9289 42.3978 15.9977 41.3852 16.8993ZM34.3767 26.5628C34.0955 26.7099 33.7966 26.8419 33.4899 26.9299C32.8615 27.1089 32.2071 27.1118 31.5558 27.1104C31.0942 27.1094 30.6326 27.1035 30.1715 27.1084C30.0561 27.1099 29.9418 27.1441 29.8269 27.1637C29.8264 27.1837 29.8253 27.2037 29.8248 27.2243C29.9241 27.26 30.0208 27.3035 30.1221 27.3309C30.4434 27.4169 30.7662 27.4942 31.0869 27.5783C31.1493 27.5954 31.207 27.6291 31.2678 27.6555C31.2657 27.6672 31.2636 27.679 31.2616 27.6907C31.22 27.7064 31.1784 27.7284 31.1342 27.7376C30.4896 27.8574 29.8477 28.0041 29.1974 28.0911C28.0965 28.2388 27.0049 28.4182 25.9388 28.7233C25.8483 28.7487 25.748 28.761 25.6545 28.7551C24.5764 28.6852 23.4988 28.6118 22.4202 28.538C21.1738 28.4524 19.9273 28.4412 18.6824 28.5649C17.268 28.7052 15.8999 29.0211 14.5754 29.5022C12.6724 30.194 10.9477 31.1806 9.32697 32.3359C9.29943 32.3555 9.27344 32.379 9.24641 32.4C9.29943 32.3902 9.34049 32.3697 9.37999 32.3472C10.8599 31.516 12.3865 30.7743 13.9995 30.1964C15.3665 29.707 16.7705 29.3535 18.2213 29.1726C19.2697 29.0421 20.3223 29.0123 21.3786 29.0186C22.5596 29.0245 23.7421 29.0186 24.9231 29.0181C24.9387 29.0181 24.9538 29.0201 24.9709 29.0216C24.9668 29.0304 24.9662 29.0357 24.9642 29.0372C24.9361 29.048 24.908 29.0597 24.8794 29.07C23.8237 29.4582 22.8226 29.9432 21.9088 30.5763C21.6328 30.769 21.3365 30.9132 21.0194 31.0251C20.7735 31.1127 20.5261 31.1982 20.275 31.2725C18.9864 31.6554 17.6526 31.8431 16.3266 32.0685C15.234 32.2538 14.1419 32.444 13.0586 32.6689C12.071 32.8738 11.1177 33.1881 10.2319 33.6619C8.71049 34.4745 7.81591 35.6909 7.57213 37.3244C7.53366 37.5811 7.51183 37.8412 7.48428 38.0715C7.43126 37.9786 7.37356 37.8661 7.30547 37.7586C6.72901 36.8467 6.32564 35.8757 6.19985 34.8153C6.0304 33.3822 6.46495 32.1462 7.56901 31.1308C7.61371 31.0892 7.6449 31.0335 7.67401 30.9782C7.83307 30.6751 7.96458 30.3568 8.14963 30.0698C8.6767 29.2557 9.42158 28.6426 10.2595 28.1244C11.3724 27.4375 12.5887 26.9578 13.844 26.5589C15.8235 25.9291 17.8606 25.5179 19.9081 25.1478C21.5756 24.8462 23.2467 24.5567 24.9137 24.2521C26.2143 24.0155 27.479 23.6801 28.6761 23.1252C30.1778 22.4299 31.5682 21.5948 32.7456 20.4659C32.7846 20.4278 32.8594 20.4073 32.9187 20.4053C33.7062 20.3843 34.4885 20.3149 35.2625 20.1775C37.4285 19.7912 39.4131 18.9977 41.2303 17.8267C41.2599 17.8087 41.2916 17.795 41.341 17.7666C41.3301 17.8277 41.3254 17.8644 41.3161 17.8996C41.1632 18.5366 40.9652 19.1615 40.7069 19.7673C39.4448 22.7326 37.3458 25.008 34.3767 26.5628ZM51.8031 42.0796C51.7506 42.5666 51.643 43.0492 51.5296 43.5283C51.3534 44.2651 50.8747 44.7526 50.0986 44.9731C49.7514 45.0718 49.3948 45.1109 49.033 45.1119C48.3225 45.1134 47.6265 45.0058 46.9388 44.846C46.3659 44.711 45.8129 44.5296 45.3159 44.2216C44.8424 43.9278 44.4895 43.5459 44.3527 43.0135C44.2685 42.6805 44.2924 42.3515 44.3501 42.018C44.373 41.8855 44.4338 41.8274 44.5633 41.7799C45.6949 41.3551 46.5983 40.6808 47.1404 39.6306C47.2127 39.4918 47.3156 39.4214 47.4731 39.4062C48.0142 39.35 48.5444 39.3686 49.0388 39.6155C49.3564 39.7739 49.6729 39.7558 49.9864 39.6125C50.1153 39.5534 50.2405 39.4801 50.3549 39.3984C50.4973 39.2962 50.6267 39.1774 50.7842 39.0474C50.7978 39.0689 50.8071 39.0884 50.8212 39.1041C51.6045 39.9636 51.9216 40.9644 51.8031 42.0796ZM43.4343 44.2544C43.5211 44.3077 43.599 44.3766 43.677 44.4441C44.3512 45.0352 45.1283 45.4644 45.9896 45.7685C46.7584 46.0399 47.5573 46.1616 48.3708 46.2027C48.9727 46.233 49.5788 46.2281 50.1641 46.078C50.5644 45.9754 50.9485 45.8204 51.3441 45.6981C51.4283 45.6722 51.5562 45.6541 51.6128 45.6952C51.709 45.7651 51.6367 45.8761 51.6014 45.969C51.5998 45.9729 51.5962 45.9763 51.5946 45.9793C51.3129 46.4843 50.9449 46.9209 50.4464 47.2524C49.5482 47.8494 48.5382 47.9672 47.4794 47.8533C47.3057 47.8347 47.1555 47.8646 47.0136 47.9403C46.9471 47.976 46.906 48.0533 46.853 48.1124C46.8629 48.1227 46.8722 48.1344 46.8816 48.1447C46.9195 48.1408 46.957 48.1344 46.9949 48.1339C47.1914 48.1281 47.3915 48.0997 47.5833 48.1237C48.2019 48.2009 48.4971 48.8429 48.1411 49.3162C48.0215 49.476 47.8661 49.5909 47.6452 49.565C47.4175 49.5367 47.3042 49.3778 47.2267 49.1934C47.208 49.1485 47.2007 49.0976 47.195 49.0482C47.1721 48.8619 47.1576 48.836 46.9538 48.8424C46.762 48.8478 46.5707 48.8756 46.38 48.903C46.1429 48.9343 45.9891 48.8522 45.9147 48.6366C45.8545 48.4625 45.8726 48.2865 45.9636 48.132C46.0619 47.9628 46.1866 47.8088 46.2942 47.6538C46.0062 47.5409 45.6897 47.4387 45.3955 47.295C44.2691 46.7459 43.506 45.9147 43.2185 44.733C43.1894 44.6176 43.1775 44.4954 43.1816 44.3766C43.1874 44.2074 43.2872 44.162 43.4343 44.2544ZM44.0216 42.7754C44.1064 43.0252 44.162 43.2785 44.2748 43.5058C44.5368 44.0319 45.0025 44.3732 45.5467 44.6098C46.8379 45.1682 48.1993 45.418 49.6173 45.3046C50.476 45.2361 51.1871 44.8988 51.5863 44.1263C51.5879 44.1233 51.5931 44.1214 51.6087 44.1096C51.8712 44.224 52.0177 44.4147 52.0531 44.6827C52.0853 44.9291 51.9736 45.1198 51.7532 45.2298C51.4683 45.3725 51.1777 45.5197 50.8711 45.6067C49.5757 45.9759 48.2658 45.967 46.957 45.6688C45.96 45.4419 45.0399 45.0572 44.2374 44.4475C43.9244 44.2099 43.6385 43.9478 43.4603 43.6007C43.4161 43.5146 43.375 43.411 43.3823 43.32C43.4051 43.036 43.7399 42.7739 44.0216 42.7754ZM2.88092 36.572C1.82936 34.8514 1.28201 33.0253 1.28149 32.7452C1.27837 31.8695 1.3501 30.9968 1.48993 30.1275C1.52216 29.9261 1.56478 29.7261 1.60169 29.5251C1.64119 29.5618 1.65419 29.599 1.66614 29.6371C1.82156 30.1226 1.95671 30.6149 2.13449 31.0931C3.06909 33.5988 4.49074 35.8464 6.25131 37.9111C6.31525 37.9864 6.37035 38.0754 6.40205 38.1668C6.78463 39.2752 7.33354 40.2809 8.03735 41.1923C7.24829 40.8759 6.34903 40.762 5.27824 39.6028C6.59386 41.9892 9.71059 42.9348 9.71059 42.9348C11.4452 44.3942 13.463 45.3588 15.6987 45.9362C15.8791 45.9827 16.0615 46.0199 16.244 46.0609C16.2039 46.0247 16.1592 46.0101 16.1145 45.9935C14.4512 45.4336 12.9178 44.6533 11.5299 43.6241C9.80259 42.3432 8.49685 40.7649 7.71611 38.819C7.63242 38.6098 7.59292 38.4147 7.67869 38.1986C7.7369 38.0519 7.76705 37.896 7.81539 37.7459C8.18237 36.6179 8.75675 35.6039 9.68044 34.7854C10.5641 34.0012 11.6261 33.5274 12.7779 33.2077C14.1575 32.8273 15.5828 32.687 17.0013 32.512C17.8242 32.4112 18.6429 32.289 19.4631 32.1712C19.6835 32.1404 19.9013 32.089 20.1357 32.0436C20.118 32.0709 20.1129 32.0832 20.104 32.093C19.4631 32.7691 18.9298 33.5118 18.5056 34.3263C18.4802 34.3767 18.4214 34.4266 18.3653 34.4432C17.9863 34.5556 17.61 34.6891 17.2212 34.7625C16.6447 34.8705 16.0553 34.9121 15.4788 35.0187C12.3876 35.5961 11.4348 37.1538 11.4488 37.1396C12.3876 36.2018 13.8898 35.9373 14.2864 35.8073C15.2116 35.5046 16.1702 35.4225 17.1417 35.4313C17.4255 35.4352 17.7088 35.4509 18.0009 35.4616C17.1297 38.138 17.2441 40.7468 18.4251 43.3024C18.4261 43.2545 18.4147 43.2081 18.4022 43.1621C17.9401 41.5115 17.753 39.8419 18.017 38.1424C18.3357 36.0786 19.2895 34.3205 20.8827 32.8718C22.0767 31.7864 23.4806 31.0051 24.987 30.3754C26.418 29.7769 27.9223 29.4068 29.4391 29.0626C30.5806 28.804 31.7268 28.5502 32.8537 28.2378C34.3632 27.8217 35.7298 27.1382 36.8941 26.1281C37.0745 25.9717 37.2564 25.8118 37.4051 25.6289C38.3859 24.435 39.582 23.5002 41.0536 22.891C41.1466 22.5981 41.3093 22.2891 41.5625 21.9664C41.9222 21.5137 42.3671 21.1406 42.8464 20.8057C42.982 20.7114 43.1624 20.6571 43.3313 20.6258C43.5153 20.5901 43.6261 20.6737 43.689 20.8414C43.7056 20.8888 43.717 20.9363 43.7269 20.9847C43.8251 21.0165 43.9229 21.0663 44.019 21.1367C44.085 21.1846 44.1485 21.2365 44.2067 21.2907C44.4775 21.5469 44.6672 21.852 44.8211 22.1791C44.8544 22.25 44.8991 22.2779 44.9765 22.2872C45.159 22.3097 45.3419 22.3336 45.5223 22.3664C48.4498 22.911 50.5815 25.0036 50.9532 28.0124C50.9865 28.2838 50.9844 28.5649 51.0707 28.8191C51.1809 29.1423 51.3638 29.4435 51.5156 29.7544C51.6492 30.0278 51.7958 30.2957 51.9112 30.5763C52.0297 30.8633 52.0448 31.1625 51.9522 31.4642C51.9205 31.5679 51.8561 31.5952 51.7703 31.5449C51.6497 31.4735 51.5411 31.384 51.4262 31.3033C51.2864 31.2051 51.1559 31.0926 51.0046 31.0149C50.8815 30.9508 50.7416 30.964 50.6314 31.0828C50.6569 31.1009 50.6782 31.1151 50.6969 31.1317C50.9984 31.3845 51.3009 31.6348 51.5977 31.8925C51.6331 31.9228 51.6586 31.9844 51.6554 32.0318C51.6289 32.4313 51.4881 32.7936 51.1861 33.0811C50.7978 33.4512 50.3409 33.6487 49.7732 33.5235C49.7587 33.7225 49.7441 33.7567 49.6225 33.8184C48.8329 34.2207 47.996 34.4579 47.0911 34.4417C46.4252 34.431 45.8248 34.6295 45.252 34.9306C45.0742 35.024 44.8835 35.1081 44.6875 35.157C44.0689 35.3115 43.4337 35.356 42.7954 35.3717C42.7429 35.3726 42.6915 35.3756 42.6395 35.378C42.6722 35.4127 42.705 35.4235 42.7377 35.4308C43.2471 35.5438 43.7633 35.5584 44.2836 35.5227C44.452 35.5115 44.6418 35.4773 44.7883 35.533C45.2177 35.6973 45.6341 35.8938 46.0473 36.0938C46.1632 36.15 46.2651 36.1769 46.3826 36.1358C46.6451 36.0434 46.9086 35.952 47.1644 35.8449C47.7081 35.6176 48.2648 35.4807 48.8651 35.5584C49.1937 35.6005 49.5139 35.6684 49.8003 35.8332C49.9858 35.9408 50.1324 36.0777 50.147 36.3006C50.1496 36.3319 50.1797 36.3666 50.2067 36.3901C50.2837 36.4571 50.3689 36.5172 50.4464 36.5837C50.6751 36.7822 50.7718 37.0286 50.7437 37.3195C50.7193 37.564 50.6423 37.6046 50.4162 37.4965C50.3071 37.4447 50.1932 37.4021 50.0789 37.4843C50.2239 37.5713 50.3658 37.6495 50.5015 37.7375C50.7047 37.8686 50.777 38.0573 50.7697 38.2846C50.7484 38.9173 49.9552 39.4771 49.2742 39.3358C49.0497 39.2894 48.849 39.2058 48.7264 39.0058C48.7102 38.9794 48.664 38.9515 48.6328 38.9535C48.455 38.9628 48.2736 38.9618 48.1021 38.998C47.7876 39.065 47.4762 39.1359 47.1524 39.0782C47.0032 39.0513 46.8561 39.0126 46.7017 38.9794C46.5811 39.3744 46.3826 39.7255 46.1175 40.0438C45.5015 40.7801 44.6917 41.2465 43.7576 41.5345C42.5464 41.9085 41.302 41.9496 40.0561 41.7814C38.255 41.5394 36.9783 40.6197 36.2896 39.0244C36.1191 38.6298 36.0312 38.204 35.9029 37.7918C35.6965 37.1288 35.421 36.4913 35.0551 35.8889C34.4661 34.9218 33.6932 34.1259 32.6343 33.6008C31.445 33.0111 30.1809 32.8933 28.8715 33.1124C28.623 33.1539 28.3787 33.214 28.1038 33.2722C28.5825 33.2991 29.0228 33.3084 29.4589 33.35C30.6737 33.4649 31.812 33.8081 32.8464 34.4241C34.0768 35.158 34.9968 36.1202 35.3815 37.4853C35.5868 38.2142 35.8753 38.9217 36.2355 39.5993C36.4752 40.0531 36.7403 40.4877 37.1104 40.8608C37.7253 41.4807 38.4977 41.8303 39.3491 42.0557C39.6111 42.1246 39.871 42.2009 40.1294 42.2791C40.2572 42.3182 40.3373 42.4033 40.3877 42.525C40.5301 42.8732 40.5712 43.2286 40.4943 43.5948C40.3752 44.1708 40.0758 44.6597 39.673 45.0968C39.3268 45.4737 38.8933 45.749 38.4598 46.0243C38.2487 46.1568 38.0439 46.301 37.8516 46.4569C37.6853 46.5899 37.5839 46.7728 37.5943 46.9816C37.6125 47.3546 37.6359 47.4138 38.0309 47.2901C38.0928 47.2705 38.1541 47.2475 38.2144 47.2226C38.5372 47.0921 38.8584 46.9591 39.1828 46.8315C39.8055 46.5865 40.4516 46.4961 41.1149 46.6462C41.8504 46.8114 42.3692 47.2177 42.6026 47.912C42.6504 48.0543 42.6618 48.2053 42.5807 48.3329C42.5418 48.396 42.4414 48.4581 42.3671 48.4601C42.3001 48.462 42.221 48.3901 42.1659 48.3339C42.1322 48.2987 42.1332 48.2332 42.1181 48.1814C42.0422 47.9134 41.918 47.6768 41.6383 47.5468C41.5853 47.5218 41.525 47.5155 41.4678 47.4993C41.8405 47.8631 42.0422 48.2748 42.0152 48.771C41.9949 49.148 41.681 49.3934 41.2771 49.3719C41.1596 49.3655 41.077 49.3137 41.064 49.2061C41.0479 49.0756 41.0541 48.9436 41.0515 48.8121C41.0468 48.6556 41.0593 48.4962 41.0359 48.3427C40.999 48.0909 40.8342 47.9271 40.5769 47.8494C40.4527 47.8122 40.3331 47.8323 40.2177 47.8875C40.3799 47.9188 40.5348 47.9648 40.6164 48.1075C40.6949 48.2444 40.775 48.3872 40.8145 48.5363C40.8992 48.858 40.8581 49.1685 40.5436 49.366C40.4023 49.4545 40.211 49.4912 40.0374 49.5137C39.6647 49.5626 39.307 49.4633 38.9468 49.3851C38.7306 49.3377 38.5065 49.3064 38.2861 49.3059C38.0777 49.3054 37.8672 49.347 37.6608 49.3817C36.4039 49.5948 35.1408 49.5044 33.8611 49.4902C32.4768 49.4741 31.0926 49.4819 29.7084 49.4809C27.2305 49.4809 24.7521 49.4799 22.2726 49.4799C21.2491 49.4799 20.2251 49.4897 19.2016 49.4834C17.7904 49.4751 16.3942 49.3254 15.0292 48.9886C9.82962 47.7096 5.93839 45.0621 3.37369 40.6241C2.24312 38.6665 1.59753 36.5724 1.37038 34.3738C1.34283 34.1195 2.89599 36.8389 2.88092 36.572Z" fill="#0D0D0D"/>
<path d="M43.5351 25.0399C43.099 24.1652 43.0938 23.7956 43.5761 22.9678C43.94 22.343 44.9068 22.8989 44.7758 22.2012C44.7207 21.5949 44.0455 20.929 43.9202 20.7843C43.7664 20.6127 43.6806 20.444 43.4535 20.4875C43.2455 20.5276 43.0485 20.622 42.8812 20.7388C42.2901 21.152 41.7423 21.6125 41.2984 22.1704C40.4963 23.1771 40.8269 23.7877 41.7662 24.5905C42.1638 24.9289 43.5818 25.1332 43.5351 25.0399Z" fill="#E65270"/>
<path opacity="0.2" d="M42.6642 21.7212C42.8955 21.4836 43.2557 21.2538 43.6315 21.0182C43.8312 20.894 43.237 22.4199 43.0639 22.8272C42.4963 24.1614 43.2401 24.9882 43.0353 24.886C42.5852 24.6611 41.9422 23.8754 41.8975 23.3899C41.8476 22.8643 42.2816 22.1148 42.6642 21.7212Z" fill="#2B2B2B"/>
<path d="M43.3536 24.9605C42.917 24.0863 42.9123 23.7167 43.3952 22.889C43.7585 22.2646 43.927 21.6354 43.796 20.9367C43.7814 20.859 43.7653 20.7798 43.7383 20.7045C43.6608 20.4947 43.5241 20.3921 43.2969 20.4361C43.089 20.4761 42.8655 20.5422 42.6992 20.6585C42.1082 21.0717 41.5603 21.5322 41.1164 22.0901C40.5009 22.8621 40.5685 23.3891 41.0348 23.9744C41.1684 24.1416 41.2505 24.1367 41.4225 24.167C41.645 24.2066 41.6902 23.9152 41.6196 23.7974C41.4569 23.5265 41.3498 23.2542 41.3295 23.04C41.2801 22.514 41.593 21.9429 41.9756 21.5493C42.3301 21.1846 43.0469 20.6184 43.5361 20.481C43.6541 20.9069 43.4025 21.7566 43.2429 22.1693C43.0485 22.6734 42.4601 23.593 42.6077 24.1924C42.6077 24.1924 42.8151 24.7469 43.035 24.8877C43.2548 25.0275 43.3536 24.9605 43.3536 24.9605Z" fill="#0D0D0D"/>
<g opacity="0.2">
<path d="M16.8544 35.054C16.7947 35.0569 16.7396 35.0511 16.6943 35.0281C16.751 35.0251 16.8045 35.0349 16.8544 35.054Z" fill="#8B4FBA"/>
</g>
<path opacity="0.2" d="M43.7249 42.38C44.2348 41.6515 44.8081 41.405 45.4558 40.8315C46.0718 40.2874 46.5448 39.6308 47.1582 39.0964C47.6385 39.1907 48.1785 39.1145 48.6713 39.1379C49.0237 39.9564 50.7349 39.1775 50.8914 38.6495L51.1185 38.9697C51.6118 39.8835 49.8424 39.9446 48.835 39.8498C48.1281 39.7838 45.0769 40.5382 45.1772 44.2398C44.8336 44.7361 44.0243 44.2515 44.0232 44.8984C44.0227 45.5604 44.0342 46.7279 44.6423 47.1494C44.4682 47.7268 43.8637 47.1161 43.6968 46.8849C43.3236 46.3671 42.7903 45.4504 42.6692 44.8368C42.4644 43.7885 43.1671 43.1764 43.7249 42.38Z" fill="#430A1D"/>
</g>
<path d="M70.3008 16.1172H87.4232V19.9939H75.0216V26.8306H86.7117V30.5663H75.0216V41.0685H70.3008V16.1172Z" fill="white"/>
<path d="M91.6191 14.4297H96.1152V41.0727H91.6191V14.4297Z" fill="white"/>
<path d="M101.022 18.4164C101.022 17.7352 101.291 17.1422 101.828 16.6368C102.365 16.1322 103.046 15.8789 103.87 15.8789C104.694 15.8789 105.388 16.1207 105.95 16.6015C106.513 17.0834 106.793 17.6884 106.793 18.4164C106.793 19.1452 106.513 19.7501 105.95 20.2316C105.388 20.7135 104.695 20.9539 103.87 20.9539C103.045 20.9539 102.365 20.7016 101.828 20.196C101.291 19.6911 101.022 19.0981 101.022 18.4164ZM101.66 24.1609H106.156V41.0771H101.66V24.1609Z" fill="white"/>
<path d="M111.627 24.1538H115.898V26.8672H115.973C116.372 26.0216 117.066 25.2761 118.053 24.6295C119.039 23.9834 120.207 23.6602 121.556 23.6602C122.73 23.6602 123.735 23.8542 124.572 24.2417C125.409 24.6295 126.095 25.1406 126.633 25.7747C127.17 26.4091 127.563 27.1376 127.813 27.9598C128.062 28.7825 128.188 29.6283 128.188 30.4973V41.07H123.692V31.696C123.692 31.2026 123.655 30.6856 123.58 30.1453C123.505 29.6051 123.342 29.1177 123.093 28.6828C122.843 28.2484 122.5 27.89 122.062 27.6079C121.625 27.3259 121.044 27.1849 120.321 27.1849C119.596 27.1849 118.971 27.3202 118.447 27.5899C117.923 27.8602 117.491 28.2066 117.155 28.63C116.817 29.0529 116.56 29.5408 116.387 30.0923C116.212 30.6447 116.124 31.2024 116.124 31.7663V41.07H111.629V24.1538H111.627Z" fill="white"/>
<path d="M133.508 14.4297H138.004V31.2754H138.116L144.935 24.1565H150.705L142.912 31.8041L151.193 41.0727H145.235L138.117 32.4031H138.005V41.0727H133.509V14.4297H133.508Z" fill="white"/>
<defs>
<linearGradient id="paint0_linear_1944_8040" x1="15.6185" y1="-8.72179" x2="2.45985" y2="56.5609" gradientUnits="userSpaceOnUse">
<stop offset="0.3836" stop-color="#FAA100"/>
<stop offset="0.6584" stop-color="#BF73F2"/>
<stop offset="0.6649" stop-color="#C370E6"/>
<stop offset="0.6852" stop-color="#CC68C7"/>
<stop offset="0.7081" stop-color="#D461AB"/>
<stop offset="0.7341" stop-color="#DB5B95"/>
<stop offset="0.7643" stop-color="#E05784"/>
<stop offset="0.8017" stop-color="#E35479"/>
<stop offset="0.8543" stop-color="#E55272"/>
<stop offset="1" stop-color="#E65270"/>
</linearGradient>
<linearGradient id="paint1_linear_1944_8040" x1="23.972" y1="-9.58979" x2="9.95569" y2="59.9488" gradientUnits="userSpaceOnUse">
<stop offset="0.3836" stop-color="#FAA100"/>
<stop offset="0.6584" stop-color="#BF73F2"/>
<stop offset="0.6649" stop-color="#C370E6"/>
<stop offset="0.6852" stop-color="#CC68C7"/>
<stop offset="0.7081" stop-color="#D461AB"/>
<stop offset="0.7341" stop-color="#DB5B95"/>
<stop offset="0.7643" stop-color="#E05784"/>
<stop offset="0.8017" stop-color="#E35479"/>
<stop offset="0.8543" stop-color="#E55272"/>
<stop offset="1" stop-color="#E65270"/>
</linearGradient>
<linearGradient id="paint2_linear_1944_8040" x1="26.5561" y1="-5.20018" x2="25.7261" y2="35.8457" gradientUnits="userSpaceOnUse">
<stop stop-color="#FAA7B5"/>
<stop offset="0.3836" stop-color="#FAA100"/>
<stop offset="0.7317" stop-color="#BF73F2"/>
</linearGradient>
<linearGradient id="paint3_linear_1944_8040" x1="14.9169" y1="-0.981213" x2="24.5155" y2="16.5986" gradientUnits="userSpaceOnUse">
<stop stop-color="#F6E8A0"/>
<stop offset="1" stop-color="#E65271"/>
</linearGradient>
<linearGradient id="paint4_linear_1944_8040" x1="16.7702" y1="9.2713" x2="25.0478" y2="24.4312" gradientUnits="userSpaceOnUse">
<stop stop-color="#F6E8A0"/>
<stop offset="1" stop-color="#E65271"/>
</linearGradient>
<linearGradient id="paint5_linear_1944_8040" x1="37.0684" y1="-1.60232" x2="36.1411" y2="15.6" gradientUnits="userSpaceOnUse">
<stop stop-color="#F6E8A0"/>
<stop offset="1" stop-color="#E65271"/>
</linearGradient>
<linearGradient id="paint6_linear_1944_8040" x1="36.0867" y1="15.5692" x2="30.7142" y2="-9.7373" gradientUnits="userSpaceOnUse">
<stop stop-color="#E65271"/>
<stop offset="0.3836" stop-color="#FAA100"/>
</linearGradient>
<linearGradient id="paint7_linear_1944_8040" x1="15.1326" y1="2.97709" x2="36.3267" y2="22.1712" gradientUnits="userSpaceOnUse">
<stop stop-color="#F6E8A0"/>
<stop offset="1" stop-color="#E65271"/>
</linearGradient>
<linearGradient id="paint8_linear_1944_8040" x1="35.2995" y1="15.4984" x2="13.7667" y2="21.7242" gradientUnits="userSpaceOnUse">
<stop stop-color="#FAA7B5"/>
<stop offset="0.3836" stop-color="#FAA100"/>
<stop offset="0.7317" stop-color="#BF73F2"/>
</linearGradient>
<linearGradient id="paint9_linear_1944_8040" x1="93.1294" y1="-8.38804" x2="-6.03089" y2="48.1364" gradientUnits="userSpaceOnUse">
<stop stop-color="#FAA7B5"/>
<stop offset="0.3836" stop-color="#FAA100"/>
<stop offset="0.7317" stop-color="#BF73F2"/>
</linearGradient>
<radialGradient id="paint10_radial_1944_8040" cx="0" cy="0" r="1" gradientUnits="userSpaceOnUse" gradientTransform="translate(36.4326 23.0688) rotate(-164.097) scale(3.68189 6.74365)">
<stop offset="0.0091" stop-color="white"/>
<stop offset="1" stop-color="white" stop-opacity="0"/>
</radialGradient>
<radialGradient id="paint11_radial_1944_8040" cx="0" cy="0" r="1" gradientUnits="userSpaceOnUse" gradientTransform="translate(16.7929 19.0249) rotate(180) scale(5.78427 5.44064)">
<stop offset="0.0091" stop-color="white"/>
<stop offset="1" stop-color="white" stop-opacity="0"/>
</radialGradient>
<radialGradient id="paint12_radial_1944_8040" cx="0" cy="0" r="1" gradientUnits="userSpaceOnUse" gradientTransform="translate(16.7886 19.0259) rotate(180) scale(5.78186 5.43837)">
<stop offset="0.0091" stop-color="white"/>
<stop offset="1" stop-color="white" stop-opacity="0"/>
</radialGradient>
<linearGradient id="paint13_linear_1944_8040" x1="51.1816" y1="35.9443" x2="46.0198" y2="48.3156" gradientUnits="userSpaceOnUse">
<stop offset="0.0041" stop-color="#FAA7B5"/>
<stop offset="0.3836" stop-color="#FAA100"/>
</linearGradient>
<linearGradient id="paint14_linear_1944_8040" x1="13.0609" y1="0.900741" x2="8.9013" y2="34.5089" gradientUnits="userSpaceOnUse">
<stop stop-color="#FAA7B5"/>
<stop offset="0.3836" stop-color="#FAA100"/>
<stop offset="0.7317" stop-color="#BF73F2"/>
</linearGradient>
<linearGradient id="paint15_linear_1944_8040" x1="9.14586" y1="0.413001" x2="4.98627" y2="34.021" gradientUnits="userSpaceOnUse">
<stop stop-color="#FAA7B5"/>
<stop offset="0.3836" stop-color="#FAA100"/>
<stop offset="0.7317" stop-color="#BF73F2"/>
</linearGradient>
<linearGradient id="paint16_linear_1944_8040" x1="2.25275" y1="14.7204" x2="4.11894" y2="38.0799" gradientUnits="userSpaceOnUse">
<stop stop-color="#FAA7B5"/>
<stop offset="0.3836" stop-color="#FAA100"/>
<stop offset="0.7317" stop-color="#BF73F2"/>
</linearGradient>
<linearGradient id="paint17_linear_1944_8040" x1="39.7843" y1="-4.93617" x2="38.9544" y2="36.1133" gradientUnits="userSpaceOnUse">
<stop stop-color="#FAA7B5"/>
<stop offset="0.3836" stop-color="#FAA100"/>
<stop offset="0.7317" stop-color="#BF73F2"/>
</linearGradient>
<linearGradient id="paint18_linear_1944_8040" x1="48.6211" y1="26.4651" x2="46.5004" y2="30.1855" gradientUnits="userSpaceOnUse">
<stop stop-color="#FAA7B5"/>
<stop offset="0.3836" stop-color="#FAA100"/>
<stop offset="0.7317" stop-color="#BF73F2"/>
</linearGradient>
<clipPath id="clip0_1944_8040">
<rect width="52.45" height="49.8259" fill="white" transform="matrix(1 0 0 -1 0.300781 50.2539)"/>
</clipPath>
<clipPath id="clip1_1944_8040">
<rect width="0.627504" height="0.688596" fill="white" transform="matrix(-1 0 0 -1 47.1377 28.1914)"/>
</clipPath>
</defs>
</svg>
