<svg width="99" height="32" viewBox="0 0 99 32" fill="none" xmlns="http://www.w3.org/2000/svg">
<path d="M15.46 0.644616C18.4929 0.664958 21.4518 1.58289 23.9636 3.28266C26.4755 4.98243 28.4278 7.38791 29.5744 10.1958C30.7209 13.0036 31.0104 16.0881 30.4063 19.0603C29.8021 22.0324 28.3314 24.7591 26.1797 26.8965C24.0279 29.034 21.2914 30.4864 18.3153 31.0706C15.3392 31.6549 12.2567 31.3448 9.45659 30.1795C6.65646 29.0142 4.26408 27.0459 2.58114 24.5227C0.898201 21.9995 6.82179e-05 19.0345 0 16.0016C0.0137683 11.9151 1.65029 8.00134 4.54958 5.12137C7.44887 2.24139 11.3734 0.631067 15.46 0.644616Z" fill="#2B61D1"/>
<path d="M17.292 24.9154L15.5311 25.9324L11.748 23.7514L13.466 22.7594L13.509 22.7344L13.5751 22.7724L17.292 24.9154Z" fill="white"/>
<path d="M24.0517 11.1768V13.2238L20.3277 11.0738L19.3177 10.4908L18.3077 11.0738L13.5747 13.8078L12.5647 14.3908V15.5978L10.7437 14.5468L9.73374 13.9638L8.72374 14.5468L7.01074 15.5348V11.1768L15.5307 6.25781L24.0517 11.1768Z" fill="white"/>
<path d="M24.052 15.5543V21.0243L19.319 23.7543H19.313L14.585 21.0243V15.5543L19.319 12.8203L24.052 15.5543Z" fill="white"/>
<path d="M12.4557 17.864V21.007L9.73274 22.58L7.01074 21.008V17.865L9.73374 16.293L12.4557 17.864Z" fill="white"/>
<path d="M42.8531 9.96782V15.2398H52.4891V18.9398H42.8531V26.2078H38.0352V6.25781H53.7672V9.96782H42.8531Z" fill="white"/>
<path d="M55.8779 6.25781H60.5159V26.2058H55.8779V6.25781Z" fill="white"/>
<path d="M80.2509 10.2031V26.2031H75.851V24.3001C75.2265 24.994 74.4594 25.5445 73.6022 25.9141C72.7451 26.2836 71.8181 26.4634 70.8849 26.4411C66.8699 26.4411 64.0439 24.1811 64.0439 19.2411V10.2031H68.6839V18.5631C68.6839 21.2401 69.873 22.4301 71.925 22.4301C74.066 22.4301 75.6119 21.0621 75.6119 18.1161V10.2031H80.2509Z" fill="white"/>
<path d="M93.6373 26.2051L90.1284 21.2961L86.5053 26.2051H81.4434L87.5983 18.1431L81.6533 10.2031H86.8533L90.2534 14.8731L93.7333 10.2031H98.6703L92.7213 18.0241L98.9013 26.2051H93.6373Z" fill="white"/>
</svg>
