<svg width="179" height="30" viewBox="0 0 179 30" fill="none" xmlns="http://www.w3.org/2000/svg">
<path d="M13.22 2.37214C15.8135 2.38954 18.3437 3.17447 20.4916 4.62797C22.6396 6.08146 24.309 8.13842 25.2894 10.5395C26.2699 12.9405 26.5174 15.5781 26.0008 18.1196C25.4842 20.6611 24.2266 22.9928 22.3866 24.8205C20.5466 26.6482 18.2066 27.8902 15.6617 28.3898C13.1168 28.8894 10.4809 28.6243 8.08645 27.6278C5.69203 26.6314 3.64627 24.9482 2.20717 22.7906C0.768064 20.633 5.8334e-05 18.0976 0 15.5041C0.0117735 12.0096 1.41119 8.66297 3.89041 6.20027C6.36963 3.73757 9.72558 2.36056 13.22 2.37214Z" fill="url(#paint0_linear_356_145111)"/>
<path d="M14.7866 23.1287L13.2808 23.9983L10.0459 22.1333L11.515 21.2851L11.5518 21.2637L11.6082 21.2962L14.7866 23.1287Z" fill="white"/>
<path d="M20.5671 11.3796V13.1301L17.3827 11.2916L16.519 10.793L15.6553 11.2916L11.6081 13.6294L10.7444 14.128V15.1601L9.18726 14.2614L8.32359 13.7628L7.45993 14.2614L5.99512 15.1062V11.3796L13.2807 7.17334L20.5671 11.3796Z" fill="white"/>
<path d="M20.567 15.1216V19.799L16.5198 22.1335H16.5147L12.4717 19.799V15.1216L16.5198 12.7837L20.567 15.1216Z" fill="white"/>
<path d="M10.6512 17.0983V19.7859L8.32274 21.131L5.99512 19.7867V17.0991L8.32359 15.7549L10.6512 17.0983Z" fill="white"/>
<path d="M36.6443 10.3458V14.854H44.8842V18.0179H36.6443V24.2328H32.5244V7.17334H45.977V10.3458H36.6443Z" fill="white"/>
<path d="M47.7822 7.17334H51.7482V24.2311H47.7822V7.17334Z" fill="white"/>
<path d="M68.6235 10.5479V24.2297H64.861V22.6024C64.327 23.1957 63.671 23.6665 62.9381 23.9825C62.2051 24.2985 61.4124 24.4522 60.6145 24.4332C57.1812 24.4332 54.7646 22.5006 54.7646 18.2764V10.5479H58.7324V17.6966C58.7324 19.9857 59.7491 21.0033 61.5038 21.0033C63.3346 21.0033 64.6566 19.8335 64.6566 17.3144V10.5479H68.6235Z" fill="white"/>
<path d="M80.0708 24.2314L77.0702 20.0336L73.9721 24.2314H69.6436L74.9067 17.3375L69.8231 10.5479H74.2697L77.1771 14.5412L80.1529 10.5479H84.3746L79.2875 17.2357L84.5721 24.2314H80.0708Z" fill="white"/>
<path d="M93.9494 6.7841C96.1137 6.7841 97.8107 7.30058 99.0404 8.33353C100.27 9.35009 100.885 10.7684 100.885 12.5883C100.885 14.3919 100.27 15.8102 99.0404 16.8431C97.8107 17.8597 96.1137 18.3679 93.9494 18.3679H89.0306V24H87.7762V6.7841H93.9494ZM93.9494 17.2366C95.7857 17.2366 97.1876 16.8349 98.155 16.0315C99.1223 15.2281 99.606 14.0804 99.606 12.5883C99.606 11.0963 99.1223 9.94855 98.155 9.14514C97.1876 8.32533 95.7857 7.91543 93.9494 7.91543H89.0306V17.2366H93.9494ZM107.209 24.0984C105.996 24.0984 104.897 23.8196 103.914 23.2622C102.946 22.7047 102.184 21.9341 101.626 20.9503C101.069 19.9502 100.79 18.827 100.79 17.5809C100.79 16.3348 101.069 15.2199 101.626 14.2361C102.184 13.236 102.946 12.4572 103.914 11.8997C104.897 11.3422 105.996 11.0635 107.209 11.0635C108.423 11.0635 109.513 11.3422 110.48 11.8997C111.464 12.4572 112.235 13.236 112.792 14.2361C113.35 15.2199 113.628 16.3348 113.628 17.5809C113.628 18.827 113.35 19.9502 112.792 20.9503C112.235 21.9341 111.464 22.7047 110.48 23.2622C109.513 23.8196 108.423 24.0984 107.209 24.0984ZM107.209 22.9916C108.193 22.9916 109.07 22.7621 109.841 22.303C110.628 21.8439 111.243 21.2045 111.685 20.3847C112.144 19.5649 112.374 18.6303 112.374 17.5809C112.374 16.5316 112.144 15.597 111.685 14.7772C111.243 13.9574 110.628 13.3179 109.841 12.8589C109.07 12.3998 108.193 12.1702 107.209 12.1702C106.226 12.1702 105.34 12.3998 104.553 12.8589C103.782 13.3179 103.168 13.9574 102.709 14.7772C102.266 15.597 102.045 16.5316 102.045 17.5809C102.045 18.6303 102.266 19.5649 102.709 20.3847C103.168 21.2045 103.782 21.8439 104.553 22.303C105.34 22.7621 106.226 22.9916 107.209 22.9916ZM121.468 24.123C119.287 24.123 117.59 23.4917 116.377 22.2292C115.18 20.9667 114.581 19.1222 114.581 16.6955V6.7841H115.836V16.6464C115.836 18.7614 116.319 20.3437 117.287 21.393C118.254 22.4424 119.656 22.967 121.492 22.967C123.312 22.967 124.706 22.4424 125.673 21.393C126.641 20.3437 127.124 18.7614 127.124 16.6464V6.7841H128.379V16.6955C128.379 19.1222 127.772 20.9667 126.559 22.2292C125.345 23.4917 123.648 24.123 121.468 24.123ZM154.792 6.7841L148.963 24H147.635L142.298 8.55488L136.937 24H135.609L129.755 6.7841H131.083L136.322 22.2784L141.708 6.7841H142.913L148.275 22.303L153.562 6.7841H154.792Z" fill="url(#paint1_linear_356_145111)"/>
<defs>
<linearGradient id="paint0_linear_356_145111" x1="-5.54908" y1="15.504" x2="26.2379" y2="16.3377" gradientUnits="userSpaceOnUse">
<stop stop-color="#D2EEFF"/>
<stop offset="0.234375" stop-color="#5CBDFF"/>
<stop offset="0.510417" stop-color="#528EFC"/>
<stop offset="0.723958" stop-color="#8B94F3"/>
<stop offset="1" stop-color="#A08FCE"/>
</linearGradient>
<linearGradient id="paint1_linear_356_145111" x1="36.9182" y1="15.0001" x2="177.373" y2="29.3902" gradientUnits="userSpaceOnUse">
<stop stop-color="#D2EEFF"/>
<stop offset="0.234375" stop-color="#5CBDFF"/>
<stop offset="0.510417" stop-color="#528EFC"/>
<stop offset="0.723958" stop-color="#8B94F3"/>
<stop offset="1" stop-color="#A08FCE"/>
</linearGradient>
</defs>
</svg>
