<svg width="167" height="37" viewBox="0 0 167 37" fill="none" xmlns="http://www.w3.org/2000/svg">
<path d="M16.2233 3.29403C19.249 3.31432 22.2009 4.23008 24.7068 5.92583C27.2127 7.62157 29.1604 10.0214 30.3043 12.8226C31.4481 15.6238 31.7369 18.701 31.1342 21.6661C30.5315 24.6312 29.0643 27.3514 26.9176 29.4838C24.771 31.6162 22.0409 33.0651 19.0719 33.648C16.1028 34.2309 13.0276 33.9215 10.2341 32.759C7.44062 31.5964 5.05391 29.6328 3.37495 27.1156C1.696 24.5984 0.799995 21.6404 0.799927 18.6147C0.813662 14.5378 2.44631 10.6333 5.33873 7.76018C8.23116 4.88703 12.1464 3.28051 16.2233 3.29403Z" fill="url(#paint0_linear_1823_569769)"/>
<path d="M18.0511 27.5103L16.2943 28.5249L12.5203 26.3491L14.2342 25.3594L14.2771 25.3345L14.3429 25.3724L18.0511 27.5103Z" fill="white"/>
<path d="M24.7942 13.8029V15.845L21.079 13.7001L20.0714 13.1185L19.0638 13.7001L14.342 16.4276L13.3344 17.0092V18.2134L11.5177 17.1649L10.5101 16.5833L9.50252 17.1649L7.79358 18.1505V13.8029L16.2934 8.89551L24.7942 13.8029Z" fill="white"/>
<path d="M24.7949 18.1684V23.6255L20.0731 26.349H20.0671L15.3503 23.6255V18.1684L20.0731 15.4409L24.7949 18.1684Z" fill="white"/>
<path d="M13.2257 20.475V23.6105L10.5091 25.1798L7.79358 23.6116V20.476L10.5101 18.9077L13.2257 20.475Z" fill="white"/>
<path d="M43.5513 12.5967V17.8562H53.1645V21.5475H43.5513V28.7983H38.7448V8.89551H54.4395V12.5967H43.5513Z" fill="white"/>
<path d="M56.5455 8.89551H61.1725V28.7963H56.5455V8.89551Z" fill="white"/>
<path d="M80.8597 12.832V28.7941H76.4701V26.8956C75.8471 27.5878 75.0818 28.1371 74.2267 28.5058C73.3716 28.8744 72.4468 29.0538 71.5158 29.0316C67.5104 29.0316 64.691 26.7769 64.691 21.8486V12.832H69.32V21.1722C69.32 23.8429 70.5062 25.0301 72.5534 25.0301C74.6893 25.0301 76.2316 23.6653 76.2316 20.7263V12.832H80.8597Z" fill="white"/>
<path d="M94.2155 28.7961L90.7148 23.8988L87.1004 28.7961H82.0504L88.1908 20.7532L82.2599 12.832H87.4476L90.8396 17.491L94.3113 12.832H99.2366L93.3017 20.6345L99.467 28.7961H94.2155Z" fill="white"/>
<path d="M117.118 27.2065V28.5264H103.259V8.44115H116.688V9.76104H104.723V17.6804H115.425V18.9715H104.723V27.2065H117.118ZM132.187 7.23604V28.5264H130.781V24.9971C130.188 26.164 129.356 27.063 128.284 27.6943C127.213 28.3255 125.999 28.6411 124.64 28.6411C123.244 28.6411 121.981 28.316 120.853 27.6656C119.724 27.0152 118.835 26.1161 118.184 24.9684C117.553 23.8207 117.238 22.5104 117.238 21.0375C117.238 19.5645 117.553 18.2542 118.184 17.1065C118.835 15.9396 119.724 15.0406 120.853 14.4093C121.981 13.759 123.244 13.4338 124.64 13.4338C125.979 13.4338 127.175 13.7494 128.227 14.3806C129.298 15.0119 130.14 15.8918 130.752 17.0204V7.23604H132.187ZM124.726 27.3499C125.874 27.3499 126.898 27.0821 127.797 26.5465C128.715 26.0109 129.432 25.2649 129.949 24.3085C130.484 23.352 130.752 22.2617 130.752 21.0375C130.752 19.8132 130.484 18.7229 129.949 17.7664C129.432 16.81 128.715 16.064 127.797 15.5284C126.898 14.9928 125.874 14.725 124.726 14.725C123.579 14.725 122.546 14.9928 121.628 15.5284C120.729 16.064 120.011 16.81 119.476 17.7664C118.959 18.7229 118.701 19.8132 118.701 21.0375C118.701 22.2617 118.959 23.352 119.476 24.3085C120.011 25.2649 120.729 26.0109 121.628 26.5465C122.546 27.0821 123.579 27.3499 124.726 27.3499ZM148.852 13.5485V26.9196C148.852 29.4063 148.249 31.2427 147.044 32.4286C145.839 33.6146 144.022 34.2076 141.592 34.2076C140.215 34.2076 138.914 33.9972 137.69 33.5764C136.466 33.1555 135.481 32.5721 134.735 31.8261L135.509 30.7357C136.255 31.4244 137.155 31.96 138.207 32.3426C139.259 32.7251 140.378 32.9164 141.564 32.9164C143.553 32.9164 145.026 32.4382 145.982 31.4818C146.939 30.5445 147.417 29.0811 147.417 27.0917V24.5667C146.805 25.6571 145.954 26.4987 144.863 27.0917C143.773 27.6847 142.549 27.9812 141.191 27.9812C139.794 27.9812 138.522 27.6751 137.375 27.063C136.246 26.4318 135.356 25.5614 134.706 24.4519C134.056 23.3425 133.73 22.0895 133.73 20.6931C133.73 19.2967 134.056 18.0438 134.706 16.9343C135.356 15.8249 136.246 14.9641 137.375 14.3519C138.522 13.7398 139.794 13.4338 141.191 13.4338C142.568 13.4338 143.811 13.7398 144.921 14.3519C146.03 14.9641 146.882 15.8249 147.475 16.9343V13.5485H148.852ZM141.305 26.69C142.472 26.69 143.524 26.4413 144.462 25.944C145.399 25.4275 146.126 24.7197 146.642 23.8207C147.178 22.9025 147.446 21.86 147.446 20.6931C147.446 19.5263 147.178 18.4933 146.642 17.5943C146.126 16.6952 145.399 15.997 144.462 15.4997C143.524 14.9832 142.472 14.725 141.305 14.725C140.139 14.725 139.087 14.9832 138.149 15.4997C137.231 15.997 136.504 16.6952 135.969 17.5943C135.452 18.4933 135.194 19.5263 135.194 20.6931C135.194 21.86 135.452 22.9025 135.969 23.8207C136.504 24.7197 137.231 25.4275 138.149 25.944C139.087 26.4413 140.139 26.69 141.305 26.69ZM164.709 21.3818H151.826C151.864 22.5486 152.16 23.5911 152.715 24.5093C153.27 25.4084 154.016 26.1066 154.953 26.6039C155.91 27.1013 156.981 27.3499 158.167 27.3499C159.142 27.3499 160.041 27.1778 160.864 26.8335C161.706 26.47 162.404 25.944 162.959 25.2553L163.791 26.2022C163.14 26.9865 162.318 27.5891 161.323 28.0099C160.347 28.4307 159.286 28.6411 158.138 28.6411C156.646 28.6411 155.317 28.316 154.15 27.6656C152.983 27.0152 152.065 26.1161 151.395 24.9684C150.745 23.8207 150.42 22.5104 150.42 21.0375C150.42 19.5837 150.726 18.2829 151.338 17.1352C151.969 15.9683 152.83 15.0597 153.92 14.4093C155.011 13.759 156.235 13.4338 157.593 13.4338C158.951 13.4338 160.166 13.759 161.237 14.4093C162.327 15.0406 163.178 15.9301 163.791 17.0778C164.422 18.2255 164.737 19.5263 164.737 20.9801L164.709 21.3818ZM157.593 14.6963C156.541 14.6963 155.594 14.9354 154.752 15.4136C153.911 15.8727 153.232 16.5326 152.715 17.3934C152.218 18.2351 151.931 19.1915 151.854 20.2627H163.332C163.274 19.1915 162.987 18.2351 162.471 17.3934C161.954 16.5518 161.275 15.8918 160.434 15.4136C159.592 14.9354 158.645 14.6963 157.593 14.6963Z" fill="url(#paint1_linear_1823_569769)"/>
<defs>
<linearGradient id="paint0_linear_1823_569769" x1="-5.67399" y1="18.6145" x2="31.4108" y2="19.5872" gradientUnits="userSpaceOnUse">
<stop stop-color="#D2EEFF"/>
<stop offset="0.234375" stop-color="#5CBDFF"/>
<stop offset="0.510417" stop-color="#528EFC"/>
<stop offset="0.723958" stop-color="#8B94F3"/>
<stop offset="1" stop-color="#A08FCE"/>
</linearGradient>
<linearGradient id="paint1_linear_1823_569769" x1="85.6031" y1="18.5264" x2="166.555" y2="22.478" gradientUnits="userSpaceOnUse">
<stop stop-color="#D2EEFF"/>
<stop offset="0.234375" stop-color="#5CBDFF"/>
<stop offset="0.510417" stop-color="#528EFC"/>
<stop offset="0.723958" stop-color="#8B94F3"/>
<stop offset="1" stop-color="#A08FCE"/>
</linearGradient>
</defs>
</svg>
