<svg width="24" height="25" viewBox="0 0 24 25" fill="none" xmlns="http://www.w3.org/2000/svg">
<g id="Logo">
<path id="Vector" d="M23.7633 12.5712C23.7633 11.7554 23.6972 10.9353 23.5561 10.1328H12.2373V14.7538H18.719C18.4501 16.2441 17.5858 17.5625 16.3204 18.4003V21.3987H20.1873C22.4582 19.3086 23.7633 16.2221 23.7633 12.5712Z" fill="white"/>
<path id="Vector_2" d="M12.2372 24.2982C15.4736 24.2982 18.203 23.2355 20.1916 21.4013L16.3246 18.4029C15.2487 19.1349 13.8598 19.5493 12.2416 19.5493C9.11096 19.5493 6.45653 17.4373 5.50412 14.5977H1.51367V17.6886C3.55078 21.7408 7.69997 24.2982 12.2372 24.2982Z" fill="white"/>
<path id="Vector_3" d="M5.49984 14.5956C4.99718 13.1053 4.99718 11.4915 5.49984 10.0011V6.91016H1.51381C-0.188196 10.3009 -0.188196 14.2958 1.51381 17.6866L5.49984 14.5956Z" fill="white"/>
<path id="Vector_4" d="M12.2372 5.04654C13.948 5.02008 15.6015 5.66384 16.8405 6.84554L20.2666 3.41949C18.0972 1.38238 15.2179 0.262409 12.2372 0.297684C7.69997 0.297684 3.55078 2.8551 1.51367 6.91168L5.49971 10.0026C6.44772 7.15861 9.10654 5.04654 12.2372 5.04654Z" fill="white"/>
</g>
</svg>
