<svg width="192" height="51" viewBox="0 0 192 51" fill="none" xmlns="http://www.w3.org/2000/svg">
<mask id="mask0_1944_7964" style="mask-type:alpha" maskUnits="userSpaceOnUse" x="0" y="0" width="58" height="51">
<rect x="0.130859" y="0.339844" width="56.9444" height="50" fill="#D9D9D9"/>
</mask>
<g mask="url(#mask0_1944_7964)">
<path d="M19.2812 17.9915L20.3069 43.558L38.7691 19.9825C39.3574 19.2434 40.4283 19.1077 41.1674 19.711L52.6912 28.9572L48.9354 12.5312L19.2812 17.9915Z" fill="#4279F4"/>
<path d="M20.9414 48.2494H37.3221L27.2765 40.1797L20.9414 48.2494Z" fill="#0028AA"/>
<path d="M40.384 23.4336L29.373 37.4914L41.108 46.9035L52.2396 32.9362L40.384 23.4336Z" fill="#014BD1"/>
<path d="M16.19 15.5167L25.8736 3.35938L10.2471 10.886L6.38574 27.7946L16.19 15.5167Z" fill="#BEDCFF"/>
<path d="M6.6123 32.98L16.9898 45.997L15.9942 21.2148L6.6123 32.98Z" fill="#6CA1FF"/>
<path d="M45.9355 9.6167L31.0028 2.42188L21.6963 14.0814L45.9355 9.6167Z" fill="#A1C3FF"/>
</g>
<path d="M80.9241 36.3398H76.1116L70.8753 27.918L69.0843 29.2031V36.3398H64.846V16.3516H69.0843V25.498L70.7523 23.1465L76.1663 16.3516H80.8695L73.8968 25.1973L80.9241 36.3398ZM93.3798 36.3398L92.8192 34.3848H92.6005C92.1539 35.0957 91.5204 35.6471 90.7001 36.0391C89.8798 36.4219 88.9455 36.6133 87.8973 36.6133C86.1018 36.6133 84.7483 36.1348 83.8368 35.1777C82.9253 34.2116 82.4696 32.8262 82.4696 31.0215V21.0547H86.6395V29.9824C86.6395 31.0853 86.8355 31.9147 87.2274 32.4707C87.6193 33.0176 88.2437 33.291 89.1005 33.291C90.2671 33.291 91.1102 32.9036 91.6298 32.1289C92.1493 31.3451 92.4091 30.0508 92.4091 28.2461V21.0547H96.579V36.3398H93.3798ZM108.898 20.7676C110.703 20.7676 112.115 21.474 113.136 22.8867C114.157 24.2904 114.667 26.2181 114.667 28.6699C114.667 31.1947 114.139 33.1497 113.081 34.5352C112.033 35.9206 110.602 36.6133 108.789 36.6133C106.993 36.6133 105.585 35.9616 104.564 34.6582H104.277L103.58 36.3398H100.394V15.0664H104.564V20.0156C104.564 20.6445 104.509 21.6517 104.4 23.0371H104.564C105.539 21.5241 106.984 20.7676 108.898 20.7676ZM107.558 24.1035C106.528 24.1035 105.776 24.4225 105.302 25.0605C104.828 25.6895 104.582 26.7331 104.564 28.1914V28.6426C104.564 30.2832 104.805 31.459 105.289 32.1699C105.781 32.8809 106.555 33.2363 107.613 33.2363C108.47 33.2363 109.149 32.8444 109.65 32.0605C110.16 31.2676 110.415 30.1191 110.415 28.6152C110.415 27.1113 110.16 25.9857 109.65 25.2383C109.139 24.4818 108.442 24.1035 107.558 24.1035ZM123.883 23.7344C122.999 23.7344 122.306 24.0169 121.805 24.582C121.303 25.138 121.016 25.931 120.943 26.9609H126.795C126.777 25.931 126.508 25.138 125.988 24.582C125.469 24.0169 124.767 23.7344 123.883 23.7344ZM124.471 36.6133C122.01 36.6133 120.087 35.9342 118.701 34.5762C117.316 33.2181 116.623 31.2949 116.623 28.8066C116.623 26.2454 117.261 24.2676 118.537 22.873C119.822 21.4694 121.595 20.7676 123.855 20.7676C126.016 20.7676 127.697 21.3828 128.9 22.6133C130.104 23.8438 130.705 25.5436 130.705 27.7129V29.7363H120.848C120.893 30.9212 121.244 31.8464 121.9 32.5117C122.557 33.1771 123.477 33.5098 124.662 33.5098C125.583 33.5098 126.453 33.4141 127.273 33.2227C128.094 33.0312 128.951 32.7259 129.844 32.3066V35.5332C129.115 35.8978 128.335 36.1667 127.506 36.3398C126.676 36.5221 125.665 36.6133 124.471 36.6133ZM141.985 24.1855H138.376V36.3398H134.206V24.1855H131.909V22.1758L134.206 21.0547V19.9336C134.206 18.1927 134.634 16.9212 135.491 16.1191C136.348 15.3171 137.719 14.916 139.606 14.916C141.046 14.916 142.327 15.1302 143.448 15.5586L142.381 18.6211C141.543 18.3568 140.768 18.2246 140.057 18.2246C139.465 18.2246 139.036 18.4023 138.772 18.7578C138.508 19.1042 138.376 19.5508 138.376 20.0977V21.0547H141.985V24.1855ZM148.547 36.3398H144.378V15.0664H148.547V36.3398ZM155.685 28.6699C155.685 30.1829 155.931 31.3268 156.423 32.1016C156.924 32.8763 157.735 33.2637 158.857 33.2637C159.969 33.2637 160.766 32.8809 161.249 32.1152C161.741 31.3405 161.987 30.1921 161.987 28.6699C161.987 27.1569 161.741 26.0221 161.249 25.2656C160.757 24.5091 159.95 24.1309 158.829 24.1309C157.717 24.1309 156.915 24.5091 156.423 25.2656C155.931 26.013 155.685 27.1478 155.685 28.6699ZM166.253 28.6699C166.253 31.1582 165.597 33.1042 164.284 34.5078C162.972 35.9115 161.144 36.6133 158.802 36.6133C157.334 36.6133 156.04 36.2943 154.919 35.6562C153.798 35.0091 152.937 34.084 152.335 32.8809C151.734 31.6777 151.433 30.2741 151.433 28.6699C151.433 26.1725 152.084 24.2311 153.388 22.8457C154.691 21.4603 156.523 20.7676 158.884 20.7676C160.351 20.7676 161.646 21.0866 162.767 21.7246C163.888 22.3626 164.749 23.2786 165.351 24.4727C165.952 25.6667 166.253 27.0658 166.253 28.6699ZM181.703 36.3398L180.527 30.9941L178.941 24.2402H178.845L176.056 36.3398H171.572L167.224 21.0547H171.381L173.144 27.8223C173.427 29.0345 173.714 30.707 174.006 32.8398H174.088C174.124 32.1471 174.284 31.0488 174.566 29.5449L174.785 28.3828L176.672 21.0547H181.265L183.056 28.3828C183.093 28.5833 183.147 28.8796 183.22 29.2715C183.302 29.6634 183.38 30.0827 183.453 30.5293C183.526 30.9668 183.59 31.3997 183.644 31.8281C183.708 32.2474 183.744 32.5846 183.754 32.8398H183.836C183.918 32.1836 184.063 31.2858 184.273 30.1465C184.483 28.998 184.633 28.2233 184.724 27.8223L186.556 21.0547H190.644L186.242 36.3398H181.703Z" fill="white"/>
</svg>
