<svg width="99" height="32" viewBox="0 0 99 32" fill="none" xmlns="http://www.w3.org/2000/svg">
<g id="logo">
<g id="Flux_white-blue">
<path id="Path 81" d="M15.46 0.941491C18.4929 0.961833 21.4518 1.87977 23.9636 3.57953C26.4755 5.2793 28.4278 7.68478 29.5744 10.4926C30.7209 13.3005 31.0104 16.385 30.4063 19.3571C29.8021 22.3293 28.3314 25.056 26.1797 27.1934C24.0279 29.3308 21.2914 30.7833 18.3153 31.3675C15.3392 31.9518 12.2567 31.6417 9.45659 30.4764C6.65646 29.3111 4.26408 27.3427 2.58114 24.8196C0.898201 22.2964 6.82179e-05 19.3314 0 16.2985C0.0137683 12.2119 1.65029 8.29821 4.54958 5.41824C7.44887 2.53827 11.3734 0.927942 15.46 0.941491Z" fill="#2B61D1"/>
<g id="Group 179">
<path id="Path 73" d="M17.292 25.2123L15.5311 26.2293L11.748 24.0483L13.466 23.0563L13.509 23.0312L13.5751 23.0693L17.292 25.2123Z" fill="white"/>
<path id="Path 74" d="M24.0517 11.4737V13.5207L20.3277 11.3707L19.3177 10.7877L18.3077 11.3707L13.5747 14.1047L12.5647 14.6877V15.8947L10.7437 14.8437L9.73374 14.2607L8.72374 14.8437L7.01074 15.8317V11.4737L15.5307 6.55469L24.0517 11.4737Z" fill="white"/>
<path id="Path 75" d="M24.052 15.8512V21.3212L19.319 24.0512H19.313L14.585 21.3212V15.8512L19.319 13.1172L24.052 15.8512Z" fill="white"/>
<path id="Path 76" d="M12.4557 18.1608V21.3038L9.73274 22.8768L7.01074 21.3048V18.1618L9.73374 16.5898L12.4557 18.1608Z" fill="white"/>
</g>
<g id="Group 178">
<path id="Path 77" d="M42.8531 10.2647V15.5367H52.4891V19.2367H42.8531V26.5047H38.0352V6.55469H53.7672V10.2647H42.8531Z" fill="white"/>
<path id="Path 78" d="M55.8779 6.55469H60.5159V26.5027H55.8779V6.55469Z" fill="white"/>
<path id="Path 79" d="M80.2509 10.5V26.5H75.851V24.597C75.2265 25.2908 74.4594 25.8414 73.6022 26.2109C72.7451 26.5805 71.8181 26.7603 70.8849 26.738C66.8699 26.738 64.0439 24.478 64.0439 19.538V10.5H68.6839V18.86C68.6839 21.537 69.873 22.727 71.925 22.727C74.066 22.727 75.6119 21.359 75.6119 18.413V10.5H80.2509Z" fill="white"/>
<path id="Path 80" d="M93.6373 26.502L90.1284 21.593L86.5053 26.502H81.4434L87.5983 18.44L81.6533 10.5H86.8533L90.2534 15.17L93.7333 10.5H98.6703L92.7213 18.321L98.9013 26.502H93.6373Z" fill="white"/>
</g>
</g>
</g>
</svg>
