<svg width="151" height="51" viewBox="0 0 151 51" fill="none" xmlns="http://www.w3.org/2000/svg">
<path d="M36.2786 15.0329L32.6486 18.663C38.6987 24.713 38.6987 34.566 32.6486 40.6161C26.5985 46.6662 16.7455 46.6662 10.6954 40.6161C4.64533 34.566 4.64533 24.713 10.6954 18.663L20.3755 8.98282L21.5856 7.59994V0.339844L6.8925 15.0329C4.96187 16.9441 3.42927 19.219 2.38332 21.7262C1.33737 24.2333 0.798828 26.923 0.798828 29.6395C0.798828 32.3561 1.33737 35.0458 2.38332 37.5529C3.42927 40.0601 4.96187 42.335 6.8925 44.2462C8.80366 46.1768 11.0786 47.7094 13.5857 48.7553C16.0929 49.8013 18.7825 50.3398 21.4991 50.3398C24.2157 50.3398 26.9054 49.8013 29.4125 48.7553C31.9197 47.7094 34.1946 46.1768 36.1058 44.2462C44.403 36.1218 44.403 22.9844 36.2786 15.0329Z" fill="#EE4C2C"/>
<path d="M29.0177 13.9963C30.5452 13.9963 31.7835 12.7581 31.7835 11.2306C31.7835 9.70311 30.5452 8.46484 29.0177 8.46484C27.4902 8.46484 26.252 9.70311 26.252 11.2306C26.252 12.7581 27.4902 13.9963 29.0177 13.9963Z" fill="#EE4C2C"/>
<path d="M58.5138 28.2187H55.6721V35.5275H53.5508V14.7804H58.7368C64.2383 14.7804 66.8314 17.4515 66.8314 21.3162C66.8314 25.8743 63.6089 28.1533 58.501 28.2315L58.5138 28.2187ZM58.6559 16.7454H55.6039V26.2551L58.5905 26.1769C62.5205 26.0988 64.6433 24.5259 64.6433 21.3034C64.6433 18.3964 62.6001 16.7454 58.6701 16.7454H58.6559ZM76.4334 35.4479L75.176 38.7485C73.7608 42.4427 72.3343 43.5424 70.2243 43.5424C69.045 43.5424 68.1812 43.2298 67.2377 42.8348L67.8657 40.9494C68.5733 41.343 69.3576 41.5774 70.2243 41.5774C71.4036 41.5774 72.2675 40.9494 73.3672 38.0253L74.3902 35.3541L68.4966 20.3444H70.6989L75.4928 32.9188L80.21 20.3444H82.3313L76.4334 35.4479ZM89.3986 16.8235V35.607H87.2773V16.8235H79.9685V14.7804H96.706V16.7454H89.3972L89.3986 16.8235ZM102.679 35.9978C98.4351 35.9978 95.2908 32.8549 95.2908 27.9814C95.2908 23.1079 98.5133 19.8869 102.821 19.8869C107.065 19.8869 110.13 23.0298 110.13 27.9032C110.13 32.7767 106.908 35.9978 102.664 35.9978H102.679ZM102.757 21.7894C99.5349 21.7894 97.415 24.3824 97.415 27.9189C97.415 31.6131 99.6173 34.1279 102.837 34.1279C106.057 34.1279 108.179 31.5349 108.179 27.9984C108.179 24.3042 105.977 21.7894 102.757 21.7894ZM115.411 35.6056H113.368V20.36L115.411 19.9664V23.1889C116.434 21.2239 117.926 19.9664 119.891 19.9664C120.827 19.9742 121.746 20.2175 122.562 20.674L122.014 22.6376C121.386 22.244 120.522 22.0096 119.655 22.0096C118.084 22.0096 116.591 23.1889 115.333 25.9396V35.6056H115.411ZM130.657 35.9978C126.099 35.9978 123.19 32.6972 123.19 27.9814C123.19 23.1875 126.333 19.8869 130.657 19.8869C132.542 19.8869 134.115 20.3586 135.451 21.2224L134.901 23.1079C133.722 22.3222 132.308 21.8505 130.657 21.8505C127.356 21.8505 125.315 24.2872 125.315 27.9032C125.315 31.5974 127.517 34.0327 130.736 34.0327C132.242 34.0258 133.714 33.5896 134.981 32.7753L135.374 34.6608C134.039 35.5246 132.388 35.9978 130.657 35.9978ZM148.182 35.6056V25.7819C148.182 23.1107 147.082 21.9457 144.959 21.9457C143.23 21.9457 141.501 22.8095 140.242 24.148V35.6994H138.199V13.2217L140.242 12.8281V22.416C141.813 20.8445 143.857 19.9792 145.508 19.9792C148.494 19.9792 150.301 21.8647 150.301 25.1653V35.617L148.182 35.6056Z" fill="white"/>
</svg>
