<svg width="98" height="51" viewBox="0 0 98 51" fill="none" xmlns="http://www.w3.org/2000/svg">
<path fill-rule="evenodd" clip-rule="evenodd" d="M89.2941 25.567C89.2108 25.3902 89.172 25.2997 89.1261 25.215C87.9048 22.9248 86.6865 20.6318 85.4552 18.3475C85.3302 18.119 85.3461 17.9825 85.5156 17.7871C87.458 15.5487 89.3904 13.3017 91.3257 11.0561C91.3932 10.9785 91.455 10.8938 91.4808 10.7544C90.9148 10.8995 90.3487 11.0432 89.7841 11.1912C87.4365 11.8047 85.0889 12.4167 82.7442 13.0374C82.5258 13.0948 82.4267 13.033 82.3175 12.8535C80.9856 10.6582 79.6452 8.46716 78.3061 6.27617C78.2372 6.16123 78.1625 6.05061 78.0159 5.95578C77.9082 6.54053 77.7976 7.12527 77.6927 7.71001L76.5763 13.908C76.5361 14.1321 76.4801 14.3534 76.4614 14.5789C76.4413 14.7916 76.3321 14.8706 76.1353 14.9309C73.3696 15.7872 70.6068 16.6521 67.8425 17.517C67.7219 17.5544 67.6026 17.6032 67.4733 17.7196L74.2891 20.3919C74.2058 20.4566 74.1512 20.5068 74.0908 20.5471C72.6771 21.4493 71.2605 22.3473 69.8525 23.2538C69.683 23.3616 69.5494 23.3774 69.3597 23.2926C67.6716 22.5441 65.9763 21.8085 64.2867 21.0628C63.5267 20.7281 62.8442 20.2841 62.3126 19.6434C61.1101 18.1923 61.3472 16.5429 62.9491 15.5344C63.4735 15.2039 64.0697 14.9582 64.6617 14.7672C67.3713 13.8965 70.091 13.0575 72.8078 12.2141C73.0363 12.1437 73.1426 12.0431 73.1843 11.8003C73.5463 9.73147 73.9227 7.66691 74.2991 5.60091C74.5017 4.49752 74.6095 3.36395 75.154 2.35393C75.3638 1.96315 75.6137 1.58242 75.9126 1.25628C76.9901 0.0753021 78.4972 0.0293274 79.638 1.15571C80.023 1.53501 80.3535 1.98326 80.6408 2.44157C81.8965 4.46303 83.1335 6.49742 84.3619 8.53325C84.5084 8.77605 84.6392 8.82347 84.9079 8.75307C87.9393 7.95138 90.9737 7.16262 94.0066 6.37243C94.633 6.20864 95.2651 6.14974 95.9074 6.26755C97.3067 6.52616 97.9188 7.57496 97.4446 8.90823C97.2291 9.51453 96.857 10.0289 96.4389 10.5116C94.3226 12.9684 92.2092 15.4252 90.0858 17.8748C89.9119 18.0759 89.9076 18.2196 90.0283 18.4437C91.2955 20.7999 92.5512 23.1605 93.8126 25.5195C94.1143 26.0842 94.3442 26.6689 94.3514 27.3183C94.3658 28.7938 93.2739 30.0007 91.7868 30.2147C90.9536 30.3354 90.1806 30.1601 89.4019 29.9231C87.5011 29.3426 85.5975 28.7737 83.6924 28.2091C83.5157 28.1559 83.4482 28.0884 83.418 27.9002C83.1982 26.5784 82.9597 25.2595 82.7284 23.9392C82.7226 23.9032 82.7327 23.8644 82.7384 23.7825L89.2941 25.567Z" fill="#E25A1C"/>
<path fill-rule="evenodd" clip-rule="evenodd" d="M85.591 44.8214C83.877 44.8185 82.163 44.8099 80.4476 44.8171C80.222 44.8171 80.0941 44.7524 79.9677 44.5628C77.9391 41.5141 75.9018 38.4725 73.8645 35.4296C73.7999 35.3319 73.7309 35.2385 73.6145 35.0762L72.3186 44.7984H67.8303C67.8835 44.3674 67.9295 43.9507 67.9841 43.5341C68.4223 40.2354 68.8619 36.9338 69.303 33.6351C69.7225 30.4815 70.1406 27.3279 70.5673 24.1744C70.5802 24.081 70.6434 23.9617 70.721 23.9114C72.2655 22.9201 73.8157 21.9345 75.3645 20.9489C75.3875 20.9346 75.4191 20.9331 75.4995 20.9101L74.1002 31.4326L74.1547 31.47L81.5007 23.4388L81.6961 24.5479C81.8699 25.5507 82.0366 26.5536 82.2233 27.5535C82.2607 27.7547 82.2075 27.8811 82.0711 28.0204C80.4993 29.6439 78.9318 31.2717 77.3644 32.8995L77.1532 33.128C77.2035 33.207 77.2451 33.2831 77.2968 33.3535L85.41 44.58C85.4588 44.649 85.5292 44.7021 85.591 44.7625V44.8214ZM32.3923 35.0905C32.3233 34.7457 32.2745 34.2385 32.1193 33.7659C31.3679 31.4786 28.9873 30.2244 26.5248 30.7904C23.8237 31.4097 21.8928 33.5058 21.6141 36.2241C21.4072 38.2355 22.5048 40.1736 24.5464 40.9006C26.1914 41.4868 27.7747 41.2411 29.2445 40.3719C31.1955 39.2182 32.2529 37.5056 32.3923 35.0905ZM20.5279 43.5916C20.3943 44.5757 20.2664 45.5024 20.1429 46.432C19.9791 47.6647 19.8153 48.8988 19.6573 50.1329C19.6386 50.2766 19.594 50.3413 19.4374 50.3398C18.2047 50.3355 16.972 50.3355 15.7393 50.3341C15.7106 50.3341 15.6833 50.3197 15.6172 50.301C15.6905 49.7177 15.7638 49.1344 15.8413 48.5511C16.1143 46.5038 16.3844 44.4579 16.6603 42.412C16.9763 40.0731 17.2263 37.7226 17.6301 35.398C18.347 31.2832 21.8856 27.736 26.0406 26.8524C28.4485 26.3409 30.753 26.578 32.8549 27.9156C34.9525 29.2474 36.1551 31.1812 36.4295 33.615C36.8174 37.0545 35.533 39.9107 33.0561 42.2727C31.4297 43.8243 29.483 44.8099 27.2374 45.1432C24.9243 45.4866 22.7491 45.1059 20.798 43.7611C20.7262 43.7123 20.65 43.6691 20.5279 43.5916ZM18.5179 24.0364L14.465 27.0119C14.2495 26.6771 14.0555 26.3424 13.8299 26.0306C13.2495 25.2303 12.5283 24.6327 11.478 24.5594C10.606 24.4991 9.8603 24.7835 9.2655 25.4171C8.73391 25.9846 8.66495 26.7921 9.16205 27.4328C9.708 28.1368 10.3057 28.8063 10.9163 29.46C11.9292 30.5419 12.988 31.5835 13.9937 32.6725C14.9089 33.6624 15.6373 34.773 15.8629 36.1264C16.1316 37.7355 15.8054 39.2685 15.0339 40.6822C13.6058 43.2999 11.3559 44.82 8.38766 45.2941C7.07594 45.5038 5.76853 45.4622 4.48842 45.0901C2.79022 44.5973 1.61068 43.5011 0.849217 41.9494C0.580551 41.4034 0.375101 40.823 0.130859 40.2354L4.52721 37.9151C4.57749 38.0358 4.61341 38.1364 4.66082 38.2312C4.91081 38.724 5.11626 39.2469 5.42516 39.7009C6.34322 41.0471 7.82447 41.4566 9.33015 40.7928C9.71519 40.6204 10.0873 40.3791 10.4048 40.1032C11.3746 39.2541 11.5556 38.0731 10.8387 37.0057C10.4264 36.3922 9.91058 35.8419 9.40917 35.2917C8.20951 33.9785 6.961 32.7056 5.78864 31.3694C4.98265 30.4471 4.43382 29.3724 4.25998 28.1368C4.07033 26.7892 4.34331 25.5177 5.05448 24.3827C6.82164 21.5624 9.39336 20.0941 12.7912 20.2162C14.7279 20.2852 16.2709 21.1788 17.4691 22.6629C17.8226 23.1026 18.1559 23.5594 18.5179 24.0364ZM51.3469 39.1809C51.1228 40.8805 50.9101 42.4954 50.6889 44.1088C50.6774 44.1907 50.6127 44.3013 50.5423 44.3343C47.1962 45.8616 42.7913 45.6489 40.0443 42.5715C38.5673 40.9193 37.9481 38.9567 38.0415 36.7729C38.2555 31.72 42.5025 27.3093 47.5827 26.6929C50.551 26.3323 53.1543 27.1239 55.1642 29.3968C56.5334 30.9456 57.167 32.7961 57.0736 34.8377C57.0119 36.1853 56.7978 37.5286 56.6283 38.8705C56.3869 40.7713 56.1225 42.6706 55.8682 44.57C55.8596 44.6375 55.8452 44.705 55.8309 44.7898H51.8282C51.8814 44.353 51.9302 43.9263 51.9862 43.4996C52.2764 41.3058 52.5954 39.1148 52.8483 36.9166C53.0063 35.5488 52.9072 34.1897 52.2736 32.9225C51.5983 31.5734 50.4648 30.8608 48.9763 30.7057C45.8946 30.3838 42.9622 32.4958 42.3056 35.4871C41.8718 37.4611 42.5556 39.3533 44.1504 40.4006C45.7035 41.4207 47.3686 41.4236 49.0611 40.7612C49.9202 40.4265 50.6515 39.8963 51.3469 39.1809ZM68.1996 27.0765L67.6536 31.1683C66.806 31.1683 65.977 31.164 65.148 31.1712C64.4756 31.1755 63.8621 31.6036 63.6595 32.2228C63.5805 32.4642 63.5518 32.7243 63.5173 32.9785C63.0964 36.1206 62.6797 39.2627 62.2616 42.4063C62.1553 43.1979 62.0533 43.991 61.947 44.7955H57.7819C57.8595 44.1921 57.9328 43.6059 58.0118 43.0226C58.2819 40.9854 58.552 38.9495 58.8264 36.9137C59.0635 35.1523 59.2747 33.3866 59.5548 31.6309C59.9284 29.2776 62.3018 27.1871 64.7098 27.0851C65.8592 27.0349 67.0114 27.0765 68.1996 27.0765Z" fill="white"/>
<path d="M90.5004 44.793V43.0589H90.4918L89.8022 44.793H89.5809L88.8913 43.0589H88.8812V44.7915H88.5336V42.714H89.0695L89.6987 44.293L90.3165 42.714H90.8481V44.793H90.5004ZM87.4445 42.9928V44.793H87.0968V42.9928H86.436V42.7155H88.1026V42.9928H87.4445ZM24.0983 21.1159H25.1328L24.8885 19.5743L24.0983 21.1159ZM25.2937 22.113H23.5754L23.0294 23.1675H21.8125L24.4963 18.2209H25.6701L26.5838 23.1675H25.456L25.2937 22.113ZM31.4414 19.218H30.8293L30.6239 20.3587H31.2345C31.6037 20.3587 31.8997 20.1202 31.8997 19.6691C31.8997 19.3703 31.7129 19.218 31.4414 19.218ZM29.9587 18.2209H31.5678C32.4083 18.2209 32.9973 18.7166 32.9973 19.5671C32.9973 20.636 32.2301 21.3558 31.1397 21.3558H30.4457L30.121 23.1661H29.0751L29.9587 18.2209ZM36.5546 21.1159H37.5876L37.3434 19.5743L36.5546 21.1159ZM37.7485 22.113H36.0317L35.4857 23.1675H34.2688L36.9526 18.2209H38.125L39.0402 23.1675H37.9109L37.7485 22.113ZM44.5428 22.9922C44.1893 23.1517 43.7986 23.248 43.4078 23.248C42.0802 23.248 41.2455 22.2653 41.2455 21.0354C41.2455 19.4651 42.5888 18.1405 44.1822 18.1405C44.5801 18.1405 44.9407 18.2353 45.2353 18.3948L45.0887 19.5815C44.8675 19.3415 44.514 19.1735 44.0701 19.1735C43.1563 19.1735 42.346 19.9895 42.346 20.9334C42.346 21.6547 42.8029 22.215 43.5241 22.215C43.9681 22.215 44.3948 22.0469 44.6821 21.8141L44.5428 22.9922ZM50.9419 21.1748H48.7595L48.4047 23.1675H47.3587L48.2423 18.2209H49.2897L48.9363 20.1777H51.1186L51.4721 18.2209H52.5194L51.6358 23.1675H50.5885L50.9419 21.1748ZM54.7822 23.1675L55.6673 18.2209H58.4473L58.2706 19.218H56.5365L56.3612 20.1777H57.9531L57.7764 21.1748H56.183L56.0063 22.1704H57.739L57.5623 23.1675H54.7822Z" fill="white"/>
</svg>
