<svg width="466" height="408" viewBox="0 0 466 408" fill="none" xmlns="http://www.w3.org/2000/svg">
<mask id="mask0_1944_8170" style="mask-type:alpha" maskUnits="userSpaceOnUse" x="0" y="32" width="376" height="376">
<rect y="32.3398" width="375.367" height="375.367" fill="#A34B4B"/>
</mask>
<g mask="url(#mask0_1944_8170)">
<circle cx="187.911" cy="220.251" r="165.883" transform="rotate(-107.086 187.911 220.251)" fill="#2B61D1" fill-opacity="0.02"/>
<g filter="url(#filter0_d_1944_8170)">
<path d="M141.218 373.37C140.283 376.437 137.034 378.175 134.001 377.133C101.259 365.881 72.8523 344.661 52.7747 316.455C50.9152 313.843 51.6598 310.234 54.3356 308.467C57.0113 306.7 60.6042 307.444 62.4705 310.052C81.0502 336.008 107.23 355.565 137.391 366.019C140.421 367.069 142.154 370.303 141.218 373.37Z" fill="#6877FF"/>
</g>
<g filter="url(#filter1_d_1944_8170)">
<rect x="65.6885" y="325.191" width="46.9208" height="46.9208" rx="23.4604" fill="#091B37" fill-opacity="0.8" shape-rendering="crispEdges"/>
<rect x="65.9519" y="325.455" width="46.3939" height="46.3939" rx="23.197" stroke="url(#paint0_linear_1944_8170)" stroke-width="0.526899" shape-rendering="crispEdges"/>
</g>
<path d="M78.694 344.237H82.2811V353.27H80.6037V345.644H78.694V344.237ZM83.6084 344.237H87.1955V353.27H85.518V345.644H83.6084V344.237ZM91.0001 349.102C89.7098 349.102 88.8453 348.108 88.8453 346.624C88.8453 345.14 89.7098 344.147 91.0001 344.147C92.2904 344.147 93.1678 345.128 93.1678 346.624C93.1678 348.121 92.2904 349.102 91.0001 349.102ZM90.2517 353.27L96.4194 344.237H97.684L91.5162 353.27H90.2517ZM91.0001 348.199C91.6969 348.199 92.1098 347.631 92.1098 346.624C92.1098 345.618 91.6969 345.05 91.0001 345.05C90.3291 345.05 89.8904 345.631 89.8904 346.624C89.8904 347.618 90.3291 348.199 91.0001 348.199ZM96.9227 353.36C95.6324 353.36 94.7678 352.366 94.7678 350.882C94.7678 349.399 95.6324 348.405 96.9227 348.405C98.213 348.405 99.0904 349.399 99.0904 350.882C99.0904 352.366 98.213 353.36 96.9227 353.36ZM96.9227 352.457C97.6065 352.457 98.0324 351.876 98.0324 350.882C98.0324 349.889 97.6065 349.308 96.9227 349.308C96.2388 349.308 95.813 349.876 95.813 350.882C95.813 351.889 96.2388 352.457 96.9227 352.457Z" fill="url(#paint1_linear_1944_8170)"/>
<g filter="url(#filter2_d_1944_8170)">
<path d="M189.074 60.1821C189.097 56.9757 191.716 54.3846 194.92 54.5199C226.305 55.8462 256.713 66.0611 282.574 84.0318C308.435 102.003 328.613 126.939 340.802 155.891C342.046 158.846 340.531 162.205 337.534 163.345C334.537 164.485 331.193 162.974 329.941 160.022C318.59 133.256 299.888 110.203 275.948 93.5675C252.008 76.9321 223.879 67.4431 194.835 66.1391C191.632 65.9952 189.051 63.3885 189.074 60.1821Z" fill="#407DFB"/>
</g>
<g filter="url(#filter3_d_1944_8170)">
<rect x="255.72" y="61.2656" width="46.9208" height="46.9208" rx="23.4604" fill="#091B37" fill-opacity="0.8" shape-rendering="crispEdges"/>
<rect x="255.983" y="61.5291" width="46.3939" height="46.3939" rx="23.197" stroke="url(#paint2_linear_1944_8170)" stroke-width="0.526899" shape-rendering="crispEdges"/>
</g>
<path d="M262.862 80.3115H266.449V89.3438H264.772V81.7179H262.862V80.3115ZM271.286 80.1825C273.751 80.1825 275.196 81.7696 275.196 84.6728C275.196 87.7696 273.389 89.4728 270.77 89.4728C269.867 89.4728 269.002 89.2792 268.396 88.8921L269.015 87.6276C269.505 87.9502 270.099 88.0663 270.731 88.0663C272.434 88.0663 273.505 87.0083 273.505 84.9567V84.9438C272.963 85.576 272.099 85.8857 271.092 85.8857C269.312 85.8857 267.983 84.8018 267.983 83.1115C267.983 81.3179 269.441 80.1825 271.286 80.1825ZM271.415 84.5696C272.499 84.5696 273.247 83.9115 273.247 83.0212C273.247 82.1696 272.576 81.4986 271.376 81.4986C270.331 81.4986 269.609 82.0921 269.609 83.0341C269.609 83.976 270.318 84.5696 271.415 84.5696ZM277.186 89.4341C276.605 89.4341 276.128 88.9825 276.128 88.3631C276.128 87.7179 276.605 87.2921 277.186 87.2921C277.766 87.2921 278.244 87.7179 278.244 88.3631C278.244 88.9825 277.766 89.4341 277.186 89.4341ZM278.676 80.3115H282.263V89.3438H280.586V81.7179H278.676V80.3115ZM286.068 85.176C284.777 85.176 283.913 84.1825 283.913 82.6986C283.913 81.2147 284.777 80.2212 286.068 80.2212C287.358 80.2212 288.236 81.2018 288.236 82.6986C288.236 84.1954 287.358 85.176 286.068 85.176ZM285.319 89.3438L291.487 80.3115H292.752L286.584 89.3438H285.319ZM286.068 84.2728C286.765 84.2728 287.177 83.705 287.177 82.6986C287.177 81.6921 286.765 81.1244 286.068 81.1244C285.397 81.1244 284.958 81.705 284.958 82.6986C284.958 83.6921 285.397 84.2728 286.068 84.2728ZM291.99 89.4341C290.7 89.4341 289.836 88.4405 289.836 86.9567C289.836 85.4728 290.7 84.4792 291.99 84.4792C293.281 84.4792 294.158 85.4728 294.158 86.9567C294.158 88.4405 293.281 89.4341 291.99 89.4341ZM291.99 88.5308C292.674 88.5308 293.1 87.9502 293.1 86.9567C293.1 85.9631 292.674 85.3825 291.99 85.3825C291.306 85.3825 290.881 85.9502 290.881 86.9567C290.881 87.9631 291.306 88.5308 291.99 88.5308Z" fill="url(#paint3_linear_1944_8170)"/>
<path d="M340.991 173.468C344.058 172.531 347.314 174.255 348.143 177.353C355.217 203.779 355.652 231.577 349.369 258.264C343.086 284.95 330.293 309.634 312.172 330.128C310.048 332.53 306.365 332.62 304.038 330.413C301.712 328.207 301.624 324.539 303.742 322.131C320.452 303.132 332.254 280.289 338.066 255.602C343.879 230.916 343.509 205.207 337.03 180.748C336.209 177.648 337.925 174.405 340.991 173.468Z" fill="#A2DAFF"/>
<g filter="url(#filter4_d_1944_8170)">
<rect x="319.056" y="237.215" width="46.9208" height="46.9208" rx="23.4604" fill="#091B37" fill-opacity="0.8" shape-rendering="crispEdges"/>
<rect x="319.319" y="237.478" width="46.3939" height="46.3939" rx="23.197" stroke="url(#paint4_linear_1944_8170)" stroke-width="0.526899" shape-rendering="crispEdges"/>
</g>
<path d="M325.024 256.261H328.611V265.293H326.934V257.667H325.024V256.261ZM334.506 259.719C336.287 259.719 337.616 260.803 337.616 262.493C337.616 264.287 336.158 265.422 334.313 265.422C331.848 265.422 330.403 263.835 330.403 260.932C330.403 257.835 332.209 256.132 334.829 256.132C335.732 256.132 336.597 256.325 337.203 256.712L336.584 257.977C336.093 257.654 335.5 257.538 334.867 257.538C333.164 257.538 332.093 258.596 332.093 260.648V260.661C332.635 260.028 333.5 259.719 334.506 259.719ZM334.222 264.106C335.267 264.106 335.99 263.512 335.99 262.57C335.99 261.628 335.28 261.035 334.184 261.035C333.1 261.035 332.351 261.693 332.351 262.583C332.351 263.435 333.022 264.106 334.222 264.106ZM339.625 265.383C339.044 265.383 338.567 264.932 338.567 264.312C338.567 263.667 339.044 263.241 339.625 263.241C340.206 263.241 340.683 263.667 340.683 264.312C340.683 264.932 340.206 265.383 339.625 265.383ZM347.753 260.545C348.695 260.97 349.224 261.706 349.224 262.699C349.224 264.377 347.766 265.422 345.521 265.422C343.276 265.422 341.843 264.377 341.843 262.699C341.843 261.706 342.359 260.97 343.288 260.545C342.566 260.145 342.166 259.499 342.166 258.648C342.166 257.099 343.521 256.132 345.521 256.132C347.534 256.132 348.901 257.099 348.901 258.648C348.901 259.499 348.488 260.145 347.753 260.545ZM345.521 257.448C344.488 257.448 343.817 257.912 343.817 258.725C343.817 259.499 344.463 259.99 345.521 259.99C346.592 259.99 347.25 259.499 347.25 258.725C347.25 257.912 346.553 257.448 345.521 257.448ZM345.521 264.106C346.759 264.106 347.534 263.564 347.534 262.648C347.534 261.757 346.759 261.203 345.521 261.203C344.282 261.203 343.534 261.757 343.534 262.648C343.534 263.564 344.282 264.106 345.521 264.106ZM352.199 261.125C350.909 261.125 350.044 260.132 350.044 258.648C350.044 257.164 350.909 256.17 352.199 256.17C353.489 256.17 354.367 257.151 354.367 258.648C354.367 260.145 353.489 261.125 352.199 261.125ZM351.451 265.293L357.618 256.261H358.883L352.715 265.293H351.451ZM352.199 260.222C352.896 260.222 353.309 259.654 353.309 258.648C353.309 257.641 352.896 257.074 352.199 257.074C351.528 257.074 351.089 257.654 351.089 258.648C351.089 259.641 351.528 260.222 352.199 260.222ZM358.122 265.383C356.831 265.383 355.967 264.39 355.967 262.906C355.967 261.422 356.831 260.428 358.122 260.428C359.412 260.428 360.289 261.422 360.289 262.906C360.289 264.39 359.412 265.383 358.122 265.383ZM358.122 264.48C358.806 264.48 359.231 263.899 359.231 262.906C359.231 261.912 358.806 261.332 358.122 261.332C357.438 261.332 357.012 261.899 357.012 262.906C357.012 263.912 357.438 264.48 358.122 264.48Z" fill="url(#paint5_linear_1944_8170)"/>
<path d="M299.578 334.948C301.815 337.245 301.773 340.929 299.398 343.084C279.663 360.998 255.878 373.912 230.044 380.696C204.21 387.481 177.148 387.919 151.158 382.014C148.031 381.304 146.184 378.116 147.003 375.016C147.823 371.916 150.998 370.078 154.127 370.781C178.177 376.178 203.2 375.74 227.094 369.465C250.989 363.19 272.998 351.277 291.293 334.759C293.673 332.61 297.341 332.65 299.578 334.948Z" fill="#2DA7EC"/>
<g filter="url(#filter5_bd_1944_8170)">
<rect x="211.141" y="350.996" width="46.9208" height="46.9208" rx="23.4604" fill="#091B37" fill-opacity="0.8" shape-rendering="crispEdges"/>
<rect x="211.404" y="351.26" width="46.3939" height="46.3939" rx="23.197" stroke="url(#paint6_linear_1944_8170)" stroke-width="0.526899" shape-rendering="crispEdges"/>
</g>
<path d="M217.109 370.042H220.696V379.074H219.019V371.448H217.109V370.042ZM226.591 373.5C228.372 373.5 229.701 374.584 229.701 376.274C229.701 378.068 228.243 379.203 226.398 379.203C223.933 379.203 222.488 377.616 222.488 374.713C222.488 371.616 224.294 369.913 226.914 369.913C227.817 369.913 228.681 370.106 229.288 370.494L228.669 371.758C228.178 371.436 227.585 371.319 226.952 371.319C225.249 371.319 224.178 372.377 224.178 374.429V374.442C224.72 373.81 225.585 373.5 226.591 373.5ZM226.307 377.887C227.352 377.887 228.075 377.294 228.075 376.352C228.075 375.41 227.365 374.816 226.269 374.816C225.185 374.816 224.436 375.474 224.436 376.365C224.436 377.216 225.107 377.887 226.307 377.887ZM231.71 379.165C231.129 379.165 230.652 378.713 230.652 378.094C230.652 377.448 231.129 377.023 231.71 377.023C232.291 377.023 232.768 377.448 232.768 378.094C232.768 378.713 232.291 379.165 231.71 379.165ZM241.842 375.603V377.023H240.242V379.074H238.617V377.023H233.662V375.861L238.113 370.042H239.907L235.713 375.603H238.668V373.784H240.242V375.603H241.842ZM244.171 374.906C242.88 374.906 242.016 373.913 242.016 372.429C242.016 370.945 242.88 369.952 244.171 369.952C245.461 369.952 246.338 370.932 246.338 372.429C246.338 373.926 245.461 374.906 244.171 374.906ZM243.422 379.074L249.59 370.042H250.855L244.687 379.074H243.422ZM244.171 374.003C244.867 374.003 245.28 373.436 245.28 372.429C245.28 371.423 244.867 370.855 244.171 370.855C243.5 370.855 243.061 371.436 243.061 372.429C243.061 373.423 243.5 374.003 244.171 374.003ZM250.093 379.165C248.803 379.165 247.938 378.171 247.938 376.687C247.938 375.203 248.803 374.21 250.093 374.21C251.384 374.21 252.261 375.203 252.261 376.687C252.261 378.171 251.384 379.165 250.093 379.165ZM250.093 378.261C250.777 378.261 251.203 377.681 251.203 376.687C251.203 375.694 250.777 375.113 250.093 375.113C249.409 375.113 248.984 375.681 248.984 376.687C248.984 377.694 249.409 378.261 250.093 378.261Z" fill="url(#paint7_linear_1944_8170)"/>
<path d="M50.9149 303.072C48.1708 304.731 44.5916 303.855 43.0298 301.055C26.1659 270.818 19.1856 236.054 23.0698 201.651C23.4296 198.465 26.3933 196.275 29.5651 196.746C32.7368 197.217 34.9147 200.17 34.5633 203.357C31.0656 235.086 37.4989 267.125 52.9737 295.044C54.5281 297.848 53.659 301.413 50.9149 303.072Z" fill="#46BCFF"/>
<g filter="url(#filter6_d_1944_8170)">
<rect x="7.03613" y="227.059" width="46.9208" height="46.9208" rx="23.4604" fill="#091B37" fill-opacity="0.8" shape-rendering="crispEdges"/>
<rect x="7.29958" y="227.322" width="46.3939" height="46.3939" rx="23.197" stroke="url(#paint8_linear_1944_8170)" stroke-width="0.526899" shape-rendering="crispEdges"/>
</g>
<path d="M18.7462 249.563C20.5268 249.563 21.8558 250.646 21.8558 252.337C21.8558 254.13 20.3978 255.266 18.5526 255.266C16.0881 255.266 14.6429 253.679 14.6429 250.775C14.6429 247.679 16.4494 245.975 19.0687 245.975C19.972 245.975 20.8365 246.169 21.4429 246.556L20.8236 247.821C20.3333 247.498 19.7397 247.382 19.1075 247.382C17.4042 247.382 16.3333 248.44 16.3333 250.492V250.504C16.8752 249.872 17.7397 249.563 18.7462 249.563ZM18.4623 253.95C19.5075 253.95 20.23 253.356 20.23 252.414C20.23 251.472 19.5204 250.879 18.4236 250.879C17.3397 250.879 16.5913 251.537 16.5913 252.427C16.5913 253.279 17.2623 253.95 18.4623 253.95ZM23.8651 255.227C23.2845 255.227 22.807 254.775 22.807 254.156C22.807 253.511 23.2845 253.085 23.8651 253.085C24.4458 253.085 24.9232 253.511 24.9232 254.156C24.9232 254.775 24.4458 255.227 23.8651 255.227ZM28.4187 253.717H32.6768V255.137H26.0187V254.014L29.6058 250.608C30.4833 249.769 30.6381 249.24 30.6381 248.737C30.6381 247.911 30.0704 247.433 28.9607 247.433C28.0833 247.433 27.3478 247.73 26.8445 248.375L25.6704 247.472C26.3671 246.53 27.6187 245.975 29.1026 245.975C31.0639 245.975 32.3284 246.969 32.3284 248.569C32.3284 249.446 32.0833 250.246 30.8316 251.421L28.4187 253.717ZM35.7839 250.969C34.4935 250.969 33.629 249.975 33.629 248.492C33.629 247.008 34.4935 246.014 35.7839 246.014C37.0742 246.014 37.9516 246.995 37.9516 248.492C37.9516 249.988 37.0742 250.969 35.7839 250.969ZM35.0355 255.137L41.2032 246.104H42.4677L36.3 255.137H35.0355ZM35.7839 250.066C36.4806 250.066 36.8935 249.498 36.8935 248.492C36.8935 247.485 36.4806 246.917 35.7839 246.917C35.1129 246.917 34.6742 247.498 34.6742 248.492C34.6742 249.485 35.1129 250.066 35.7839 250.066ZM41.7064 255.227C40.4161 255.227 39.5516 254.233 39.5516 252.75C39.5516 251.266 40.4161 250.272 41.7064 250.272C42.9968 250.272 43.8742 251.266 43.8742 252.75C43.8742 254.233 42.9968 255.227 41.7064 255.227ZM41.7064 254.324C42.3903 254.324 42.8161 253.743 42.8161 252.75C42.8161 251.756 42.3903 251.175 41.7064 251.175C41.0226 251.175 40.5968 251.743 40.5968 252.75C40.5968 253.756 41.0226 254.324 41.7064 254.324Z" fill="url(#paint9_linear_1944_8170)"/>
<path d="M30.0902 193.431C26.929 192.894 24.7917 189.893 25.4391 186.752C32.7845 151.125 51.6554 118.839 79.2174 94.9344C106.779 71.0299 141.409 56.9145 177.718 54.6812C180.918 54.4844 183.587 57.0247 183.672 60.2301C183.757 63.4355 181.225 66.0914 178.025 66.2966C144.406 68.4533 112.356 81.5644 86.8255 103.707C61.2955 125.849 43.7836 155.723 36.8943 188.699C36.2385 191.838 33.2514 193.969 30.0902 193.431Z" fill="#4D54FF"/>
<g filter="url(#filter7_d_1944_8170)">
<rect x="65.6836" y="71.8203" width="46.9208" height="46.9208" rx="23.4604" fill="#091B37" fill-opacity="0.8" shape-rendering="crispEdges"/>
<rect x="65.947" y="72.0838" width="46.3939" height="46.3939" rx="23.197" stroke="url(#paint10_linear_1944_8170)" stroke-width="0.526899" shape-rendering="crispEdges"/>
</g>
<path d="M74.7879 93.4194C76.4911 93.6388 77.3556 94.6581 77.3556 96.013C77.3556 97.5356 76.2073 98.8517 73.7815 98.8517C72.504 98.8517 71.2266 98.4646 70.3879 97.8065L71.1105 96.5033C71.7556 97.0452 72.7363 97.3936 73.7556 97.3936C74.9556 97.3936 75.6653 96.8646 75.6653 96.0259C75.6653 95.213 75.0718 94.6839 73.704 94.6839H72.8782V93.5356L74.9298 91.0969H70.8266V89.6904H76.9815V90.813L74.7879 93.4194ZM82.2206 98.8517C80.0786 98.8517 78.4528 97.1743 78.4528 94.2065C78.4528 91.2388 80.0786 89.5614 82.2206 89.5614C84.3754 89.5614 86.0012 91.2388 86.0012 94.2065C86.0012 97.1743 84.3754 98.8517 82.2206 98.8517ZM82.2206 97.3936C83.4593 97.3936 84.3109 96.3872 84.3109 94.2065C84.3109 92.0259 83.4593 91.0194 82.2206 91.0194C80.9948 91.0194 80.1431 92.0259 80.1431 94.2065C80.1431 96.3872 80.9948 97.3936 82.2206 97.3936ZM87.99 98.813C87.4094 98.813 86.932 98.3614 86.932 97.742C86.932 97.0968 87.4094 96.671 87.99 96.671C88.5707 96.671 89.0481 97.0968 89.0481 97.742C89.0481 98.3614 88.5707 98.813 87.99 98.813ZM92.9596 93.1872C95.6305 93.1872 96.7015 94.3485 96.7015 95.9485C96.7015 97.5356 95.5531 98.8517 93.1273 98.8517C91.8499 98.8517 90.5596 98.4646 89.7338 97.8065L90.4434 96.5033C91.1015 97.0452 92.0822 97.3936 93.1015 97.3936C94.3015 97.3936 95.0112 96.8646 95.0112 96.013C95.0112 95.1485 94.4563 94.6065 92.5854 94.6065H90.4047L90.8693 89.6904H96.1725V91.0969H92.2886L92.0951 93.1872H92.9596ZM99.5559 94.5549C98.2656 94.5549 97.4011 93.5614 97.4011 92.0775C97.4011 90.5936 98.2656 89.6001 99.5559 89.6001C100.846 89.6001 101.724 90.5807 101.724 92.0775C101.724 93.5743 100.846 94.5549 99.5559 94.5549ZM98.8076 98.7227L104.975 89.6904H106.24L100.072 98.7227H98.8076ZM99.5559 93.6517C100.253 93.6517 100.666 93.0839 100.666 92.0775C100.666 91.071 100.253 90.5033 99.5559 90.5033C98.885 90.5033 98.4463 91.0839 98.4463 92.0775C98.4463 93.071 98.885 93.6517 99.5559 93.6517ZM105.479 98.813C104.188 98.813 103.324 97.8194 103.324 96.3356C103.324 94.8517 104.188 93.8581 105.479 93.8581C106.769 93.8581 107.646 94.8517 107.646 96.3356C107.646 97.8194 106.769 98.813 105.479 98.813ZM105.479 97.9098C106.162 97.9098 106.588 97.3291 106.588 96.3356C106.588 95.342 106.162 94.7614 105.479 94.7614C104.795 94.7614 104.369 95.3291 104.369 96.3356C104.369 97.342 104.795 97.9098 105.479 97.9098Z" fill="url(#paint11_linear_1944_8170)"/>
<path d="M161.306 176.018H184.996V180.452L174.017 205.578H166.585L177.184 181.592H167.387V186.406H161.306V176.018ZM207.568 190.038C210.44 191.474 212.087 193.839 212.087 197.006C212.087 202.58 207.104 206.085 199.587 206.085C192.112 206.085 187.172 202.58 187.172 197.006C187.172 193.839 188.819 191.474 191.648 190.038C189.452 188.687 188.227 186.617 188.227 183.957C188.227 178.763 192.873 175.511 199.587 175.511C206.386 175.511 211.031 178.763 211.031 183.957C211.031 186.617 209.764 188.687 207.568 190.038ZM199.587 180.536C196.842 180.536 195.026 181.93 195.026 184.253C195.026 186.491 196.8 187.884 199.587 187.884C202.416 187.884 204.232 186.491 204.232 184.253C204.232 181.93 202.374 180.536 199.587 180.536ZM199.587 201.06C203.007 201.06 205.161 199.413 205.161 196.795C205.161 194.176 203.007 192.572 199.587 192.572C196.209 192.572 194.097 194.176 194.097 196.795C194.097 199.413 196.209 201.06 199.587 201.06Z" fill="url(#paint12_linear_1944_8170)"/>
<path d="M161.306 176.018H184.996V180.452L174.017 205.578H166.585L177.184 181.592H167.387V186.406H161.306V176.018ZM207.568 190.038C210.44 191.474 212.087 193.839 212.087 197.006C212.087 202.58 207.104 206.085 199.587 206.085C192.112 206.085 187.172 202.58 187.172 197.006C187.172 193.839 188.819 191.474 191.648 190.038C189.452 188.687 188.227 186.617 188.227 183.957C188.227 178.763 192.873 175.511 199.587 175.511C206.386 175.511 211.031 178.763 211.031 183.957C211.031 186.617 209.764 188.687 207.568 190.038ZM199.587 180.536C196.842 180.536 195.026 181.93 195.026 184.253C195.026 186.491 196.8 187.884 199.587 187.884C202.416 187.884 204.232 186.491 204.232 184.253C204.232 181.93 202.374 180.536 199.587 180.536ZM199.587 201.06C203.007 201.06 205.161 199.413 205.161 196.795C205.161 194.176 203.007 192.572 199.587 192.572C196.209 192.572 194.097 194.176 194.097 196.795C194.097 199.413 196.209 201.06 199.587 201.06Z" fill="black" fill-opacity="0.2"/>
<path d="M131.948 232.284V227.956H135.073V233.952C133.447 235.177 131.209 235.831 129.097 235.831C124.452 235.831 121.031 232.643 121.031 228.188C121.031 223.733 124.452 220.545 129.161 220.545C131.758 220.545 133.911 221.431 135.347 223.1L133.151 225.127C132.074 223.986 130.829 223.458 129.329 223.458C126.458 223.458 124.494 225.38 124.494 228.188C124.494 230.954 126.458 232.918 129.287 232.918C130.216 232.918 131.082 232.749 131.948 232.284ZM144.648 220.798C148.596 220.798 151.066 222.846 151.066 226.161C151.066 229.455 148.596 231.503 144.648 231.503H141.67V235.578H138.25V220.798H144.648ZM144.458 228.716C146.548 228.716 147.604 227.766 147.604 226.161C147.604 224.535 146.548 223.585 144.458 223.585H141.67V228.716H144.458ZM160.013 235.831C155.811 235.831 153.32 233.424 153.32 229.075V220.798H156.74V228.948C156.74 231.756 157.965 232.918 160.034 232.918C162.124 232.918 163.328 231.756 163.328 228.948V220.798H166.706V229.075C166.706 233.424 164.215 235.831 160.013 235.831ZM192.725 235.578H189.516L189.495 226.71L185.145 234.016H183.604L179.275 226.9V235.578H176.066V220.798H178.895L184.427 229.983L189.875 220.798H192.683L192.725 235.578ZM201.405 235.747C197.794 235.747 195.155 233.319 195.155 229.898C195.155 226.478 197.794 224.05 201.405 224.05C205.016 224.05 207.634 226.478 207.634 229.898C207.634 233.319 205.016 235.747 201.405 235.747ZM201.405 233.044C203.052 233.044 204.298 231.862 204.298 229.898C204.298 227.935 203.052 226.752 201.405 226.752C199.758 226.752 198.491 227.935 198.491 229.898C198.491 231.862 199.758 233.044 201.405 233.044ZM218.112 219.911H221.406V235.578H218.26V234.269C217.437 235.261 216.233 235.747 214.713 235.747C211.503 235.747 209.033 233.467 209.033 229.898C209.033 226.33 211.503 224.05 214.713 224.05C216.106 224.05 217.289 224.493 218.112 225.422V219.911ZM215.283 233.044C216.909 233.044 218.176 231.862 218.176 229.898C218.176 227.935 216.909 226.752 215.283 226.752C213.636 226.752 212.369 227.935 212.369 229.898C212.369 231.862 213.636 233.044 215.283 233.044ZM235.582 229.941C235.582 230.194 235.54 230.553 235.519 230.827H226.925C227.242 232.242 228.445 233.108 230.177 233.108C231.38 233.108 232.246 232.749 233.027 232.01L234.78 233.91C233.724 235.114 232.14 235.747 230.092 235.747C226.165 235.747 223.61 233.277 223.61 229.898C223.61 226.499 226.207 224.05 229.67 224.05C233.006 224.05 235.582 226.288 235.582 229.941ZM229.691 226.541C228.192 226.541 227.115 227.449 226.883 228.906H232.478C232.246 227.47 231.169 226.541 229.691 226.541ZM237.775 235.578V219.911H241.069V235.578H237.775ZM247.947 235.747C246.026 235.747 244.083 235.219 243.028 234.522L244.126 232.158C245.139 232.812 246.68 233.256 248.074 233.256C249.594 233.256 250.164 232.854 250.164 232.221C250.164 230.363 243.302 232.263 243.302 227.724C243.302 225.57 245.245 224.05 248.56 224.05C250.122 224.05 251.853 224.409 252.93 225.042L251.832 227.386C250.713 226.752 249.594 226.541 248.56 226.541C247.082 226.541 246.448 227.006 246.448 227.597C246.448 229.539 253.31 227.66 253.31 232.136C253.31 234.248 251.347 235.747 247.947 235.747Z" fill="white"/>
<path d="M117.03 258.03H121.675V259.578H114.412V258.353L118.325 254.637C119.282 253.722 119.451 253.145 119.451 252.596C119.451 251.695 118.832 251.175 117.621 251.175C116.664 251.175 115.861 251.498 115.312 252.202L114.032 251.217C114.792 250.189 116.157 249.584 117.776 249.584C119.915 249.584 121.295 250.668 121.295 252.413C121.295 253.371 121.027 254.243 119.662 255.524L117.03 258.03ZM123.967 259.677C123.333 259.677 122.812 259.184 122.812 258.508C122.812 257.805 123.333 257.34 123.967 257.34C124.6 257.34 125.121 257.805 125.121 258.508C125.121 259.184 124.6 259.677 123.967 259.677ZM129.627 249.584C132.316 249.584 133.892 251.315 133.892 254.483C133.892 257.861 131.922 259.719 129.064 259.719C128.079 259.719 127.136 259.508 126.474 259.085L127.15 257.706C127.685 258.058 128.332 258.185 129.022 258.185C130.88 258.185 132.048 257.03 132.048 254.792V254.778C131.457 255.468 130.514 255.806 129.416 255.806C127.473 255.806 126.024 254.623 126.024 252.779C126.024 250.823 127.614 249.584 129.627 249.584ZM129.768 254.37C130.95 254.37 131.767 253.652 131.767 252.681C131.767 251.752 131.035 251.02 129.726 251.02C128.586 251.02 127.797 251.667 127.797 252.695C127.797 253.722 128.571 254.37 129.768 254.37ZM137.553 258.03H142.198V259.578H134.935V258.353L138.848 254.637C139.805 253.722 139.974 253.145 139.974 252.596C139.974 251.695 139.355 251.175 138.144 251.175C137.187 251.175 136.385 251.498 135.836 252.202L134.555 251.217C135.315 250.189 136.68 249.584 138.299 249.584C140.439 249.584 141.818 250.668 141.818 252.413C141.818 253.371 141.551 254.243 140.185 255.524L137.553 258.03ZM145.588 255.031C144.18 255.031 143.237 253.948 143.237 252.329C143.237 250.71 144.18 249.626 145.588 249.626C146.995 249.626 147.953 250.696 147.953 252.329C147.953 253.962 146.995 255.031 145.588 255.031ZM144.771 259.578L151.5 249.725H152.879L146.151 259.578H144.771ZM145.588 254.046C146.348 254.046 146.798 253.427 146.798 252.329C146.798 251.231 146.348 250.612 145.588 250.612C144.856 250.612 144.377 251.245 144.377 252.329C144.377 253.413 144.856 254.046 145.588 254.046ZM152.049 259.677C150.641 259.677 149.698 258.593 149.698 256.974C149.698 255.355 150.641 254.271 152.049 254.271C153.456 254.271 154.414 255.355 154.414 256.974C154.414 258.593 153.456 259.677 152.049 259.677ZM152.049 258.691C152.795 258.691 153.259 258.058 153.259 256.974C153.259 255.89 152.795 255.257 152.049 255.257C151.303 255.257 150.838 255.876 150.838 256.974C150.838 258.072 151.303 258.691 152.049 258.691Z" fill="#7EC897"/>
<path d="M161.76 250.682C161.267 250.682 160.915 250.316 160.915 249.866C160.915 249.345 161.31 248.922 161.887 248.922C162.379 248.922 162.745 249.288 162.745 249.711C162.745 250.288 162.337 250.682 161.76 250.682ZM159.212 259.578L160.69 252.118H162.042L160.564 259.578H159.212ZM168.436 252.047C170.126 252.047 171.139 252.934 171.139 254.525C171.139 254.792 171.111 255.088 171.055 255.397L170.224 259.578H168.873L169.703 255.397C169.745 255.172 169.774 254.961 169.774 254.778C169.774 253.807 169.211 253.258 168.042 253.258C166.592 253.258 165.607 254.032 165.283 255.637L164.495 259.578H163.144L164.622 252.118H165.917L165.734 253.075C166.423 252.371 167.367 252.047 168.436 252.047ZM179.306 253.23L178.504 257.199C178.476 257.34 178.462 257.467 178.462 257.593C178.462 258.171 178.771 258.522 179.447 258.522C179.813 258.522 180.207 258.396 180.517 258.171L180.798 259.198C180.292 259.55 179.658 259.663 179.067 259.663C177.899 259.663 177.096 258.959 177.096 257.79C177.096 257.622 177.11 257.424 177.153 257.227L177.955 253.23H176.688L176.899 252.118H178.18L178.504 250.485H179.855L179.532 252.118H181.671L181.446 253.23H179.306ZM187.626 252.047C189.315 252.047 190.329 252.934 190.329 254.525C190.329 254.792 190.301 255.088 190.244 255.397L189.414 259.578H188.063L188.893 255.397C188.935 255.172 188.963 254.961 188.963 254.778C188.963 253.807 188.4 253.258 187.232 253.258C185.782 253.258 184.797 254.032 184.473 255.637L183.685 259.578H182.334L184.417 249.134H185.768L184.994 252.99C185.684 252.343 186.585 252.047 187.626 252.047ZM199.388 256.27H193.265V256.355C193.265 257.72 194.025 258.48 195.63 258.48C196.559 258.48 197.404 258.142 197.938 257.622L198.516 258.593C197.784 259.283 196.657 259.663 195.517 259.663C193.307 259.663 191.942 258.396 191.942 256.425C191.942 253.891 193.716 252.047 196.151 252.047C198.164 252.047 199.487 253.258 199.487 255.271C199.487 255.623 199.445 255.961 199.388 256.27ZM196.094 253.173C194.743 253.173 193.744 253.99 193.406 255.285H198.22C198.29 253.919 197.418 253.173 196.094 253.173ZM204.341 259.578L206.425 249.134H207.776L205.693 259.578H204.341ZM215.424 252.118H216.775L215.297 259.578H214.002L214.185 258.663C213.523 259.297 212.622 259.663 211.553 259.663C209.652 259.663 208.259 258.452 208.259 256.439C208.259 253.877 210.061 252.047 212.482 252.047C213.763 252.047 214.692 252.512 215.17 253.385L215.424 252.118ZM211.848 258.48C213.537 258.48 214.762 257.171 214.762 255.327C214.762 254.004 213.96 253.23 212.538 253.23C210.863 253.23 209.624 254.539 209.624 256.383C209.624 257.692 210.427 258.48 211.848 258.48ZM220.219 259.663C218.952 259.663 217.755 259.297 217.15 258.804L217.755 257.734C218.332 258.199 219.332 258.494 220.345 258.494C221.64 258.494 222.302 258.086 222.302 257.396C222.302 255.946 218.163 256.988 218.163 254.468C218.163 252.99 219.501 252.047 221.542 252.047C222.527 252.047 223.541 252.301 224.146 252.723L223.611 253.793C223.006 253.371 222.175 253.202 221.415 253.202C220.162 253.202 219.515 253.666 219.515 254.314C219.515 255.82 223.639 254.764 223.639 257.241C223.639 258.79 222.246 259.663 220.219 259.663ZM227.721 253.23L226.919 257.199C226.89 257.34 226.876 257.467 226.876 257.593C226.876 258.171 227.186 258.522 227.862 258.522C228.228 258.522 228.622 258.396 228.931 258.171L229.213 259.198C228.706 259.55 228.073 259.663 227.482 259.663C226.313 259.663 225.511 258.959 225.511 257.79C225.511 257.622 225.525 257.424 225.567 257.227L226.37 253.23H225.103L225.314 252.118H226.595L226.919 250.485H228.27L227.946 252.118H230.086L229.86 253.23H227.721ZM245.142 252.047C246.831 252.047 247.83 252.934 247.83 254.511C247.83 254.778 247.788 255.074 247.732 255.397L246.901 259.578H245.55L246.381 255.397C246.423 255.158 246.451 254.947 246.451 254.75C246.451 253.793 245.916 253.258 244.804 253.258C243.439 253.258 242.51 254.018 242.186 255.595L241.384 259.578H240.032L240.877 255.397C240.919 255.172 240.947 254.961 240.947 254.764C240.947 253.807 240.412 253.258 239.286 253.258C237.907 253.258 236.992 254.032 236.668 255.637L235.88 259.578H234.528L236.006 252.118H237.301L237.118 253.047C237.794 252.357 238.695 252.047 239.708 252.047C240.877 252.047 241.721 252.512 242.101 253.371C242.862 252.484 243.903 252.047 245.142 252.047ZM252.934 259.663C250.809 259.663 249.429 258.382 249.429 256.439C249.429 253.919 251.259 252.047 253.807 252.047C255.932 252.047 257.298 253.3 257.298 255.257C257.298 257.79 255.482 259.663 252.934 259.663ZM253.019 258.48C254.708 258.48 255.932 257.171 255.932 255.327C255.932 254.004 255.13 253.23 253.708 253.23C252.033 253.23 250.794 254.539 250.794 256.383C250.794 257.692 251.597 258.48 253.019 258.48ZM263.671 252.047C265.36 252.047 266.374 252.934 266.374 254.525C266.374 254.792 266.345 255.088 266.289 255.397L265.459 259.578H264.107L264.938 255.397C264.98 255.172 265.008 254.961 265.008 254.778C265.008 253.807 264.445 253.258 263.277 253.258C261.827 253.258 260.842 254.032 260.518 255.637L259.73 259.578H258.378L259.856 252.118H261.151L260.968 253.075C261.658 252.371 262.601 252.047 263.671 252.047ZM270.761 253.23L269.958 257.199C269.93 257.34 269.916 257.467 269.916 257.593C269.916 258.171 270.226 258.522 270.901 258.522C271.267 258.522 271.662 258.396 271.971 258.171L272.253 259.198C271.746 259.55 271.113 259.663 270.521 259.663C269.353 259.663 268.551 258.959 268.551 257.79C268.551 257.622 268.565 257.424 268.607 257.227L269.409 253.23H268.142L268.354 252.118H269.635L269.958 250.485H271.31L270.986 252.118H273.125L272.9 253.23H270.761ZM279.081 252.047C280.77 252.047 281.783 252.934 281.783 254.525C281.783 254.792 281.755 255.088 281.699 255.397L280.868 259.578H279.517L280.347 255.397C280.39 255.172 280.418 254.961 280.418 254.778C280.418 253.807 279.855 253.258 278.686 253.258C277.237 253.258 276.251 254.032 275.928 255.637L275.139 259.578H273.788L275.871 249.134H277.223L276.448 252.99C277.138 252.343 278.039 252.047 279.081 252.047Z" fill="white" fill-opacity="0.7"/>
<rect x="91.4971" y="246.219" width="18.0259" height="18.0259" rx="9.01296" fill="#F1F9F3"/>
<path d="M100.987 258.465V253.145L103.311 255.469C103.497 255.655 103.802 255.655 103.988 255.469C104.174 255.283 104.174 254.983 103.988 254.798L100.849 251.659C100.663 251.473 100.363 251.473 100.177 251.659L97.0338 254.793C96.8481 254.979 96.8481 255.279 97.0338 255.464C97.2196 255.65 97.5197 255.65 97.7054 255.464L100.035 253.145V258.465C100.035 258.727 100.249 258.941 100.511 258.941C100.773 258.941 100.987 258.727 100.987 258.465Z" fill="#7EC897"/>
</g>
<g filter="url(#filter8_d_1944_8170)">
<path d="M307.758 71.7907C307.45 73.2447 308.972 74.4014 310.291 73.7158L333.083 61.8639H309.857L307.758 71.7907Z" fill="#091B37" stroke="url(#paint13_linear_1944_8170)" stroke-width="1.17302"/>
<g filter="url(#filter9_d_1944_8170)">
<rect x="294" y="33" width="129" height="32" rx="9.38416" fill="#091B37"/>
<rect x="294.587" y="33.5865" width="127.827" height="30.827" rx="8.79765" stroke="url(#paint14_linear_1944_8170)" stroke-width="1.17302"/>
</g>
</g>
<path d="M327.721 43.9591H329.706V53.8125H327.721L323.273 46.9996V53.8125H321.288V43.9591H323.273L327.721 50.772V43.9591ZM334.549 53.8125L330.959 43.9873H333.057L335.745 51.8277L338.434 43.9873H340.545L336.942 53.8125H334.549ZM341.798 53.8125V43.9873H343.782V53.8125H341.798ZM347.879 52.3063H349.23C350.262 52.3063 351.065 52.0014 351.637 51.3914C352.21 50.7814 352.496 49.9556 352.496 48.914C352.496 47.8723 352.21 47.0465 351.637 46.4365C351.065 45.8266 350.262 45.5216 349.23 45.5216H347.879V52.3063ZM349.23 43.9873C350.807 43.9873 352.078 44.4377 353.045 45.3386C354.021 46.2395 354.509 47.4313 354.509 48.914C354.509 50.3967 354.021 51.5838 353.045 52.4753C352.078 53.3668 350.807 53.8125 349.23 53.8125H345.894V43.9873H349.23ZM356.066 53.8125V43.9873H358.051V53.8125H356.066ZM366.61 53.8125L365.976 51.9685H362.148L361.514 53.8125H359.417L362.894 43.9591H365.244L368.707 53.8125H366.61ZM362.668 50.4483H365.47L364.062 46.3521L362.668 50.4483ZM380.515 43.9873H382.5V53.8125H380.515V49.6037H376.293V53.8125H374.308V43.9873H376.293V48.0835H380.515V43.9873ZM385.575 53.8125V45.6342H384.083V43.8184H387.602V53.8125H385.575ZM389.696 48.6887C389.696 45.2823 390.959 43.5791 393.483 43.5791C396.017 43.5791 397.283 45.2823 397.283 48.6887C397.283 52.0858 396.017 53.7843 393.483 53.7843C390.959 53.7843 389.696 52.0858 389.696 48.6887ZM394.327 45.592C394.093 45.47 393.816 45.409 393.497 45.409C393.178 45.409 392.901 45.47 392.666 45.592C392.432 45.714 392.249 45.8688 392.118 46.0565C391.996 46.2442 391.897 46.4929 391.822 46.8025C391.747 47.1028 391.695 47.3937 391.667 47.6753C391.648 47.9568 391.639 48.2899 391.639 48.6747C391.639 49.0594 391.648 49.3926 391.667 49.6741C391.695 49.9556 391.747 50.2512 391.822 50.5609C391.897 50.8612 391.996 51.1099 392.118 51.3069C392.249 51.4946 392.432 51.6495 392.666 51.7714C392.901 51.8934 393.178 51.9544 393.497 51.9544C393.816 51.9544 394.093 51.8934 394.327 51.7714C394.562 51.6495 394.74 51.4946 394.862 51.3069C394.994 51.1099 395.097 50.8612 395.172 50.5609C395.247 50.2512 395.294 49.9556 395.313 49.6741C395.341 49.3926 395.355 49.0594 395.355 48.6747C395.355 48.2899 395.341 47.9568 395.313 47.6753C395.294 47.3937 395.247 47.1028 395.172 46.8025C395.097 46.4929 394.994 46.2442 394.862 46.0565C394.74 45.8688 394.562 45.714 394.327 45.592ZM398.796 48.6887C398.796 45.2823 400.059 43.5791 402.583 43.5791C405.117 43.5791 406.384 45.2823 406.384 48.6887C406.384 52.0858 405.117 53.7843 402.583 53.7843C400.059 53.7843 398.796 52.0858 398.796 48.6887ZM403.428 45.592C403.193 45.47 402.916 45.409 402.597 45.409C402.278 45.409 402.001 45.47 401.767 45.592C401.532 45.714 401.349 45.8688 401.218 46.0565C401.096 46.2442 400.997 46.4929 400.922 46.8025C400.847 47.1028 400.795 47.3937 400.767 47.6753C400.748 47.9568 400.739 48.2899 400.739 48.6747C400.739 49.0594 400.748 49.3926 400.767 49.6741C400.795 49.9556 400.847 50.2512 400.922 50.5609C400.997 50.8612 401.096 51.1099 401.218 51.3069C401.349 51.4946 401.532 51.6495 401.767 51.7714C402.001 51.8934 402.278 51.9544 402.597 51.9544C402.916 51.9544 403.193 51.8934 403.428 51.7714C403.662 51.6495 403.84 51.4946 403.962 51.3069C404.094 51.1099 404.197 50.8612 404.272 50.5609C404.347 50.2512 404.394 49.9556 404.413 49.6741C404.441 49.3926 404.455 49.0594 404.455 48.6747C404.455 48.2899 404.441 47.9568 404.413 47.6753C404.394 47.3937 404.347 47.1028 404.272 46.8025C404.197 46.4929 404.094 46.2442 403.962 46.0565C403.84 45.8688 403.662 45.714 403.428 45.592Z" fill="url(#paint15_linear_1944_8170)"/>
<defs>
<filter id="filter0_d_1944_8170" x="20.1159" y="303.989" width="124.871" height="105.078" filterUnits="userSpaceOnUse" color-interpolation-filters="sRGB">
<feFlood flood-opacity="0" result="BackgroundImageFix"/>
<feColorMatrix in="SourceAlpha" type="matrix" values="0 0 0 0 0 0 0 0 0 0 0 0 0 0 0 0 0 0 127 0" result="hardAlpha"/>
<feMorphology radius="2.10868" operator="dilate" in="SourceAlpha" result="effect1_dropShadow_1944_8170"/>
<feOffset dx="-14.0579" dy="14.0579"/>
<feGaussianBlur stdDeviation="7.73183"/>
<feComposite in2="hardAlpha" operator="out"/>
<feColorMatrix type="matrix" values="0 0 0 0 0.168627 0 0 0 0 0.380392 0 0 0 0 0.819608 0 0 0 0.1 0"/>
<feBlend mode="normal" in2="BackgroundImageFix" result="effect1_dropShadow_1944_8170"/>
<feBlend mode="normal" in="SourceGraphic" in2="effect1_dropShadow_1944_8170" result="shape"/>
</filter>
<filter id="filter1_d_1944_8170" x="53.0429" y="312.546" width="103.826" height="103.827" filterUnits="userSpaceOnUse" color-interpolation-filters="sRGB">
<feFlood flood-opacity="0" result="BackgroundImageFix"/>
<feColorMatrix in="SourceAlpha" type="matrix" values="0 0 0 0 0 0 0 0 0 0 0 0 0 0 0 0 0 0 127 0" result="hardAlpha"/>
<feMorphology radius="2.1076" operator="dilate" in="SourceAlpha" result="effect1_dropShadow_1944_8170"/>
<feOffset dx="15.807" dy="15.807"/>
<feGaussianBlur stdDeviation="13.1725"/>
<feComposite in2="hardAlpha" operator="out"/>
<feColorMatrix type="matrix" values="0 0 0 0 0.168627 0 0 0 0 0.380392 0 0 0 0 0.819608 0 0 0 0.1 0"/>
<feBlend mode="normal" in2="BackgroundImageFix" result="effect1_dropShadow_1944_8170"/>
<feBlend mode="normal" in="SourceGraphic" in2="effect1_dropShadow_1944_8170" result="shape"/>
</filter>
<filter id="filter2_d_1944_8170" x="157.443" y="51.0012" width="187.31" height="144.356" filterUnits="userSpaceOnUse" color-interpolation-filters="sRGB">
<feFlood flood-opacity="0" result="BackgroundImageFix"/>
<feColorMatrix in="SourceAlpha" type="matrix" values="0 0 0 0 0 0 0 0 0 0 0 0 0 0 0 0 0 0 127 0" result="hardAlpha"/>
<feMorphology radius="2.10868" operator="dilate" in="SourceAlpha" result="effect1_dropShadow_1944_8170"/>
<feOffset dx="-14.0579" dy="14.0579"/>
<feGaussianBlur stdDeviation="7.73183"/>
<feComposite in2="hardAlpha" operator="out"/>
<feColorMatrix type="matrix" values="0 0 0 0 0.168627 0 0 0 0 0.380392 0 0 0 0 0.819608 0 0 0 0.1 0"/>
<feBlend mode="normal" in2="BackgroundImageFix" result="effect1_dropShadow_1944_8170"/>
<feBlend mode="normal" in="SourceGraphic" in2="effect1_dropShadow_1944_8170" result="shape"/>
</filter>
<filter id="filter3_d_1944_8170" x="235.935" y="41.4811" width="95.2831" height="95.2841" filterUnits="userSpaceOnUse" color-interpolation-filters="sRGB">
<feFlood flood-opacity="0" result="BackgroundImageFix"/>
<feColorMatrix in="SourceAlpha" type="matrix" values="0 0 0 0 0 0 0 0 0 0 0 0 0 0 0 0 0 0 127 0" result="hardAlpha"/>
<feMorphology radius="2.19828" operator="dilate" in="SourceAlpha" result="effect1_dropShadow_1944_8170"/>
<feOffset dx="4.39656" dy="4.39656"/>
<feGaussianBlur stdDeviation="10.9914"/>
<feComposite in2="hardAlpha" operator="out"/>
<feColorMatrix type="matrix" values="0 0 0 0 0.168627 0 0 0 0 0.380392 0 0 0 0 0.819608 0 0 0 0.1 0"/>
<feBlend mode="normal" in2="BackgroundImageFix" result="effect1_dropShadow_1944_8170"/>
<feBlend mode="normal" in="SourceGraphic" in2="effect1_dropShadow_1944_8170" result="shape"/>
</filter>
<filter id="filter4_d_1944_8170" x="299.271" y="217.43" width="95.2831" height="95.2841" filterUnits="userSpaceOnUse" color-interpolation-filters="sRGB">
<feFlood flood-opacity="0" result="BackgroundImageFix"/>
<feColorMatrix in="SourceAlpha" type="matrix" values="0 0 0 0 0 0 0 0 0 0 0 0 0 0 0 0 0 0 127 0" result="hardAlpha"/>
<feMorphology radius="2.19828" operator="dilate" in="SourceAlpha" result="effect1_dropShadow_1944_8170"/>
<feOffset dx="4.39656" dy="4.39656"/>
<feGaussianBlur stdDeviation="10.9914"/>
<feComposite in2="hardAlpha" operator="out"/>
<feColorMatrix type="matrix" values="0 0 0 0 0.168627 0 0 0 0 0.380392 0 0 0 0 0.819608 0 0 0 0.1 0"/>
<feBlend mode="normal" in2="BackgroundImageFix" result="effect1_dropShadow_1944_8170"/>
<feBlend mode="normal" in="SourceGraphic" in2="effect1_dropShadow_1944_8170" result="shape"/>
</filter>
<filter id="filter5_bd_1944_8170" x="154.909" y="294.765" width="159.384" height="159.385" filterUnits="userSpaceOnUse" color-interpolation-filters="sRGB">
<feFlood flood-opacity="0" result="BackgroundImageFix"/>
<feGaussianBlur in="BackgroundImageFix" stdDeviation="28.1157"/>
<feComposite in2="SourceAlpha" operator="in" result="effect1_backgroundBlur_1944_8170"/>
<feColorMatrix in="SourceAlpha" type="matrix" values="0 0 0 0 0 0 0 0 0 0 0 0 0 0 0 0 0 0 127 0" result="hardAlpha"/>
<feMorphology radius="2.1076" operator="dilate" in="SourceAlpha" result="effect2_dropShadow_1944_8170"/>
<feOffset dx="15.807" dy="15.807"/>
<feGaussianBlur stdDeviation="13.1725"/>
<feComposite in2="hardAlpha" operator="out"/>
<feColorMatrix type="matrix" values="0 0 0 0 0.168627 0 0 0 0 0.380392 0 0 0 0 0.819608 0 0 0 0.1 0"/>
<feBlend mode="normal" in2="effect1_backgroundBlur_1944_8170" result="effect2_dropShadow_1944_8170"/>
<feBlend mode="normal" in="SourceGraphic" in2="effect2_dropShadow_1944_8170" result="shape"/>
</filter>
<filter id="filter6_d_1944_8170" x="-12.7484" y="207.274" width="95.2831" height="95.2841" filterUnits="userSpaceOnUse" color-interpolation-filters="sRGB">
<feFlood flood-opacity="0" result="BackgroundImageFix"/>
<feColorMatrix in="SourceAlpha" type="matrix" values="0 0 0 0 0 0 0 0 0 0 0 0 0 0 0 0 0 0 127 0" result="hardAlpha"/>
<feMorphology radius="2.19828" operator="dilate" in="SourceAlpha" result="effect1_dropShadow_1944_8170"/>
<feOffset dx="4.39656" dy="4.39656"/>
<feGaussianBlur stdDeviation="10.9914"/>
<feComposite in2="hardAlpha" operator="out"/>
<feColorMatrix type="matrix" values="0 0 0 0 0.168627 0 0 0 0 0.380392 0 0 0 0 0.819608 0 0 0 0.1 0"/>
<feBlend mode="normal" in2="BackgroundImageFix" result="effect1_dropShadow_1944_8170"/>
<feBlend mode="normal" in="SourceGraphic" in2="effect1_dropShadow_1944_8170" result="shape"/>
</filter>
<filter id="filter7_d_1944_8170" x="45.8991" y="52.0358" width="95.2831" height="95.2841" filterUnits="userSpaceOnUse" color-interpolation-filters="sRGB">
<feFlood flood-opacity="0" result="BackgroundImageFix"/>
<feColorMatrix in="SourceAlpha" type="matrix" values="0 0 0 0 0 0 0 0 0 0 0 0 0 0 0 0 0 0 127 0" result="hardAlpha"/>
<feMorphology radius="2.19828" operator="dilate" in="SourceAlpha" result="effect1_dropShadow_1944_8170"/>
<feOffset dx="4.39656" dy="4.39656"/>
<feGaussianBlur stdDeviation="10.9914"/>
<feComposite in2="hardAlpha" operator="out"/>
<feColorMatrix type="matrix" values="0 0 0 0 0.168627 0 0 0 0 0.380392 0 0 0 0 0.819608 0 0 0 0.1 0"/>
<feBlend mode="normal" in2="BackgroundImageFix" result="effect1_dropShadow_1944_8170"/>
<feBlend mode="normal" in="SourceGraphic" in2="effect1_dropShadow_1944_8170" result="shape"/>
</filter>
<filter id="filter8_d_1944_8170" x="274.215" y="13.2155" width="177.362" height="89.87" filterUnits="userSpaceOnUse" color-interpolation-filters="sRGB">
<feFlood flood-opacity="0" result="BackgroundImageFix"/>
<feColorMatrix in="SourceAlpha" type="matrix" values="0 0 0 0 0 0 0 0 0 0 0 0 0 0 0 0 0 0 127 0" result="hardAlpha"/>
<feMorphology radius="2.19828" operator="dilate" in="SourceAlpha" result="effect1_dropShadow_1944_8170"/>
<feOffset dx="4.39656" dy="4.39656"/>
<feGaussianBlur stdDeviation="10.9914"/>
<feComposite in2="hardAlpha" operator="out"/>
<feColorMatrix type="matrix" values="0 0 0 0 0.168627 0 0 0 0 0.380392 0 0 0 0 0.819608 0 0 0 0.1 0"/>
<feBlend mode="normal" in2="BackgroundImageFix" result="effect1_dropShadow_1944_8170"/>
<feBlend mode="normal" in="SourceGraphic" in2="effect1_dropShadow_1944_8170" result="shape"/>
</filter>
<filter id="filter9_d_1944_8170" x="261.155" y="0.155427" width="204.073" height="107.073" filterUnits="userSpaceOnUse" color-interpolation-filters="sRGB">
<feFlood flood-opacity="0" result="BackgroundImageFix"/>
<feColorMatrix in="SourceAlpha" type="matrix" values="0 0 0 0 0 0 0 0 0 0 0 0 0 0 0 0 0 0 127 0" result="hardAlpha"/>
<feOffset dx="4.69208" dy="4.69208"/>
<feGaussianBlur stdDeviation="18.7683"/>
<feComposite in2="hardAlpha" operator="out"/>
<feColorMatrix type="matrix" values="0 0 0 0 0 0 0 0 0 0 0 0 0 0 0 0 0 0 0.07 0"/>
<feBlend mode="normal" in2="BackgroundImageFix" result="effect1_dropShadow_1944_8170"/>
<feBlend mode="normal" in="SourceGraphic" in2="effect1_dropShadow_1944_8170" result="shape"/>
</filter>
<linearGradient id="paint0_linear_1944_8170" x1="55.775" y1="348.652" x2="112.563" y2="350.141" gradientUnits="userSpaceOnUse">
<stop stop-color="#D2EEFF"/>
<stop offset="0.234375" stop-color="#5CBDFF"/>
<stop offset="0.510417" stop-color="#528EFC"/>
<stop offset="0.723958" stop-color="#8B94F3"/>
<stop offset="1" stop-color="#A08FCE"/>
</linearGradient>
<linearGradient id="paint1_linear_1944_8170" x1="74.1539" y1="348.77" x2="99.5661" y2="349.506" gradientUnits="userSpaceOnUse">
<stop stop-color="#D2EEFF"/>
<stop offset="0.234375" stop-color="#5CBDFF"/>
<stop offset="0.510417" stop-color="#528EFC"/>
<stop offset="0.723958" stop-color="#8B94F3"/>
<stop offset="1" stop-color="#A08FCE"/>
</linearGradient>
<linearGradient id="paint2_linear_1944_8170" x1="245.806" y1="84.7261" x2="302.594" y2="86.2155" gradientUnits="userSpaceOnUse">
<stop stop-color="#D2EEFF"/>
<stop offset="0.234375" stop-color="#5CBDFF"/>
<stop offset="0.510417" stop-color="#528EFC"/>
<stop offset="0.723958" stop-color="#8B94F3"/>
<stop offset="1" stop-color="#A08FCE"/>
</linearGradient>
<linearGradient id="paint3_linear_1944_8170" x1="255.998" y1="84.8438" x2="294.678" y2="86.5524" gradientUnits="userSpaceOnUse">
<stop stop-color="#D2EEFF"/>
<stop offset="0.234375" stop-color="#5CBDFF"/>
<stop offset="0.510417" stop-color="#528EFC"/>
<stop offset="0.723958" stop-color="#8B94F3"/>
<stop offset="1" stop-color="#A08FCE"/>
</linearGradient>
<linearGradient id="paint4_linear_1944_8170" x1="309.142" y1="260.675" x2="365.93" y2="262.165" gradientUnits="userSpaceOnUse">
<stop stop-color="#D2EEFF"/>
<stop offset="0.234375" stop-color="#5CBDFF"/>
<stop offset="0.510417" stop-color="#528EFC"/>
<stop offset="0.723958" stop-color="#8B94F3"/>
<stop offset="1" stop-color="#A08FCE"/>
</linearGradient>
<linearGradient id="paint5_linear_1944_8170" x1="317.315" y1="260.793" x2="360.808" y2="262.954" gradientUnits="userSpaceOnUse">
<stop stop-color="#D2EEFF"/>
<stop offset="0.234375" stop-color="#5CBDFF"/>
<stop offset="0.510417" stop-color="#528EFC"/>
<stop offset="0.723958" stop-color="#8B94F3"/>
<stop offset="1" stop-color="#A08FCE"/>
</linearGradient>
<linearGradient id="paint6_linear_1944_8170" x1="201.227" y1="374.457" x2="258.015" y2="375.946" gradientUnits="userSpaceOnUse">
<stop stop-color="#D2EEFF"/>
<stop offset="0.234375" stop-color="#5CBDFF"/>
<stop offset="0.510417" stop-color="#528EFC"/>
<stop offset="0.723958" stop-color="#8B94F3"/>
<stop offset="1" stop-color="#A08FCE"/>
</linearGradient>
<linearGradient id="paint7_linear_1944_8170" x1="209.4" y1="374.574" x2="252.893" y2="376.736" gradientUnits="userSpaceOnUse">
<stop stop-color="#D2EEFF"/>
<stop offset="0.234375" stop-color="#5CBDFF"/>
<stop offset="0.510417" stop-color="#528EFC"/>
<stop offset="0.723958" stop-color="#8B94F3"/>
<stop offset="1" stop-color="#A08FCE"/>
</linearGradient>
<linearGradient id="paint8_linear_1944_8170" x1="-2.87735" y1="250.519" x2="53.9105" y2="252.009" gradientUnits="userSpaceOnUse">
<stop stop-color="#D2EEFF"/>
<stop offset="0.234375" stop-color="#5CBDFF"/>
<stop offset="0.510417" stop-color="#528EFC"/>
<stop offset="0.723958" stop-color="#8B94F3"/>
<stop offset="1" stop-color="#A08FCE"/>
</linearGradient>
<linearGradient id="paint9_linear_1944_8170" x1="7.52548" y1="250.637" x2="45.0017" y2="252.24" gradientUnits="userSpaceOnUse">
<stop stop-color="#D2EEFF"/>
<stop offset="0.234375" stop-color="#5CBDFF"/>
<stop offset="0.510417" stop-color="#528EFC"/>
<stop offset="0.723958" stop-color="#8B94F3"/>
<stop offset="1" stop-color="#A08FCE"/>
</linearGradient>
<linearGradient id="paint10_linear_1944_8170" x1="55.7701" y1="95.2808" x2="112.558" y2="96.7702" gradientUnits="userSpaceOnUse">
<stop stop-color="#D2EEFF"/>
<stop offset="0.234375" stop-color="#5CBDFF"/>
<stop offset="0.510417" stop-color="#528EFC"/>
<stop offset="0.723958" stop-color="#8B94F3"/>
<stop offset="1" stop-color="#A08FCE"/>
</linearGradient>
<linearGradient id="paint11_linear_1944_8170" x1="70.8666" y1="95.5962" x2="108.378" y2="95.5275" gradientUnits="userSpaceOnUse">
<stop stop-color="#D2EEFF"/>
<stop offset="0.234375" stop-color="#5CBDFF"/>
<stop offset="0.510417" stop-color="#528EFC"/>
<stop offset="0.723958" stop-color="#8B94F3"/>
<stop offset="1" stop-color="#A08FCE"/>
</linearGradient>
<linearGradient id="paint12_linear_1944_8170" x1="160.907" y1="193.614" x2="214.212" y2="193.552" gradientUnits="userSpaceOnUse">
<stop stop-color="#D2EEFF"/>
<stop offset="0.234375" stop-color="#5CBDFF"/>
<stop offset="0.510417" stop-color="#528EFC"/>
<stop offset="0.723958" stop-color="#8B94F3"/>
<stop offset="1" stop-color="#A08FCE"/>
</linearGradient>
<linearGradient id="paint13_linear_1944_8170" x1="341.678" y1="68.902" x2="306.252" y2="70.6889" gradientUnits="userSpaceOnUse">
<stop stop-color="#D2EEFF"/>
<stop offset="0.234375" stop-color="#5CBDFF"/>
<stop offset="0.510417" stop-color="#528EFC"/>
<stop offset="0.723958" stop-color="#8B94F3"/>
<stop offset="1" stop-color="#A08FCE"/>
</linearGradient>
<linearGradient id="paint14_linear_1944_8170" x1="266.745" y1="49" x2="421.252" y2="65.3365" gradientUnits="userSpaceOnUse">
<stop stop-color="#D2EEFF"/>
<stop offset="0.234375" stop-color="#5CBDFF"/>
<stop offset="0.510417" stop-color="#528EFC"/>
<stop offset="0.723958" stop-color="#8B94F3"/>
<stop offset="1" stop-color="#A08FCE"/>
</linearGradient>
<linearGradient id="paint15_linear_1944_8170" x1="301.851" y1="49.3125" x2="406.192" y2="59.6643" gradientUnits="userSpaceOnUse">
<stop stop-color="#D2EEFF"/>
<stop offset="0.234375" stop-color="#5CBDFF"/>
<stop offset="0.510417" stop-color="#528EFC"/>
<stop offset="0.723958" stop-color="#8B94F3"/>
<stop offset="1" stop-color="#A08FCE"/>
</linearGradient>
</defs>
</svg>
