<svg width="24" height="25" viewBox="0 0 24 25" fill="none" xmlns="http://www.w3.org/2000/svg">
<g id="Logo">
<path id="Shape" d="M16.8503 0.296875H7.14973C3.20735 0.296875 0 3.50423 0 7.4466V17.1471C0 21.0895 3.20735 24.2969 7.14973 24.2969H16.8503C20.7926 24.2969 24 21.0895 24 17.1471V7.4466C24 3.50423 20.7926 0.296875 16.8503 0.296875ZM21.5856 17.1471C21.5856 19.7624 19.4655 21.8825 16.8503 21.8825H7.14973C4.5345 21.8825 2.4144 19.7624 2.4144 17.1471V7.4466C2.4144 4.83133 4.5345 2.71127 7.14973 2.71127H16.8503C19.4655 2.71127 21.5856 4.83133 21.5856 7.4466V17.1471Z" fill="white"/>
<path id="Shape_2" d="M12.0002 6.08984C8.57754 6.08984 5.79297 8.87441 5.79297 12.2971C5.79297 15.7197 8.57754 18.5043 12.0002 18.5043C15.4229 18.5043 18.2075 15.7197 18.2075 12.2971C18.2075 8.87437 15.4229 6.08984 12.0002 6.08984ZM12.0002 16.09C9.90547 16.09 8.20737 14.3918 8.20737 12.2971C8.20737 10.2023 9.90551 8.50424 12.0002 8.50424C14.095 8.50424 15.7931 10.2023 15.7931 12.2971C15.7931 14.3918 14.0949 16.09 12.0002 16.09Z" fill="white"/>
<path id="Shape_3" d="M18.2188 7.62312C19.0402 7.62312 19.7061 6.95722 19.7061 6.13578C19.7061 5.31434 19.0402 4.64844 18.2188 4.64844C17.3974 4.64844 16.7314 5.31434 16.7314 6.13578C16.7314 6.95722 17.3974 7.62312 18.2188 7.62312Z" fill="white"/>
</g>
</svg>
