<svg width="233" height="41" viewBox="0 0 233 41" fill="none" xmlns="http://www.w3.org/2000/svg">
<path d="M36.1711 12.0197L31.2133 7.06183C31.165 7.01354 31.1379 6.94804 31.1379 6.87974C31.1379 6.81145 31.165 6.74595 31.2133 6.69766L36.1716 1.73935C36.1955 1.71548 36.2238 1.69655 36.2549 1.68363C36.2861 1.67071 36.3195 1.66406 36.3533 1.66406C36.387 1.66406 36.4204 1.67071 36.4516 1.68363C36.4828 1.69655 36.5111 1.71548 36.5349 1.73935L41.4932 6.69766C41.5172 6.72157 41.5361 6.74995 41.5491 6.7812C41.562 6.81244 41.5687 6.84593 41.5687 6.87974C41.5687 6.91356 41.562 6.94705 41.5491 6.97829C41.5361 7.00953 41.5172 7.03792 41.4932 7.06183L36.5354 12.0197C36.5115 12.0436 36.4831 12.0626 36.4519 12.0755C36.4206 12.0885 36.3871 12.0952 36.3533 12.0952C36.3194 12.0952 36.2859 12.0885 36.2547 12.0755C36.2234 12.0626 36.1951 12.0436 36.1711 12.0197ZM34.8567 12.7421L30.4909 8.37629C30.4425 8.3279 30.3769 8.30072 30.3084 8.30072C30.24 8.30072 30.1744 8.3279 30.126 8.37629L25.7602 12.7421C25.7362 12.766 25.7172 12.7945 25.7042 12.8258C25.6912 12.8571 25.6846 12.8907 25.6846 12.9246C25.6846 12.9585 25.6912 12.992 25.7042 13.0234C25.7172 13.0547 25.7362 13.0831 25.7602 13.1071L30.1267 17.4736C30.1506 17.4975 30.1789 17.5164 30.2101 17.5293C30.2413 17.5423 30.2747 17.5489 30.3084 17.5489C30.3422 17.5489 30.3756 17.5423 30.4068 17.5293C30.438 17.5164 30.4663 17.4975 30.4901 17.4736L34.8567 13.1071C34.9051 13.0587 34.9323 12.993 34.9323 12.9246C34.9323 12.8561 34.9051 12.7905 34.8567 12.7421ZM46.9464 12.7421L42.5806 8.37629C42.5322 8.3279 42.4665 8.30072 42.3981 8.30072C42.3297 8.30072 42.264 8.3279 42.2156 8.37629L37.8499 12.7421C37.8015 12.7905 37.7743 12.8561 37.7743 12.9246C37.7743 12.993 37.8015 13.0587 37.8499 13.1071L42.2156 17.4729C42.264 17.5213 42.3297 17.5484 42.3981 17.5484C42.4665 17.5484 42.5322 17.5213 42.5806 17.4729L46.9464 13.1071C46.9947 13.0587 47.0219 12.993 47.0219 12.9246C47.0219 12.8561 46.9947 12.7905 46.9464 12.7421ZM28.2213 18.7877L24.4454 15.0117C24.3972 14.9635 24.3318 14.9364 24.2636 14.9364C24.1954 14.9364 24.1301 14.9635 24.0819 15.0117L20.3059 18.7877C20.2821 18.8116 20.2631 18.8399 20.2502 18.8711C20.2373 18.9023 20.2307 18.9357 20.2307 18.9694C20.2307 19.0032 20.2373 19.0366 20.2502 19.0678C20.2631 19.0989 20.2821 19.1273 20.3059 19.1511L24.0819 22.9271C24.1301 22.9753 24.1954 23.0024 24.2636 23.0024C24.3318 23.0024 24.3972 22.9753 24.4454 22.9271L28.2213 19.1511C28.2695 19.1029 28.2965 19.0375 28.2965 18.9694C28.2965 18.9013 28.2695 18.8359 28.2213 18.7877ZM40.3109 18.7877L36.535 15.0117C36.4868 14.9635 36.4214 14.9364 36.3533 14.9364C36.2851 14.9364 36.2197 14.9635 36.1715 15.0117L32.3956 18.7877C32.3718 18.8116 32.3528 18.8399 32.3399 18.8711C32.327 18.9023 32.3203 18.9357 32.3203 18.9694C32.3203 19.0032 32.327 19.0366 32.3399 19.0678C32.3528 19.0989 32.3718 19.1273 32.3956 19.1511L36.1715 22.9271C36.2197 22.9753 36.2851 23.0024 36.3533 23.0024C36.4214 23.0024 36.4868 22.9753 36.535 22.9271L40.3109 19.1511C40.3348 19.1273 40.3537 19.0989 40.3666 19.0677C40.3795 19.0366 40.3862 19.0032 40.3862 18.9694C40.3862 18.9357 40.3795 18.9022 40.3666 18.8711C40.3537 18.8399 40.3348 18.8116 40.3109 18.7877ZM52.4006 18.7877L48.6247 15.0117C48.5765 14.9635 48.5111 14.9364 48.443 14.9364C48.3748 14.9364 48.3094 14.9635 48.2612 15.0117L44.4853 18.7877C44.4615 18.8116 44.4425 18.8399 44.4296 18.8711C44.4167 18.9023 44.41 18.9357 44.41 18.9694C44.41 19.0032 44.4167 19.0366 44.4296 19.0678C44.4425 19.0989 44.4615 19.1273 44.4853 19.1511L48.2612 22.9271C48.3094 22.9753 48.3748 23.0024 48.4429 23.0024C48.5111 23.0024 48.5765 22.9753 48.6247 22.9271L52.4006 19.1511C52.4245 19.1273 52.4434 19.0989 52.4563 19.0677C52.4692 19.0366 52.4759 19.0032 52.4759 18.9694C52.4759 18.9357 52.4692 18.9022 52.4563 18.8711C52.4434 18.8399 52.4245 18.8116 52.4006 18.7877ZM21.5852 24.8327L18.4004 21.6479C18.3765 21.624 18.3482 21.6051 18.317 21.5922C18.2859 21.5793 18.2525 21.5726 18.2187 21.5726C18.185 21.5726 18.1516 21.5793 18.1204 21.5922C18.0892 21.6051 18.0609 21.624 18.0371 21.6479L14.8523 24.8327C14.8284 24.8565 14.8095 24.8848 14.7966 24.916C14.7837 24.9471 14.7771 24.9805 14.7771 25.0143C14.7771 25.048 14.7837 25.0814 14.7966 25.1125C14.8095 25.1437 14.8284 25.172 14.8523 25.1958L18.0372 28.3807C18.0853 28.4289 18.1507 28.4559 18.2188 28.4559C18.2869 28.4559 18.3522 28.4289 18.4004 28.3807L21.5852 25.1958C21.609 25.172 21.628 25.1437 21.6409 25.1125C21.6538 25.0814 21.6604 25.048 21.6604 25.0142C21.6604 24.9805 21.6538 24.9471 21.6409 24.916C21.628 24.8848 21.609 24.8565 21.5852 24.8327ZM33.6749 24.8327L30.4901 21.6479C30.4663 21.624 30.4379 21.6051 30.4068 21.5922C30.3756 21.5793 30.3422 21.5726 30.3084 21.5726C30.2747 21.5726 30.2413 21.5793 30.2101 21.5922C30.1789 21.6051 30.1506 21.624 30.1267 21.6479L26.9419 24.8327C26.9181 24.8565 26.8992 24.8848 26.8863 24.916C26.8734 24.9471 26.8667 24.9805 26.8667 25.0143C26.8667 25.048 26.8734 25.0814 26.8863 25.1125C26.8992 25.1437 26.9181 25.172 26.9419 25.1958L30.1268 28.3807C30.175 28.4289 30.2403 28.4559 30.3084 28.4559C30.3765 28.4559 30.4419 28.4289 30.49 28.3807L33.6749 25.1958C33.6987 25.172 33.7177 25.1437 33.7306 25.1125C33.7435 25.0814 33.7501 25.048 33.7501 25.0143C33.7501 24.9805 33.7435 24.9471 33.7306 24.916C33.7177 24.8848 33.6988 24.8565 33.6749 24.8327ZM45.7646 24.8327L42.5797 21.6478C42.5315 21.5997 42.4662 21.5726 42.3981 21.5726C42.33 21.5726 42.2647 21.5997 42.2165 21.6478L39.0316 24.8327C38.9835 24.8808 38.9564 24.9462 38.9564 25.0143C38.9564 25.0823 38.9835 25.1477 39.0316 25.1958L42.2165 28.3807C42.2647 28.4289 42.33 28.4559 42.3981 28.4559C42.4662 28.4559 42.5315 28.4289 42.5797 28.3807L45.7646 25.1958C45.7884 25.172 45.8073 25.1437 45.8203 25.1125C45.8332 25.0814 45.8398 25.048 45.8398 25.0143C45.8398 24.9805 45.8332 24.9471 45.8203 24.916C45.8074 24.8848 45.7884 24.8565 45.7646 24.8327ZM57.8543 24.8327L54.6694 21.6478C54.6212 21.5997 54.5559 21.5726 54.4878 21.5726C54.4196 21.5726 54.3543 21.5997 54.3062 21.6478L51.1213 24.8327C51.0974 24.8565 51.0785 24.8848 51.0656 24.916C51.0527 24.9471 51.0461 24.9805 51.0461 25.0143C51.0461 25.048 51.0527 25.0814 51.0656 25.1125C51.0785 25.1437 51.0974 25.172 51.1213 25.1958L54.3062 28.3807C54.3543 28.4289 54.4196 28.4559 54.4878 28.4559C54.5559 28.4559 54.6212 28.4289 54.6694 28.3807L57.8543 25.1958C57.8781 25.172 57.897 25.1437 57.9099 25.1125C57.9228 25.0814 57.9295 25.048 57.9295 25.0143C57.9295 24.9805 57.9228 24.9471 57.9099 24.916C57.897 24.8848 57.8781 24.8565 57.8543 24.8327ZM14.9485 30.877L12.356 28.2845C12.3077 28.2362 12.2422 28.209 12.1739 28.209C12.1056 28.209 12.0401 28.2362 11.9918 28.2845L9.39926 30.877C9.35097 30.9253 9.32384 30.9908 9.32384 31.0591C9.32384 31.1274 9.35097 31.1929 9.39926 31.2412L11.9918 33.8337C12.0401 33.882 12.1056 33.9091 12.1739 33.9091C12.2422 33.9091 12.3077 33.882 12.356 33.8337L14.9485 31.2412C14.9724 31.2173 14.9914 31.1889 15.0043 31.1576C15.0173 31.1264 15.0239 31.0929 15.0239 31.0591C15.0239 31.0253 15.0173 30.9918 15.0043 30.9605C14.9914 30.9293 14.9724 30.9009 14.9485 30.877ZM27.0382 30.877L24.4457 28.2845C24.3974 28.2362 24.3319 28.209 24.2636 28.209C24.1953 28.209 24.1298 28.2362 24.0815 28.2845L21.4889 30.877C21.4406 30.9253 21.4135 30.9908 21.4135 31.0591C21.4135 31.1274 21.4406 31.1929 21.4889 31.2412L24.0815 33.8337C24.1298 33.882 24.1953 33.9091 24.2636 33.9091C24.3319 33.9091 24.3974 33.882 24.4457 33.8337L27.0382 31.2412C27.0865 31.1929 27.1136 31.1274 27.1136 31.0591C27.1136 30.9908 27.0865 30.9253 27.0382 30.877ZM39.1278 30.877L36.5354 28.2845C36.4871 28.2362 36.4216 28.209 36.3533 28.209C36.285 28.209 36.2195 28.2362 36.1711 28.2845L33.5787 30.877C33.5548 30.9009 33.5358 30.9293 33.5228 30.9605C33.5099 30.9918 33.5032 31.0253 33.5032 31.0591C33.5032 31.0929 33.5099 31.1264 33.5228 31.1576C33.5358 31.1889 33.5548 31.2173 33.5787 31.2412L36.1711 33.8337C36.2195 33.882 36.285 33.9091 36.3533 33.9091C36.4216 33.9091 36.4871 33.882 36.5354 33.8337L39.1278 31.2412C39.1761 31.1929 39.2033 31.1274 39.2033 31.0591C39.2033 30.9908 39.1761 30.9253 39.1278 30.877ZM51.2175 30.877L48.6251 28.2845C48.5768 28.2362 48.5113 28.209 48.443 28.209C48.3746 28.209 48.3091 28.2362 48.2608 28.2845L45.6684 30.877C45.6201 30.9253 45.5929 30.9908 45.5929 31.0591C45.5929 31.1274 45.6201 31.1929 45.6684 31.2412L48.2608 33.8337C48.3091 33.882 48.3746 33.9091 48.443 33.9091C48.5113 33.9091 48.5768 33.882 48.6251 33.8337L51.2175 31.2412C51.2415 31.2173 51.2604 31.1889 51.2734 31.1576C51.2864 31.1264 51.293 31.0929 51.293 31.0591C51.293 31.0253 51.2864 30.9918 51.2734 30.9605C51.2604 30.9293 51.2415 30.9009 51.2175 30.877ZM63.3073 30.877L60.7147 28.2845C60.6664 28.2362 60.6009 28.209 60.5326 28.209C60.4643 28.209 60.3988 28.2362 60.3505 28.2845L57.7581 30.877C57.7341 30.9009 57.7152 30.9293 57.7022 30.9605C57.6893 30.9918 57.6826 31.0253 57.6826 31.0591C57.6826 31.0929 57.6893 31.1264 57.7022 31.1576C57.7152 31.1889 57.7341 31.2173 57.7581 31.2412L60.3505 33.8337C60.3988 33.882 60.4643 33.9091 60.5326 33.9091C60.6009 33.9091 60.6664 33.882 60.7147 33.8337L63.3073 31.2412C63.3556 31.1929 63.3827 31.1274 63.3827 31.0591C63.3827 30.9908 63.3556 30.9253 63.3073 30.877ZM8.31279 36.9223L6.31072 34.9203C6.28686 34.8964 6.25854 34.8775 6.22737 34.8646C6.1962 34.8516 6.16279 34.845 6.12905 34.845C6.09531 34.845 6.0619 34.8516 6.03073 34.8646C5.99955 34.8775 5.97123 34.8964 5.94738 34.9203L3.9454 36.9223C3.92153 36.9461 3.9026 36.9744 3.88968 37.0056C3.87677 37.0368 3.87012 37.0702 3.87012 37.1039C3.87012 37.1377 3.87677 37.1711 3.88968 37.2022C3.9026 37.2334 3.92153 37.2617 3.9454 37.2856L5.9471 39.2873C5.971 39.3112 5.99937 39.3302 6.03059 39.3431C6.06182 39.356 6.09529 39.3627 6.12909 39.3627C6.1629 39.3627 6.19637 39.356 6.22759 39.3431C6.25882 39.3302 6.28719 39.3112 6.31108 39.2873L8.31279 37.2856C8.36094 37.2374 8.38799 37.1721 8.38799 37.1039C8.38799 37.0358 8.36094 36.9705 8.31279 36.9223ZM20.4025 36.9223L18.4004 34.9203C18.3765 34.8964 18.3482 34.8775 18.317 34.8646C18.2859 34.8516 18.2525 34.845 18.2187 34.845C18.185 34.845 18.1516 34.8516 18.1204 34.8646C18.0892 34.8775 18.0609 34.8964 18.0371 34.9203L16.0351 36.9223C16.0112 36.9461 15.9923 36.9744 15.9794 37.0056C15.9665 37.0368 15.9598 37.0702 15.9598 37.1039C15.9598 37.1377 15.9665 37.1711 15.9794 37.2022C15.9923 37.2334 16.0112 37.2617 16.0351 37.2856L18.0366 39.2871C18.0605 39.311 18.0889 39.33 18.1202 39.343C18.1514 39.3559 18.1849 39.3626 18.2188 39.3626C18.2526 39.3626 18.2861 39.3559 18.3174 39.343C18.3486 39.33 18.377 39.311 18.4009 39.2871L20.4025 37.2856C20.4506 37.2374 20.4777 37.1721 20.4777 37.1039C20.4777 37.0358 20.4506 36.9705 20.4025 36.9223ZM32.4921 36.9223L30.4906 34.9208C30.4667 34.8968 30.4383 34.8778 30.407 34.8649C30.3758 34.8519 30.3423 34.8452 30.3084 34.8452C30.2746 34.8452 30.2411 34.8519 30.2098 34.8649C30.1786 34.8778 30.1502 34.8968 30.1262 34.9208L28.1252 36.9217C28.0769 36.9701 28.0498 37.0356 28.0498 37.104C28.0498 37.1723 28.0769 37.2378 28.1252 37.2862L30.1262 39.2872C30.1502 39.3111 30.1786 39.3301 30.2098 39.343C30.2411 39.356 30.2746 39.3627 30.3084 39.3627C30.3423 39.3627 30.3758 39.356 30.407 39.343C30.4383 39.3301 30.4667 39.3111 30.4906 39.2872L32.4921 37.2856C32.516 37.2618 32.5349 37.2335 32.5479 37.2023C32.5608 37.1711 32.5674 37.1377 32.5674 37.104C32.5674 37.0702 32.5608 37.0368 32.5479 37.0056C32.5349 36.9744 32.516 36.9461 32.4921 36.9223ZM44.5812 36.8702L42.5803 34.8693C42.5563 34.8453 42.5279 34.8263 42.4967 34.8134C42.4654 34.8004 42.4319 34.7938 42.3981 34.7938C42.3643 34.7938 42.3307 34.8004 42.2995 34.8134C42.2682 34.8263 42.2398 34.8453 42.2159 34.8693L40.2144 36.8707C40.1905 36.8946 40.1716 36.9229 40.1587 36.9541C40.1458 36.9853 40.1391 37.0187 40.1391 37.0524C40.1391 37.0862 40.1458 37.1196 40.1587 37.1508C40.1716 37.1819 40.1905 37.2103 40.2144 37.2341L42.2159 39.2356C42.2643 39.2839 42.3298 39.3111 42.3981 39.3111C42.4664 39.3111 42.532 39.2839 42.5803 39.2356L44.5813 37.2346C44.6052 37.2107 44.6242 37.1823 44.6371 37.151C44.6501 37.1198 44.6567 37.0863 44.6567 37.0524C44.6567 37.0186 44.6501 36.9851 44.6371 36.9538C44.6242 36.9226 44.6052 36.8942 44.5812 36.8702ZM56.671 36.8702L54.67 34.8693C54.646 34.8453 54.6176 34.8263 54.5864 34.8134C54.5551 34.8004 54.5216 34.7938 54.4878 34.7938C54.4539 34.7938 54.4204 34.8004 54.3892 34.8134C54.3579 34.8263 54.3295 34.8453 54.3056 34.8693L52.3041 36.8707C52.2802 36.8945 52.2613 36.9229 52.2484 36.954C52.2354 36.9852 52.2288 37.0186 52.2288 37.0524C52.2288 37.0861 52.2354 37.1196 52.2484 37.1507C52.2613 37.1819 52.2802 37.2102 52.3041 37.2341L54.3056 39.2356C54.3539 39.2839 54.4194 39.311 54.4878 39.311C54.5561 39.311 54.6216 39.2839 54.67 39.2356L56.671 37.2346C56.7193 37.1862 56.7464 37.1207 56.7464 37.0524C56.7464 36.9841 56.7193 36.9186 56.671 36.8702ZM68.7607 36.8702L66.7596 34.8693C66.7357 34.8453 66.7073 34.8263 66.676 34.8134C66.6448 34.8004 66.6113 34.7938 66.5774 34.7938C66.5436 34.7938 66.5101 34.8004 66.4788 34.8134C66.4476 34.8263 66.4192 34.8453 66.3953 34.8693L64.3937 36.8707C64.3456 36.9189 64.3185 36.9842 64.3185 37.0524C64.3185 37.1205 64.3456 37.1859 64.3937 37.2341L66.3953 39.2356C66.4436 39.2839 66.5091 39.311 66.5774 39.311C66.6458 39.311 66.7113 39.2839 66.7596 39.2356L68.7607 37.2346C68.809 37.1862 68.8361 37.1207 68.8361 37.0524C68.8361 36.9841 68.809 36.9186 68.7607 36.8702ZM48.6247 12.02L53.5833 7.06145C53.6072 7.03759 53.6261 7.00926 53.639 6.97809C53.6519 6.94691 53.6586 6.91349 53.6586 6.87975C53.6586 6.846 53.6519 6.81258 53.639 6.7814C53.6261 6.75023 53.6072 6.7219 53.5833 6.69804L48.6247 1.73935C48.5765 1.69114 48.5111 1.66406 48.443 1.66406C48.3748 1.66406 48.3094 1.69114 48.2612 1.73935L43.3026 6.69804C43.2787 6.7219 43.2598 6.75023 43.2469 6.7814C43.234 6.81258 43.2273 6.846 43.2273 6.87975C43.2273 6.91349 43.234 6.94691 43.2469 6.97809C43.2598 7.00926 43.2787 7.03759 43.3026 7.06145L48.2612 12.02C48.3094 12.0682 48.3748 12.0953 48.443 12.0953C48.5111 12.0953 48.5765 12.0682 48.6247 12.02ZM54.6703 17.4729L59.0361 13.1071C59.06 13.0831 59.0791 13.0547 59.092 13.0234C59.105 12.992 59.1117 12.9585 59.1117 12.9246C59.1117 12.8907 59.105 12.8571 59.092 12.8258C59.0791 12.7945 59.06 12.766 59.0361 12.7421L54.6703 8.37629C54.6219 8.3279 54.5562 8.30072 54.4878 8.30072C54.4194 8.30072 54.3537 8.3279 54.3053 8.37629L49.9396 12.7421C49.8912 12.7905 49.864 12.8561 49.864 12.9246C49.864 12.993 49.8912 13.0587 49.9396 13.1071L54.3053 17.4729C54.3537 17.5212 54.4194 17.5484 54.4878 17.5484C54.5562 17.5484 54.6219 17.5212 54.6703 17.4729ZM60.7144 22.9271L64.4903 19.1511C64.5141 19.1273 64.5331 19.0989 64.546 19.0677C64.5589 19.0366 64.5655 19.0032 64.5655 18.9694C64.5655 18.9357 64.5589 18.9022 64.546 18.8711C64.5331 18.8399 64.5141 18.8116 64.4903 18.7877L60.7144 15.0117C60.6662 14.9635 60.6008 14.9364 60.5326 14.9364C60.4644 14.9364 60.3991 14.9635 60.3509 15.0117L56.575 18.7877C56.5511 18.8116 56.5322 18.8399 56.5192 18.8711C56.5063 18.9023 56.4997 18.9357 56.4997 18.9694C56.4997 19.0032 56.5063 19.0366 56.5192 19.0678C56.5322 19.0989 56.5511 19.1273 56.575 19.1511L60.3509 22.9271C60.3991 22.9753 60.4644 23.0024 60.5326 23.0024C60.6008 23.0024 60.6662 22.9753 60.7144 22.9271ZM66.7591 28.3807L69.9436 25.1962C69.9675 25.1723 69.9864 25.1439 69.9993 25.1127C70.0123 25.0815 70.0189 25.048 70.0189 25.0142C70.0189 24.9804 70.0123 24.947 69.9993 24.9158C69.9864 24.8845 69.9675 24.8562 69.9436 24.8323L66.7591 21.6478C66.7109 21.5996 66.6456 21.5726 66.5774 21.5726C66.5093 21.5726 66.444 21.5996 66.3958 21.6478L63.2111 24.8327C63.1872 24.8565 63.1683 24.8848 63.1553 24.9159C63.1424 24.9471 63.1358 24.9805 63.1358 25.0142C63.1358 25.0479 63.1424 25.0813 63.1553 25.1125C63.1683 25.1437 63.1872 25.172 63.2111 25.1958L66.3958 28.3807C66.444 28.4288 66.5093 28.4559 66.5774 28.4559C66.6456 28.4559 66.7109 28.4288 66.7591 28.3807ZM72.8044 33.8337L75.397 31.2412C75.4453 31.1929 75.4724 31.1274 75.4724 31.0591C75.4724 30.9908 75.4453 30.9253 75.397 30.877L72.8044 28.2845C72.7561 28.2362 72.6906 28.209 72.6223 28.209C72.554 28.209 72.4886 28.2362 72.4403 28.2845L69.8477 30.877C69.7994 30.9253 69.7723 30.9908 69.7723 31.0591C69.7723 31.1274 69.7994 31.1929 69.8477 31.2412L72.4403 33.8337C72.4886 33.882 72.554 33.9091 72.6223 33.9091C72.6906 33.9091 72.7561 33.882 72.8044 33.8337ZM78.8494 39.2356L80.8513 37.2337C80.8994 37.1856 80.9264 37.1204 80.9264 37.0524C80.9264 36.9845 80.8994 36.9193 80.8513 36.8712L78.8494 34.8693C78.8255 34.8454 78.7971 34.8264 78.7658 34.8134C78.7345 34.8005 78.701 34.7938 78.6672 34.7938C78.6333 34.7938 78.5998 34.8005 78.5686 34.8134C78.5373 34.8264 78.5089 34.8454 78.485 34.8693L76.4834 36.8707C76.4353 36.9189 76.4082 36.9843 76.4082 37.0524C76.4082 37.1206 76.4353 37.1859 76.4834 37.2341L78.485 39.2356C78.5333 39.2839 78.5988 39.3111 78.6672 39.3111C78.7355 39.3111 78.8011 39.2839 78.8494 39.2356Z" fill="url(#paint0_linear_1944_8012)"/>
<path d="M117.341 28.0559H106.786C105.187 28.0541 103.653 27.4181 102.523 26.2873C101.392 25.1565 100.756 23.6234 100.754 22.0242V19.0083C100.756 17.4092 101.392 15.876 102.523 14.7452C103.653 13.6144 105.187 12.9784 106.786 12.9766H117.341C118.94 12.9784 120.474 13.6144 121.604 14.7452C122.735 15.876 123.371 17.4092 123.373 19.0083V22.0242C123.371 23.6234 122.735 25.1565 121.604 26.2873C120.474 27.4181 118.94 28.0541 117.341 28.0559ZM106.786 15.9925C105.986 15.9934 105.22 16.3114 104.654 16.8768C104.089 17.4422 103.771 18.2088 103.77 19.0084V22.0243C103.771 22.8238 104.089 23.5904 104.654 24.1558C105.22 24.7212 105.986 25.0392 106.786 25.0401H117.341C118.141 25.0392 118.907 24.7212 119.473 24.1558C120.038 23.5904 120.356 22.8238 120.357 22.0243V19.0083C120.356 18.2088 120.038 17.4422 119.473 16.8768C118.907 16.3114 118.141 15.9934 117.341 15.9925H106.786Z" fill="white"/>
<path d="M141.496 28.0559H131.214C130.422 28.0559 129.638 27.8999 128.906 27.5968C128.174 27.2937 127.509 26.8494 126.949 26.2893C126.389 25.7292 125.945 25.0643 125.642 24.3325C125.339 23.6007 125.183 22.8163 125.183 22.0242V13.2508C125.183 13.1781 125.212 13.1083 125.263 13.0569C125.314 13.0055 125.384 12.9766 125.457 12.9766H127.924C127.997 12.9766 128.067 13.0055 128.118 13.0569C128.17 13.1083 128.199 13.1781 128.199 13.2508V22.0242C128.199 22.8241 128.516 23.5912 129.082 24.1568C129.647 24.7224 130.415 25.0401 131.214 25.0401H141.496C141.568 25.0401 141.638 25.069 141.69 25.1204C141.741 25.1718 141.77 25.2416 141.77 25.3143V27.7818C141.77 27.8178 141.763 27.8534 141.749 27.8867C141.735 27.92 141.715 27.9502 141.69 27.9756C141.664 28.0011 141.634 28.0213 141.601 28.0351C141.567 28.0488 141.532 28.0559 141.496 28.0559Z" fill="white"/>
<path d="M96.9908 13.0934L88.5823 25.1055C88.557 25.1416 88.5234 25.1711 88.4843 25.1915C88.4452 25.2118 88.4018 25.2225 88.3577 25.2225C88.3136 25.2225 88.2701 25.2118 88.231 25.1915C88.1919 25.1711 88.1583 25.1416 88.133 25.1055L79.7246 13.0936C79.6993 13.0574 79.6657 13.028 79.6266 13.0076C79.5875 12.9872 79.544 12.9766 79.5 12.9766H76.4881C76.4379 12.9766 76.3887 12.9903 76.3459 13.0164C76.303 13.0424 76.268 13.0797 76.2449 13.1242C76.2217 13.1687 76.2112 13.2186 76.2145 13.2687C76.2177 13.3188 76.2347 13.367 76.2634 13.4081L86.4352 27.939C86.4605 27.9751 86.4941 28.0046 86.5332 28.025C86.5723 28.0454 86.6158 28.056 86.6599 28.056H90.0555C90.0996 28.056 90.143 28.0453 90.1821 28.025C90.2212 28.0046 90.2549 27.9751 90.2802 27.939L100.452 13.4073C100.481 13.3663 100.498 13.3182 100.501 13.2682C100.505 13.2182 100.494 13.1683 100.471 13.1239C100.448 13.0795 100.413 13.0422 100.37 13.0163C100.327 12.9903 100.278 12.9766 100.228 12.9766H97.2151C97.1711 12.9766 97.1277 12.9872 97.0887 13.0075C97.0496 13.0279 97.016 13.0573 96.9908 13.0934Z" fill="white"/>
<path d="M223.5 28.0559H212.945C211.346 28.0541 209.812 27.4181 208.682 26.2873C207.551 25.1565 206.915 23.6234 206.913 22.0242V19.0083C206.915 17.4092 207.551 15.876 208.682 14.7452C209.812 13.6144 211.346 12.9784 212.945 12.9766H223.5C225.1 12.9784 226.633 13.6144 227.764 14.7452C228.894 15.876 229.53 17.4092 229.532 19.0083V22.0242C229.53 23.6234 228.894 25.1565 227.763 26.2873C226.633 27.4181 225.1 28.0541 223.5 28.0559ZM212.945 15.9925C212.145 15.9934 211.379 16.3114 210.813 16.8768C210.248 17.4422 209.93 18.2088 209.929 19.0084V22.0243C209.93 22.8238 210.248 23.5904 210.813 24.1558C211.379 24.7212 212.145 25.0392 212.945 25.0401H223.5C224.3 25.0392 225.067 24.7212 225.632 24.1558C226.197 23.5904 226.515 22.8238 226.516 22.0243V19.0083C226.515 18.2088 226.197 17.4422 225.632 16.8768C225.067 16.3114 224.3 15.9934 223.5 15.9925L212.945 15.9925Z" fill="white"/>
<path d="M161.401 28.0559H149.612C148.82 28.0559 148.035 27.8999 147.304 27.5968C146.572 27.2937 145.907 26.8494 145.347 26.2893C144.787 25.7292 144.342 25.0643 144.039 24.3325C143.736 23.6007 143.58 22.8163 143.58 22.0242V19.0083C143.58 17.4086 144.216 15.8744 145.347 14.7432C146.478 13.6121 148.012 12.9766 149.612 12.9766H161.401C161.474 12.9766 161.544 13.0055 161.595 13.0569C161.646 13.1083 161.675 13.1781 161.675 13.2508V15.7182C161.675 15.7909 161.646 15.8607 161.595 15.9121C161.544 15.9636 161.474 15.9925 161.401 15.9925H149.612C148.812 15.9925 148.045 16.3102 147.479 16.8758C146.914 17.4414 146.596 18.2085 146.596 19.0083V22.0242C146.596 22.4203 146.674 22.8125 146.826 23.1783C146.977 23.5442 147.199 23.8767 147.479 24.1568C147.759 24.4368 148.092 24.6589 148.458 24.8105C148.824 24.962 149.216 25.04 149.612 25.04H161.401C161.474 25.04 161.544 25.0689 161.595 25.1204C161.646 25.1718 161.675 25.2416 161.675 25.3143V27.7818C161.675 27.8178 161.668 27.8534 161.654 27.8867C161.641 27.92 161.62 27.9502 161.595 27.9756C161.57 28.0011 161.539 28.0213 161.506 28.0351C161.473 28.0488 161.437 28.0559 161.401 28.0559Z" fill="white"/>
<path d="M177.358 12.9766H169.818C168.218 12.9766 166.684 13.6121 165.553 14.7432C164.422 15.8744 163.786 17.4086 163.786 19.0083V27.7818C163.786 27.8178 163.793 27.8534 163.807 27.8867C163.821 27.92 163.841 27.9502 163.866 27.9756C163.892 28.0011 163.922 28.0213 163.955 28.0351C163.989 28.0488 164.024 28.0559 164.06 28.0559H166.528C166.564 28.0559 166.599 28.0488 166.633 28.0351C166.666 28.0213 166.696 28.0011 166.722 27.9756C166.747 27.9502 166.767 27.92 166.781 27.8867C166.795 27.8534 166.802 27.8178 166.802 27.7818V22.2984C166.802 22.2624 166.809 22.2267 166.823 22.1935C166.837 22.1602 166.857 22.13 166.882 22.1045C166.908 22.0791 166.938 22.0589 166.971 22.0451C167.005 22.0313 167.04 22.0242 167.076 22.0243H180.099C180.135 22.0242 180.171 22.0313 180.204 22.0451C180.237 22.0589 180.268 22.0791 180.293 22.1045C180.319 22.13 180.339 22.1602 180.353 22.1935C180.366 22.2267 180.373 22.2624 180.373 22.2984V27.7818C180.373 27.8178 180.381 27.8534 180.394 27.8867C180.408 27.92 180.428 27.9502 180.454 27.9756C180.479 28.0011 180.51 28.0213 180.543 28.0351C180.576 28.0488 180.612 28.0559 180.648 28.0559H183.115C183.151 28.0559 183.187 28.0488 183.22 28.0351C183.253 28.0213 183.284 28.0011 183.309 27.9756C183.334 27.9502 183.355 27.92 183.368 27.8867C183.382 27.8534 183.389 27.8178 183.389 27.7818V19.0083C183.389 17.4086 182.754 15.8744 181.623 14.7432C180.491 13.6121 178.957 12.9766 177.358 12.9766ZM167.091 19.0083C167.053 19.0089 167.016 19.0017 166.982 18.9872C166.947 18.9727 166.916 18.9513 166.89 18.9242C166.864 18.8971 166.844 18.865 166.832 18.8299C166.819 18.7947 166.813 18.7573 166.816 18.7199C166.888 17.9738 167.236 17.2813 167.791 16.7772C168.346 16.2731 169.068 15.9934 169.818 15.9925H177.358C178.107 15.9934 178.83 16.2731 179.385 16.7772C179.94 17.2813 180.287 17.9738 180.36 18.7199C180.362 18.7573 180.357 18.7947 180.344 18.8298C180.331 18.865 180.311 18.8971 180.285 18.9242C180.26 18.9513 180.228 18.9727 180.194 18.9872C180.159 19.0017 180.122 19.0089 180.085 19.0083H167.091Z" fill="white"/>
<path d="M202.087 13.2503V24.0282C202.087 24.0812 202.072 24.1331 202.043 24.1776C202.014 24.222 201.973 24.2571 201.924 24.2786C201.876 24.3 201.822 24.307 201.77 24.2985C201.717 24.29 201.669 24.2665 201.629 24.2308L189.328 13.0479C189.278 13.002 189.212 12.9766 189.144 12.9766H185.774C185.702 12.9766 185.632 13.0055 185.58 13.0569C185.529 13.1083 185.5 13.1781 185.5 13.2508V27.782C185.5 27.818 185.507 27.8536 185.521 27.8868C185.535 27.92 185.555 27.9502 185.58 27.9757C185.606 28.0011 185.636 28.0212 185.669 28.035C185.702 28.0488 185.738 28.0558 185.774 28.0558H188.242C188.278 28.0558 188.314 28.0487 188.347 28.035C188.38 28.0212 188.41 28.0011 188.436 27.9756C188.461 27.9502 188.481 27.92 188.495 27.8868C188.509 27.8536 188.516 27.818 188.516 27.782V17.0051C188.516 16.952 188.531 16.9 188.56 16.8555C188.589 16.811 188.631 16.7758 188.679 16.7543C188.728 16.7328 188.782 16.7259 188.834 16.7344C188.886 16.7429 188.935 16.7665 188.975 16.8022L201.275 27.9848C201.326 28.0306 201.391 28.0559 201.459 28.0559H204.829C204.865 28.0559 204.901 28.0488 204.934 28.0351C204.967 28.0213 204.998 28.0012 205.023 27.9757C205.048 27.9503 205.069 27.9201 205.082 27.8869C205.096 27.8537 205.103 27.8181 205.103 27.7821V13.2503C205.103 13.1777 205.074 13.1081 205.023 13.0568C204.972 13.0054 204.902 12.9766 204.829 12.9766H202.361C202.325 12.9766 202.289 12.9836 202.256 12.9974C202.223 13.0111 202.193 13.0313 202.167 13.0567C202.142 13.0821 202.122 13.1123 202.108 13.1455C202.094 13.1787 202.087 13.2143 202.087 13.2503Z" fill="white"/>
<path d="M117.341 28.0559H106.786C105.187 28.0541 103.653 27.4181 102.523 26.2873C101.392 25.1565 100.756 23.6234 100.754 22.0242V19.0083C100.756 17.4092 101.392 15.876 102.523 14.7452C103.653 13.6144 105.187 12.9784 106.786 12.9766H117.341C118.94 12.9784 120.474 13.6144 121.604 14.7452C122.735 15.876 123.371 17.4092 123.373 19.0083V22.0242C123.371 23.6234 122.735 25.1565 121.604 26.2873C120.474 27.4181 118.94 28.0541 117.341 28.0559ZM106.786 15.9925C105.986 15.9934 105.22 16.3114 104.654 16.8768C104.089 17.4422 103.771 18.2088 103.77 19.0084V22.0243C103.771 22.8238 104.089 23.5904 104.654 24.1558C105.22 24.7212 105.986 25.0392 106.786 25.0401H117.341C118.141 25.0392 118.907 24.7212 119.473 24.1558C120.038 23.5904 120.356 22.8238 120.357 22.0243V19.0083C120.356 18.2088 120.038 17.4422 119.473 16.8768C118.907 16.3114 118.141 15.9934 117.341 15.9925H106.786Z" fill="white"/>
<path d="M141.496 28.0559H131.214C130.422 28.0559 129.638 27.8999 128.906 27.5968C128.174 27.2937 127.509 26.8494 126.949 26.2893C126.389 25.7292 125.945 25.0643 125.642 24.3325C125.339 23.6007 125.183 22.8163 125.183 22.0242V13.2508C125.183 13.1781 125.212 13.1083 125.263 13.0569C125.314 13.0055 125.384 12.9766 125.457 12.9766H127.924C127.997 12.9766 128.067 13.0055 128.118 13.0569C128.17 13.1083 128.199 13.1781 128.199 13.2508V22.0242C128.199 22.8241 128.516 23.5912 129.082 24.1568C129.647 24.7224 130.415 25.0401 131.214 25.0401H141.496C141.568 25.0401 141.638 25.069 141.69 25.1204C141.741 25.1718 141.77 25.2416 141.77 25.3143V27.7818C141.77 27.8178 141.763 27.8534 141.749 27.8867C141.735 27.92 141.715 27.9502 141.69 27.9756C141.664 28.0011 141.634 28.0213 141.601 28.0351C141.567 28.0488 141.532 28.0559 141.496 28.0559Z" fill="white"/>
<path d="M96.9908 13.0934L88.5823 25.1055C88.557 25.1416 88.5234 25.1711 88.4843 25.1915C88.4452 25.2118 88.4018 25.2225 88.3577 25.2225C88.3136 25.2225 88.2701 25.2118 88.231 25.1915C88.1919 25.1711 88.1583 25.1416 88.133 25.1055L79.7246 13.0936C79.6993 13.0574 79.6657 13.028 79.6266 13.0076C79.5875 12.9872 79.544 12.9766 79.5 12.9766H76.4881C76.4379 12.9766 76.3887 12.9903 76.3459 13.0164C76.303 13.0424 76.268 13.0797 76.2449 13.1242C76.2217 13.1687 76.2112 13.2186 76.2145 13.2687C76.2177 13.3188 76.2347 13.367 76.2634 13.4081L86.4352 27.939C86.4605 27.9751 86.4941 28.0046 86.5332 28.025C86.5723 28.0454 86.6158 28.056 86.6599 28.056H90.0555C90.0996 28.056 90.143 28.0453 90.1821 28.025C90.2212 28.0046 90.2549 27.9751 90.2802 27.939L100.452 13.4073C100.481 13.3663 100.498 13.3182 100.501 13.2682C100.505 13.2182 100.494 13.1683 100.471 13.1239C100.448 13.0795 100.413 13.0422 100.37 13.0163C100.327 12.9903 100.278 12.9766 100.228 12.9766H97.2151C97.1711 12.9766 97.1277 12.9872 97.0887 13.0075C97.0496 13.0279 97.016 13.0573 96.9908 13.0934Z" fill="white"/>
<path d="M223.5 28.0559H212.945C211.346 28.0541 209.812 27.4181 208.682 26.2873C207.551 25.1565 206.915 23.6234 206.913 22.0242V19.0083C206.915 17.4092 207.551 15.876 208.682 14.7452C209.812 13.6144 211.346 12.9784 212.945 12.9766H223.5C225.1 12.9784 226.633 13.6144 227.764 14.7452C228.894 15.876 229.53 17.4092 229.532 19.0083V22.0242C229.53 23.6234 228.894 25.1565 227.763 26.2873C226.633 27.4181 225.1 28.0541 223.5 28.0559ZM212.945 15.9925C212.145 15.9934 211.379 16.3114 210.813 16.8768C210.248 17.4422 209.93 18.2088 209.929 19.0084V22.0243C209.93 22.8238 210.248 23.5904 210.813 24.1558C211.379 24.7212 212.145 25.0392 212.945 25.0401H223.5C224.3 25.0392 225.067 24.7212 225.632 24.1558C226.197 23.5904 226.515 22.8238 226.516 22.0243V19.0083C226.515 18.2088 226.197 17.4422 225.632 16.8768C225.067 16.3114 224.3 15.9934 223.5 15.9925L212.945 15.9925Z" fill="white"/>
<path d="M161.401 28.0559H149.612C148.82 28.0559 148.035 27.8999 147.304 27.5968C146.572 27.2937 145.907 26.8494 145.347 26.2893C144.787 25.7292 144.342 25.0643 144.039 24.3325C143.736 23.6007 143.58 22.8163 143.58 22.0242V19.0083C143.58 17.4086 144.216 15.8744 145.347 14.7432C146.478 13.6121 148.012 12.9766 149.612 12.9766H161.401C161.474 12.9766 161.544 13.0055 161.595 13.0569C161.646 13.1083 161.675 13.1781 161.675 13.2508V15.7182C161.675 15.7909 161.646 15.8607 161.595 15.9121C161.544 15.9636 161.474 15.9925 161.401 15.9925H149.612C148.812 15.9925 148.045 16.3102 147.479 16.8758C146.914 17.4414 146.596 18.2085 146.596 19.0083V22.0242C146.596 22.4203 146.674 22.8125 146.826 23.1783C146.977 23.5442 147.199 23.8767 147.479 24.1568C147.759 24.4368 148.092 24.6589 148.458 24.8105C148.824 24.962 149.216 25.04 149.612 25.04H161.401C161.474 25.04 161.544 25.0689 161.595 25.1204C161.646 25.1718 161.675 25.2416 161.675 25.3143V27.7818C161.675 27.8178 161.668 27.8534 161.654 27.8867C161.641 27.92 161.62 27.9502 161.595 27.9756C161.57 28.0011 161.539 28.0213 161.506 28.0351C161.473 28.0488 161.437 28.0559 161.401 28.0559Z" fill="white"/>
<path d="M177.358 12.9766H169.818C168.218 12.9766 166.684 13.6121 165.553 14.7432C164.422 15.8744 163.786 17.4086 163.786 19.0083V27.7818C163.786 27.8178 163.793 27.8534 163.807 27.8867C163.821 27.92 163.841 27.9502 163.866 27.9756C163.892 28.0011 163.922 28.0213 163.955 28.0351C163.989 28.0488 164.024 28.0559 164.06 28.0559H166.528C166.564 28.0559 166.599 28.0488 166.633 28.0351C166.666 28.0213 166.696 28.0011 166.722 27.9756C166.747 27.9502 166.767 27.92 166.781 27.8867C166.795 27.8534 166.802 27.8178 166.802 27.7818V22.2984C166.802 22.2624 166.809 22.2267 166.823 22.1935C166.837 22.1602 166.857 22.13 166.882 22.1045C166.908 22.0791 166.938 22.0589 166.971 22.0451C167.005 22.0313 167.04 22.0242 167.076 22.0243H180.099C180.135 22.0242 180.171 22.0313 180.204 22.0451C180.237 22.0589 180.268 22.0791 180.293 22.1045C180.319 22.13 180.339 22.1602 180.353 22.1935C180.366 22.2267 180.373 22.2624 180.373 22.2984V27.7818C180.373 27.8178 180.381 27.8534 180.394 27.8867C180.408 27.92 180.428 27.9502 180.454 27.9756C180.479 28.0011 180.51 28.0213 180.543 28.0351C180.576 28.0488 180.612 28.0559 180.648 28.0559H183.115C183.151 28.0559 183.187 28.0488 183.22 28.0351C183.253 28.0213 183.284 28.0011 183.309 27.9756C183.334 27.9502 183.355 27.92 183.368 27.8867C183.382 27.8534 183.389 27.8178 183.389 27.7818V19.0083C183.389 17.4086 182.754 15.8744 181.623 14.7432C180.491 13.6121 178.957 12.9766 177.358 12.9766ZM167.091 19.0083C167.053 19.0089 167.016 19.0017 166.982 18.9872C166.947 18.9727 166.916 18.9513 166.89 18.9242C166.864 18.8971 166.844 18.865 166.832 18.8299C166.819 18.7947 166.813 18.7573 166.816 18.7199C166.888 17.9738 167.236 17.2813 167.791 16.7772C168.346 16.2731 169.068 15.9934 169.818 15.9925H177.358C178.107 15.9934 178.83 16.2731 179.385 16.7772C179.94 17.2813 180.287 17.9738 180.36 18.7199C180.362 18.7573 180.357 18.7947 180.344 18.8298C180.331 18.865 180.311 18.8971 180.285 18.9242C180.26 18.9513 180.228 18.9727 180.194 18.9872C180.159 19.0017 180.122 19.0089 180.085 19.0083H167.091Z" fill="white"/>
<path d="M202.087 13.2503V24.0282C202.087 24.0812 202.072 24.1331 202.043 24.1776C202.014 24.222 201.973 24.2571 201.924 24.2786C201.876 24.3 201.822 24.307 201.77 24.2985C201.717 24.29 201.669 24.2665 201.629 24.2308L189.328 13.0479C189.278 13.002 189.212 12.9766 189.144 12.9766H185.774C185.702 12.9766 185.632 13.0055 185.58 13.0569C185.529 13.1083 185.5 13.1781 185.5 13.2508V27.782C185.5 27.818 185.507 27.8536 185.521 27.8868C185.535 27.92 185.555 27.9502 185.58 27.9757C185.606 28.0011 185.636 28.0212 185.669 28.035C185.702 28.0488 185.738 28.0558 185.774 28.0558H188.242C188.278 28.0558 188.314 28.0487 188.347 28.035C188.38 28.0212 188.41 28.0011 188.436 27.9756C188.461 27.9502 188.481 27.92 188.495 27.8868C188.509 27.8536 188.516 27.818 188.516 27.782V17.0051C188.516 16.952 188.531 16.9 188.56 16.8555C188.589 16.811 188.631 16.7758 188.679 16.7543C188.728 16.7328 188.782 16.7259 188.834 16.7344C188.886 16.7429 188.935 16.7665 188.975 16.8022L201.275 27.9848C201.326 28.0306 201.391 28.0559 201.459 28.0559H204.829C204.865 28.0559 204.901 28.0488 204.934 28.0351C204.967 28.0213 204.998 28.0012 205.023 27.9757C205.048 27.9503 205.069 27.9201 205.082 27.8869C205.096 27.8537 205.103 27.8181 205.103 27.7821V13.2503C205.103 13.1777 205.074 13.1081 205.023 13.0568C204.972 13.0054 204.902 12.9766 204.829 12.9766H202.361C202.325 12.9766 202.289 12.9836 202.256 12.9974C202.223 13.0111 202.193 13.0313 202.167 13.0567C202.142 13.0821 202.122 13.1123 202.108 13.1455C202.094 13.1787 202.087 13.2143 202.087 13.2503Z" fill="white"/>
<path d="M117.341 28.0559H106.786C105.187 28.0541 103.653 27.4181 102.523 26.2873C101.392 25.1565 100.756 23.6234 100.754 22.0242V19.0083C100.756 17.4092 101.392 15.876 102.523 14.7452C103.653 13.6144 105.187 12.9784 106.786 12.9766H117.341C118.94 12.9784 120.474 13.6144 121.604 14.7452C122.735 15.876 123.371 17.4092 123.373 19.0083V22.0242C123.371 23.6234 122.735 25.1565 121.604 26.2873C120.474 27.4181 118.94 28.0541 117.341 28.0559ZM106.786 15.9925C105.986 15.9934 105.22 16.3114 104.654 16.8768C104.089 17.4422 103.771 18.2088 103.77 19.0084V22.0243C103.771 22.8238 104.089 23.5904 104.654 24.1558C105.22 24.7212 105.986 25.0392 106.786 25.0401H117.341C118.141 25.0392 118.907 24.7212 119.473 24.1558C120.038 23.5904 120.356 22.8238 120.357 22.0243V19.0083C120.356 18.2088 120.038 17.4422 119.473 16.8768C118.907 16.3114 118.141 15.9934 117.341 15.9925H106.786Z" fill="white"/>
<path d="M141.496 28.0559H131.214C130.422 28.0559 129.638 27.8999 128.906 27.5968C128.174 27.2937 127.509 26.8494 126.949 26.2893C126.389 25.7292 125.945 25.0643 125.642 24.3325C125.339 23.6007 125.183 22.8163 125.183 22.0242V13.2508C125.183 13.1781 125.212 13.1083 125.263 13.0569C125.314 13.0055 125.384 12.9766 125.457 12.9766H127.924C127.997 12.9766 128.067 13.0055 128.118 13.0569C128.17 13.1083 128.199 13.1781 128.199 13.2508V22.0242C128.199 22.8241 128.516 23.5912 129.082 24.1568C129.647 24.7224 130.415 25.0401 131.214 25.0401H141.496C141.568 25.0401 141.638 25.069 141.69 25.1204C141.741 25.1718 141.77 25.2416 141.77 25.3143V27.7818C141.77 27.8178 141.763 27.8534 141.749 27.8867C141.735 27.92 141.715 27.9502 141.69 27.9756C141.664 28.0011 141.634 28.0213 141.601 28.0351C141.567 28.0488 141.532 28.0559 141.496 28.0559Z" fill="white"/>
<path d="M96.9908 13.0934L88.5823 25.1055C88.557 25.1416 88.5234 25.1711 88.4843 25.1915C88.4452 25.2118 88.4018 25.2225 88.3577 25.2225C88.3136 25.2225 88.2701 25.2118 88.231 25.1915C88.1919 25.1711 88.1583 25.1416 88.133 25.1055L79.7246 13.0936C79.6993 13.0574 79.6657 13.028 79.6266 13.0076C79.5875 12.9872 79.544 12.9766 79.5 12.9766H76.4881C76.4379 12.9766 76.3887 12.9903 76.3459 13.0164C76.303 13.0424 76.268 13.0797 76.2449 13.1242C76.2217 13.1687 76.2112 13.2186 76.2145 13.2687C76.2177 13.3188 76.2347 13.367 76.2634 13.4081L86.4352 27.939C86.4605 27.9751 86.4941 28.0046 86.5332 28.025C86.5723 28.0454 86.6158 28.056 86.6599 28.056H90.0555C90.0996 28.056 90.143 28.0453 90.1821 28.025C90.2212 28.0046 90.2549 27.9751 90.2802 27.939L100.452 13.4073C100.481 13.3663 100.498 13.3182 100.501 13.2682C100.505 13.2182 100.494 13.1683 100.471 13.1239C100.448 13.0795 100.413 13.0422 100.37 13.0163C100.327 12.9903 100.278 12.9766 100.228 12.9766H97.2151C97.1711 12.9766 97.1277 12.9872 97.0887 13.0075C97.0496 13.0279 97.016 13.0573 96.9908 13.0934Z" fill="white"/>
<path d="M223.5 28.0559H212.945C211.346 28.0541 209.812 27.4181 208.682 26.2873C207.551 25.1565 206.915 23.6234 206.913 22.0242V19.0083C206.915 17.4092 207.551 15.876 208.682 14.7452C209.812 13.6144 211.346 12.9784 212.945 12.9766H223.5C225.1 12.9784 226.633 13.6144 227.764 14.7452C228.894 15.876 229.53 17.4092 229.532 19.0083V22.0242C229.53 23.6234 228.894 25.1565 227.763 26.2873C226.633 27.4181 225.1 28.0541 223.5 28.0559ZM212.945 15.9925C212.145 15.9934 211.379 16.3114 210.813 16.8768C210.248 17.4422 209.93 18.2088 209.929 19.0084V22.0243C209.93 22.8238 210.248 23.5904 210.813 24.1558C211.379 24.7212 212.145 25.0392 212.945 25.0401H223.5C224.3 25.0392 225.067 24.7212 225.632 24.1558C226.197 23.5904 226.515 22.8238 226.516 22.0243V19.0083C226.515 18.2088 226.197 17.4422 225.632 16.8768C225.067 16.3114 224.3 15.9934 223.5 15.9925L212.945 15.9925Z" fill="white"/>
<path d="M161.401 28.0559H149.612C148.82 28.0559 148.035 27.8999 147.304 27.5968C146.572 27.2937 145.907 26.8494 145.347 26.2893C144.787 25.7292 144.342 25.0643 144.039 24.3325C143.736 23.6007 143.58 22.8163 143.58 22.0242V19.0083C143.58 17.4086 144.216 15.8744 145.347 14.7432C146.478 13.6121 148.012 12.9766 149.612 12.9766H161.401C161.474 12.9766 161.544 13.0055 161.595 13.0569C161.646 13.1083 161.675 13.1781 161.675 13.2508V15.7182C161.675 15.7909 161.646 15.8607 161.595 15.9121C161.544 15.9636 161.474 15.9925 161.401 15.9925H149.612C148.812 15.9925 148.045 16.3102 147.479 16.8758C146.914 17.4414 146.596 18.2085 146.596 19.0083V22.0242C146.596 22.4203 146.674 22.8125 146.826 23.1783C146.977 23.5442 147.199 23.8767 147.479 24.1568C147.759 24.4368 148.092 24.6589 148.458 24.8105C148.824 24.962 149.216 25.04 149.612 25.04H161.401C161.474 25.04 161.544 25.0689 161.595 25.1204C161.646 25.1718 161.675 25.2416 161.675 25.3143V27.7818C161.675 27.8178 161.668 27.8534 161.654 27.8867C161.641 27.92 161.62 27.9502 161.595 27.9756C161.57 28.0011 161.539 28.0213 161.506 28.0351C161.473 28.0488 161.437 28.0559 161.401 28.0559Z" fill="white"/>
<path d="M177.358 12.9766H169.818C168.218 12.9766 166.684 13.6121 165.553 14.7432C164.422 15.8744 163.786 17.4086 163.786 19.0083V27.7818C163.786 27.8178 163.793 27.8534 163.807 27.8867C163.821 27.92 163.841 27.9502 163.866 27.9756C163.892 28.0011 163.922 28.0213 163.955 28.0351C163.989 28.0488 164.024 28.0559 164.06 28.0559H166.528C166.564 28.0559 166.599 28.0488 166.633 28.0351C166.666 28.0213 166.696 28.0011 166.722 27.9756C166.747 27.9502 166.767 27.92 166.781 27.8867C166.795 27.8534 166.802 27.8178 166.802 27.7818V22.2984C166.802 22.2624 166.809 22.2267 166.823 22.1935C166.837 22.1602 166.857 22.13 166.882 22.1045C166.908 22.0791 166.938 22.0589 166.971 22.0451C167.005 22.0313 167.04 22.0242 167.076 22.0243H180.099C180.135 22.0242 180.171 22.0313 180.204 22.0451C180.237 22.0589 180.268 22.0791 180.293 22.1045C180.319 22.13 180.339 22.1602 180.353 22.1935C180.366 22.2267 180.373 22.2624 180.373 22.2984V27.7818C180.373 27.8178 180.381 27.8534 180.394 27.8867C180.408 27.92 180.428 27.9502 180.454 27.9756C180.479 28.0011 180.51 28.0213 180.543 28.0351C180.576 28.0488 180.612 28.0559 180.648 28.0559H183.115C183.151 28.0559 183.187 28.0488 183.22 28.0351C183.253 28.0213 183.284 28.0011 183.309 27.9756C183.334 27.9502 183.355 27.92 183.368 27.8867C183.382 27.8534 183.389 27.8178 183.389 27.7818V19.0083C183.389 17.4086 182.754 15.8744 181.623 14.7432C180.491 13.6121 178.957 12.9766 177.358 12.9766ZM167.091 19.0083C167.053 19.0089 167.016 19.0017 166.982 18.9872C166.947 18.9727 166.916 18.9513 166.89 18.9242C166.864 18.8971 166.844 18.865 166.832 18.8299C166.819 18.7947 166.813 18.7573 166.816 18.7199C166.888 17.9738 167.236 17.2813 167.791 16.7772C168.346 16.2731 169.068 15.9934 169.818 15.9925H177.358C178.107 15.9934 178.83 16.2731 179.385 16.7772C179.94 17.2813 180.287 17.9738 180.36 18.7199C180.362 18.7573 180.357 18.7947 180.344 18.8298C180.331 18.865 180.311 18.8971 180.285 18.9242C180.26 18.9513 180.228 18.9727 180.194 18.9872C180.159 19.0017 180.122 19.0089 180.085 19.0083H167.091Z" fill="white"/>
<path d="M202.087 13.2503V24.0282C202.087 24.0812 202.072 24.1331 202.043 24.1776C202.014 24.222 201.973 24.2571 201.924 24.2786C201.876 24.3 201.822 24.307 201.77 24.2985C201.717 24.29 201.669 24.2665 201.629 24.2308L189.328 13.0479C189.278 13.002 189.212 12.9766 189.144 12.9766H185.774C185.702 12.9766 185.632 13.0055 185.58 13.0569C185.529 13.1083 185.5 13.1781 185.5 13.2508V27.782C185.5 27.818 185.507 27.8536 185.521 27.8868C185.535 27.92 185.555 27.9502 185.58 27.9757C185.606 28.0011 185.636 28.0212 185.669 28.035C185.702 28.0488 185.738 28.0558 185.774 28.0558H188.242C188.278 28.0558 188.314 28.0487 188.347 28.035C188.38 28.0212 188.41 28.0011 188.436 27.9756C188.461 27.9502 188.481 27.92 188.495 27.8868C188.509 27.8536 188.516 27.818 188.516 27.782V17.0051C188.516 16.952 188.531 16.9 188.56 16.8555C188.589 16.811 188.631 16.7758 188.679 16.7543C188.728 16.7328 188.782 16.7259 188.834 16.7344C188.886 16.7429 188.935 16.7665 188.975 16.8022L201.275 27.9848C201.326 28.0306 201.391 28.0559 201.459 28.0559H204.829C204.865 28.0559 204.901 28.0488 204.934 28.0351C204.967 28.0213 204.998 28.0012 205.023 27.9757C205.048 27.9503 205.069 27.9201 205.082 27.8869C205.096 27.8537 205.103 27.8181 205.103 27.7821V13.2503C205.103 13.1777 205.074 13.1081 205.023 13.0568C204.972 13.0054 204.902 12.9766 204.829 12.9766H202.361C202.325 12.9766 202.289 12.9836 202.256 12.9974C202.223 13.0111 202.193 13.0313 202.167 13.0567C202.142 13.0821 202.122 13.1123 202.108 13.1455C202.094 13.1787 202.087 13.2143 202.087 13.2503Z" fill="white"/>
<defs>
<linearGradient id="paint0_linear_1944_8012" x1="42.3982" y1="39.3627" x2="42.3982" y2="1.66407" gradientUnits="userSpaceOnUse">
<stop stop-color="#EB5520"/>
<stop offset="0.24727" stop-color="#EB511F"/>
<stop offset="0.50344" stop-color="#EB441D"/>
<stop offset="0.76272" stop-color="#EB301A"/>
<stop offset="1" stop-color="#EB1616"/>
</linearGradient>
</defs>
</svg>
